<svg width="28" height="25" viewBox="0 0 28 25" fill="none" xmlns="http://www.w3.org/2000/svg">
<path d="M28 6.25C28 4.52637 26.6049 3.125 24.8889 3.125H9.97986C9.15347 3.125 8.36111 3.45215 7.77778 4.03809L0.456944 11.3965C0.165278 11.6895 0 12.085 0 12.5C0 12.915 0.165278 13.3105 0.456944 13.6035L7.77778 20.9619C8.36111 21.5479 9.15347 21.875 9.97986 21.875H24.8889C26.6049 21.875 28 20.4736 28 18.75V6.25ZM13.1736 8.54492C13.6306 8.08594 14.3694 8.08594 14.8215 8.54492L17.1062 10.8398L19.391 8.54492C19.8479 8.08594 20.5868 8.08594 21.0389 8.54492C21.491 9.00391 21.4958 9.74609 21.0389 10.2002L18.7542 12.4951L21.0389 14.79C21.4958 15.249 21.4958 15.9912 21.0389 16.4453C20.5819 16.8994 19.8431 16.9043 19.391 16.4453L17.1062 14.1504L14.8215 16.4453C14.3646 16.9043 13.6257 16.9043 13.1736 16.4453C12.7215 15.9863 12.7167 15.2441 13.1736 14.79L15.4583 12.4951L13.1736 10.2002C12.7167 9.74121 12.7167 8.99902 13.1736 8.54492Z" fill="white"/>
</svg>
