<svg width="40" height="35" viewBox="0 0 40 35" fill="none" xmlns="http://www.w3.org/2000/svg">
<g clip-path="url(#clip0_3534_1724)">
<path d="M39.2 8.75C39.2 6.33691 37.2468 4.375 34.8444 4.375H13.9718C12.8149 4.375 11.7056 4.83301 10.8889 5.65332L0.639722 15.9551C0.231389 16.3652 0 16.9189 0 17.5C0 18.0811 0.231389 18.6348 0.639722 19.0449L10.8889 29.3467C11.7056 30.167 12.8149 30.625 13.9718 30.625H34.8444C37.2468 30.625 39.2 28.6631 39.2 26.25V8.75ZM18.4431 11.9629C19.0828 11.3203 20.1172 11.3203 20.7501 11.9629L23.9487 15.1758L27.1474 11.9629C27.7871 11.3203 28.8215 11.3203 29.4544 11.9629C30.0874 12.6055 30.0942 13.6445 29.4544 14.2803L26.2558 17.4932L29.4544 20.7061C30.0942 21.3486 30.0942 22.3877 29.4544 23.0234C28.8147 23.6592 27.7803 23.666 27.1474 23.0234L23.9487 19.8105L20.7501 23.0234C20.1104 23.666 19.076 23.666 18.4431 23.0234C17.8101 22.3809 17.8033 21.3418 18.4431 20.7061L21.6417 17.4932L18.4431 14.2803C17.8033 13.6377 17.8033 12.5986 18.4431 11.9629Z" fill="black"/>
</g>
<defs>
<clipPath id="clip0_3534_1724">
<rect width="39.2" height="35" fill="white"/>
</clipPath>
</defs>
</svg>
