<svg width="60" height="45" viewBox="0 0 60 45" fill="none" xmlns="http://www.w3.org/2000/svg">
<g clip-path="url(#clip0_162_165)">
<path d="M41.3225 43.3513H36.9389L33.936 35.7826C33.7681 35.3594 33.2889 35.1522 32.8658 35.3204C32.4425 35.4882 32.2356 35.9675 32.4035 36.3906L35.1651 43.3513H32.9953C32.5399 43.3513 32.1709 43.7204 32.1709 44.1756C32.1709 44.631 32.5399 45 32.9953 45H41.3226C41.778 45 42.1469 44.631 42.1469 44.1756C42.1468 43.7205 41.7777 43.3513 41.3225 43.3513Z" fill="#FFB819"/>
<path opacity="0.2" d="M33.9361 35.7826C33.7681 35.3594 33.289 35.1522 32.8658 35.3204C32.4425 35.4882 32.2357 35.9675 32.4035 36.3906L33.0439 38.0048C33.5712 37.8369 34.0871 37.6456 34.5908 37.433L33.9361 35.7826Z" fill="#222222"/>
<path d="M15.338 33.2227L7.83887 43.1048C15.3381 44.8029 17.2891 37.2203 18.3225 33.2227H15.338Z" fill="#FF8189"/>
<path d="M40.6568 0C37.254 0 34.4132 2.40503 33.7401 5.60783C33.7392 5.61156 33.7379 5.61475 33.7371 5.61849C33.1775 7.83359 33.0806 8.78666 32.5349 9.64476C32.5316 9.64893 32.5282 9.65289 32.5247 9.65696L32.4045 9.82194C32.3138 9.95636 32.2267 10.075 32.142 10.1817L15.3379 33.2227C18.6361 35.639 20.9103 37.0001 25.4881 37.4143C36.4527 38.4063 45.4225 30.3602 45.4225 19.3507C45.4225 18.3183 45.3437 17.3042 45.1921 16.314H45.1928C45.1919 16.3091 45.1907 16.3037 45.1899 16.2987C45.1748 16.1993 45.1577 16.1005 45.1411 16.0015C44.9756 14.8657 44.9944 13.2121 46.0364 11.6512C46.2056 11.4528 46.365 11.2462 46.5119 11.0297C46.5121 11.0295 46.5125 11.029 46.5128 11.0287C47.2782 9.89899 47.7254 8.53605 47.7254 7.0687C47.7253 3.16476 44.5605 0 40.6568 0Z" fill="#FF5959"/>
<path d="M47.0766 5.08344C48.2679 5.08344 50.5935 6.6717 51.1608 8.31689H45.6016L47.0766 5.08344Z" fill="#FFD923"/>
<path d="M46.7816 10.392C47.8011 10.392 49.8726 9.72479 50.3581 8.31689H45.6016L46.7816 10.392Z" fill="#FFB819"/>
<path d="M45.4152 18.8309C45.4143 18.7975 45.4133 18.7641 45.4125 18.7307C45.3952 18.1793 45.3557 17.6335 45.2949 17.0942C37.9473 17.1629 32.0117 23.1397 32.0117 30.5037C32.0117 32.6563 32.5207 34.6893 33.4222 36.4917C39.7142 34.3351 44.3388 28.8853 45.2558 21.9162C45.2595 21.8878 45.2634 21.8592 45.267 21.8306C45.2842 21.6957 45.2999 21.5602 45.3142 21.4244C45.333 21.2426 45.3508 21.0604 45.3648 20.8772C45.3692 20.8199 45.3719 20.7622 45.3756 20.705C45.387 20.5371 45.3965 20.3687 45.4037 20.1997C45.4063 20.1365 45.4091 20.0731 45.4109 20.0097C45.4178 19.7908 45.4229 19.5713 45.4229 19.3506C45.4227 19.1768 45.4197 19.0036 45.4152 18.8309Z" fill="#FF8189"/>
<path opacity="0.2" d="M21.4318 24.867L15.3379 33.2227C18.6361 35.639 20.9103 37.0001 25.4881 37.4143C34.5183 38.2314 42.1943 32.9173 44.622 24.8671L21.4318 24.867Z" fill="#222222"/>
<path d="M37.9909 43.3513H33.6072L30.6045 35.7826C30.4366 35.3594 29.9575 35.1522 29.5342 35.3204C29.111 35.4882 28.9041 35.9675 29.0719 36.3906L31.8336 43.3513H29.6637C29.2083 43.3513 28.8394 43.7204 28.8394 44.1756C28.8394 44.631 29.2083 45 29.6637 45H37.991C38.4464 45 38.8154 44.631 38.8154 44.1756C38.8153 43.7205 38.4463 43.3513 37.9909 43.3513Z" fill="#FFD923"/>
<path opacity="0.3" d="M32.471 12.1654C31.8448 12.131 31.2303 12.1623 30.6331 12.2507L16.0312 32.2721C25.8978 32.7653 33.6157 31.9241 37.4434 28.4942L37.4425 28.4933C39.505 26.9369 40.8945 24.5176 41.047 21.7359C41.3218 16.7249 37.4821 12.4401 32.471 12.1654Z" fill="#222222"/>
<path d="M33.3709 10.9246C29.7955 10.7286 26.5897 12.6273 24.9466 15.5518L24.9469 15.5522C23.3135 18.5749 16.3447 31.0016 16.3447 31.0016C26.4923 31.558 34.4398 30.7515 38.3433 27.2534L38.3424 27.2527C40.4048 25.6963 41.7943 23.277 41.9468 20.4952C42.2215 15.484 38.3821 11.1992 33.3709 10.9246Z" fill="#333E48"/>
<path d="M43.6678 7.01715C44.2392 7.01715 44.7023 6.55398 44.7023 5.98263C44.7023 5.41129 44.2392 4.94812 43.6678 4.94812C43.0965 4.94812 42.6333 5.41129 42.6333 5.98263C42.6333 6.55398 43.0965 7.01715 43.6678 7.01715Z" fill="#333E48"/>
</g>
<defs>
<clipPath id="clip0_162_165">
<rect width="45" height="45" fill="white" transform="translate(7)"/>
</clipPath>
</defs>
</svg>
