<svg width="182" height="182" viewBox="0 0 182 182" fill="none" xmlns="http://www.w3.org/2000/svg">
<g clip-path="url(#clip0_162_135)">
<path d="M138.817 175.332H121.088L108.943 144.721C108.264 143.009 106.326 142.171 104.615 142.851C102.903 143.53 102.066 145.468 102.745 147.18L113.914 175.332H105.138C103.297 175.332 101.804 176.825 101.804 178.666C101.804 180.508 103.297 182 105.138 182H138.818C140.659 182 142.152 180.508 142.152 178.666C142.151 176.825 140.659 175.332 138.817 175.332Z" fill="#FFB819"/>
<path opacity="0.2" d="M108.943 144.721C108.264 143.009 106.326 142.171 104.614 142.851C102.902 143.53 102.066 145.468 102.745 147.18L105.334 153.708C107.467 153.029 109.554 152.256 111.591 151.395L108.943 144.721Z" fill="#222222"/>
<path d="M33.7233 134.367L3.39355 174.335C33.7238 181.203 41.6144 150.536 45.794 134.367H33.7233Z" fill="#FF8189"/>
<path d="M136.124 0C122.362 0 110.872 9.72703 108.15 22.6805C108.146 22.6957 108.141 22.7085 108.138 22.7237C105.875 31.6825 105.482 35.5371 103.275 39.0077C103.262 39.0246 103.248 39.0406 103.234 39.057L102.748 39.7243C102.381 40.268 102.029 40.7476 101.687 41.1793L33.7231 134.367C47.0625 144.14 56.2605 149.645 74.7753 151.32C119.121 155.332 155.399 122.79 155.399 78.263C155.399 74.0874 155.08 69.986 154.467 65.9812H154.47C154.466 65.9612 154.461 65.9394 154.458 65.9194C154.397 65.5171 154.328 65.1174 154.261 64.7173C153.591 60.1234 153.667 53.4357 157.882 47.1228C158.566 46.3204 159.211 45.4847 159.805 44.6089C159.806 44.608 159.807 44.6062 159.808 44.6049C162.904 40.0359 164.713 34.5236 164.713 28.5889C164.712 12.7997 151.912 0 136.124 0Z" fill="#FF5959"/>
<path d="M162.088 20.5596C166.906 20.5596 176.312 26.9832 178.606 33.6371H156.122L162.088 20.5596Z" fill="#FFD923"/>
<path d="M160.895 42.0297C165.018 42.0297 173.397 39.3313 175.36 33.6372H156.123L160.895 42.0297Z" fill="#FFB819"/>
<path d="M155.369 76.1607C155.365 76.0255 155.361 75.8904 155.358 75.7553C155.288 73.525 155.128 71.3178 154.882 69.1365C125.165 69.4143 101.159 93.5872 101.159 123.371C101.159 132.077 103.218 140.299 106.864 147.589C132.311 138.866 151.015 116.825 154.724 88.639C154.739 88.5238 154.755 88.4083 154.77 88.2927C154.839 87.7472 154.903 87.1991 154.96 86.6497C155.036 85.9144 155.108 85.1778 155.165 84.4367C155.183 84.2051 155.194 83.9717 155.209 83.7401C155.255 83.0613 155.293 82.3803 155.322 81.6966C155.333 81.441 155.344 81.1845 155.352 80.928C155.38 80.0429 155.4 79.1551 155.4 78.2625C155.399 77.5597 155.387 76.8591 155.369 76.1607Z" fill="#FF8189"/>
<path opacity="0.2" d="M58.3699 100.573L33.7236 134.367C47.063 144.14 56.261 149.645 74.7758 151.32C111.298 154.625 142.343 133.132 152.162 100.574L58.3699 100.573Z" fill="#222222"/>
<path d="M125.342 175.332H107.612L95.468 144.721C94.7892 143.009 92.8514 142.171 91.1395 142.851C89.4276 143.53 88.5909 145.468 89.2698 147.18L100.439 175.332H91.6632C89.8214 175.332 88.3291 176.825 88.3291 178.666C88.3291 180.508 89.8214 182 91.6632 182H125.343C127.184 182 128.677 180.508 128.677 178.666C128.676 176.825 127.184 175.332 125.342 175.332Z" fill="#FFD923"/>
<path opacity="0.3" d="M103.017 49.2024C100.484 49.0632 97.9986 49.1899 95.5834 49.5473L36.5269 130.523C76.4316 132.518 107.646 129.115 123.127 115.243L123.124 115.24C131.465 108.945 137.085 99.16 137.702 87.9095C138.813 67.6429 123.284 50.3133 103.017 49.2024Z" fill="#222222"/>
<path d="M106.657 44.1839C92.1963 43.3913 79.2307 51.0703 72.5853 62.8987L72.5866 62.9C65.9803 75.1253 37.7954 125.384 37.7954 125.384C78.8369 127.635 110.98 124.373 126.767 110.225L126.764 110.222C135.105 103.927 140.725 94.1424 141.342 82.8919C142.453 62.6244 126.924 45.2948 106.657 44.1839Z" fill="#333E48"/>
<path d="M148.302 28.3805C150.613 28.3805 152.486 26.5073 152.486 24.1965C152.486 21.8857 150.613 20.0125 148.302 20.0125C145.991 20.0125 144.118 21.8857 144.118 24.1965C144.118 26.5073 145.991 28.3805 148.302 28.3805Z" fill="#333E48"/>
</g>
<defs>
<clipPath id="clip0_162_135">
<rect width="182" height="182" fill="white"/>
</clipPath>
</defs>
</svg>
