<svg width="20" height="20" viewBox="0 0 20 20" fill="none" xmlns="http://www.w3.org/2000/svg">
<g clip-path="url(#clip0_35_120)">
<path d="M0 10C0 12.6522 1.05357 15.1957 2.92893 17.0711C4.8043 18.9464 7.34784 20 10 20C12.6522 20 15.1957 18.9464 17.0711 17.0711C18.9464 15.1957 20 12.6522 20 10C20 7.34784 18.9464 4.8043 17.0711 2.92893C15.1957 1.05357 12.6522 0 10 0C7.34784 0 4.8043 1.05357 2.92893 2.92893C1.05357 4.8043 0 7.34784 0 10ZM10.9766 15.0391C10.6094 15.4062 10.0156 15.4062 9.65234 15.0391C9.28906 14.6719 9.28516 14.0781 9.65234 13.7148L12.4258 10.9414L5.3125 10.9375C4.79297 10.9375 4.375 10.5195 4.375 10C4.375 9.48047 4.79297 9.0625 5.3125 9.0625H12.4258L9.65234 6.28906C9.28516 5.92188 9.28516 5.32812 9.65234 4.96484C10.0195 4.60156 10.6133 4.59766 10.9766 4.96484L15.3516 9.33594C15.7188 9.70312 15.7188 10.2969 15.3516 10.6602L10.9766 15.0391Z" fill="black"/>
</g>
<defs>
<clipPath id="clip0_35_120">
<rect width="20" height="20" fill="white"/>
</clipPath>
</defs>
</svg>
