<svg width="30" height="30" viewBox="0 0 30 30" fill="none" xmlns="http://www.w3.org/2000/svg">
<path d="M30 24.375V20.625C30 18.5566 28.3184 16.875 26.25 16.875H3.75C1.68164 16.875 0 18.5566 0 20.625V24.375C0 26.4434 1.68164 28.125 3.75 28.125H26.25C28.3184 28.125 30 26.4434 30 24.375ZM3.75 9.375V5.625H12.1875H13.125V9.375H3.75ZM16.875 9.375V5.625H21.5625C22.0781 5.625 22.5 6.04687 22.5 6.5625V7.5H20.2676C19.0137 7.5 18.3867 9.01758 19.2715 9.90234L23.3789 14.0039C23.9297 14.5547 24.8203 14.5547 25.3652 14.0039L29.4727 9.90234C30.3574 9.01758 29.7305 7.5 28.4766 7.5H26.25V6.5625C26.25 3.97266 24.1523 1.875 21.5625 1.875H13.125H12.1875H3.75C1.68164 1.875 0 3.55664 0 5.625V9.375C0 11.4434 1.68164 13.125 3.75 13.125H13.125C15.1934 13.125 16.875 11.4434 16.875 9.375Z" fill="black"/>
</svg>
