<svg width="235" height="182" viewBox="0 0 235 182" fill="none" xmlns="http://www.w3.org/2000/svg">
<path d="M16.2679 128.93L12.5006 124.359L17.4217 127.127C16.4798 125.056 15.538 122.985 14.5962 120.913L21.6599 124.43L17.5441 118.122L25.4602 122.566C26.0881 120.611 26.716 118.655 27.3439 116.7L30.8852 119.84C30.8422 117.734 31.5443 115.68 32.8678 114.04L36.588 119.393C36.8659 117.882 37.139 116.371 37.4169 114.855C37.405 114.085 37.5442 113.321 37.8265 112.605L37.4169 114.855C37.4592 118.418 40.6097 121.883 44.2169 122.98C48.587 124.312 53.2727 123.248 57.7699 122.42C73.8942 119.449 90.4092 119.642 106.802 119.845L163.67 120.546C162.514 117.354 162.287 113.901 163.015 110.585C165.326 113.3 167.64 116.013 169.957 118.724C169.583 116.408 169.214 114.092 168.85 111.776L174.266 117.665L174.054 111.451L180.378 119.181L178.965 111.696C181.97 115.697 186.914 117.882 191.864 118.607C196.813 119.332 201.861 118.757 206.834 118.178C205.99 114.412 205.148 110.638 204.31 106.857L211.43 117.66C210.875 114.208 210.322 110.756 209.773 107.304L216.997 116.987C216.683 113.965 216.359 110.943 216.027 107.921C216.765 111.382 218.254 114.639 220.387 117.463C220.896 114.488 221.403 111.506 221.908 108.519L222.53 118.225C223.707 114.663 224.886 111.098 226.067 107.53C225.872 110.8 225.68 114.07 225.492 117.34C227.931 117.044 231.958 114.337 233.248 115.787C233.177 115.382 233.107 114.977 233.041 114.568C229.721 103.562 221.922 90.2346 211.539 78.9413C204.88 72.8686 197.882 67.196 189.957 62.9781C178.56 56.9148 164.786 54.1327 152.618 58.4354C145.342 61.0057 139.069 65.9203 131.775 68.4341C127.439 69.9024 122.855 70.4966 118.288 70.1823C113.721 69.868 109.261 68.6514 105.168 66.6029C80.6283 55.4885 78.4244 30.8259 40.8969 43.5926C40.3507 43.8703 39.8091 44.1575 39.277 44.4494C30.4458 49.3031 22.64 55.8224 16.2915 63.6466C4.75398 80.184 -1.64108 103.726 0.365027 125.884C0.421537 126.176 0.482756 126.468 0.548684 126.751C4.76811 125.955 12.0297 127.928 16.2679 128.93Z" fill="#F5F5F5"/>
<path d="M234.453 120.523C232.842 120.692 12.8154 143.293 3.70316 133.506C2.21035 131.91 1.20729 129.561 0.571549 126.751H0.472656C2.02198 142.106 7.63061 156.737 18.4005 167.833C22.2553 170.222 26.3225 172.25 30.5502 173.892C80.0248 189.393 245.708 188.127 234.453 120.523Z" fill="#E0E0E0"/>
<path d="M234.435 120.424C234.209 119.096 233.922 117.75 233.564 116.375C233.506 116.164 233.402 115.968 233.258 115.801C233.529 117.37 233.923 118.916 234.435 120.424Z" fill="#E0E0E0"/>
<path d="M37.3842 114.855L37.7938 112.605C37.5115 113.321 37.3724 114.085 37.3842 114.855Z" fill="#E0E0E0"/>
<path d="M225.502 117.34C225.69 114.073 225.882 110.803 226.076 107.53C224.899 111.105 223.717 114.67 222.53 118.225L221.866 108.542C221.358 111.524 220.851 114.505 220.345 117.486C218.212 114.662 216.723 111.405 215.985 107.944C216.299 110.966 216.622 113.989 216.955 117.011L209.731 107.328C210.28 110.78 210.833 114.232 211.389 117.684L204.268 106.88C205.11 110.646 205.951 114.42 206.792 118.202C201.819 118.781 196.776 119.355 191.822 118.63C186.868 117.905 181.933 115.721 178.923 111.72L180.336 119.205L174.026 111.451L174.238 117.665L168.822 111.776C169.19 114.092 169.558 116.408 169.929 118.724C167.612 116.013 165.298 113.3 162.988 110.585C162.259 113.901 162.486 117.355 163.642 120.546L106.774 119.845C90.3814 119.642 73.8663 119.449 57.7421 122.42C53.2448 123.248 48.5592 124.303 44.1891 122.98C40.5818 121.883 37.4314 118.418 37.389 114.855C37.1112 116.371 36.838 117.882 36.5602 119.393L32.8399 114.04C31.5198 115.681 30.8211 117.735 30.8668 119.84L27.3255 116.7C26.6976 118.655 26.0697 120.611 25.4418 122.566L17.5257 118.122L21.6415 124.43L14.5778 120.913C15.5196 122.985 16.4614 125.056 17.4033 127.127L12.4822 124.359L16.2495 128.93C12.0112 127.928 4.77324 125.955 0.563232 126.751C1.19897 129.575 2.20203 131.929 3.69484 133.506C12.8212 143.293 232.848 120.692 234.445 120.523C234.442 120.485 234.442 120.447 234.445 120.41C233.932 118.902 233.539 117.356 233.267 115.787C231.949 114.337 227.941 117.044 225.502 117.34Z" fill="#E0E0E0"/>
<path d="M207.678 50.4373C207.678 50.4373 204.278 49.0251 201.994 56.9525C199.71 64.8799 199.122 69.3097 199.122 69.3097C199.122 69.3097 198.443 71.0138 197.238 70.2229C196.032 69.4321 194.04 66.9277 192.373 67.7562C190.706 68.5847 190.438 70.7926 191.366 73.7253C192.293 76.6581 194.097 83.1403 194.257 83.7523C194.417 84.3643 194.257 85.2634 193.315 84.8586C192.373 84.4537 186.689 80.1511 184.801 82.9756C182.913 85.8001 186.849 93.5533 187.264 94.4054C187.678 95.2575 187.575 95.6811 187.193 95.9871C186.812 96.2931 185.027 94.6596 183.355 93.5015C181.683 92.3435 179.541 91.2843 178.585 93.0073C177.629 94.7302 178.429 100.963 186.223 109.827L190.108 113.701L195.448 112.355C206.699 108.787 210.598 103.858 210.673 101.89C210.749 99.9226 208.366 99.7202 206.336 99.852C204.306 99.9838 201.938 100.464 201.763 100.003C201.589 99.5413 201.721 99.1317 202.517 98.5904C203.313 98.049 210.687 93.4639 210.522 90.0698C210.358 86.6757 203.252 87.4289 202.253 87.2971C201.255 87.1653 201.589 86.2802 202.022 85.8848C202.456 85.4894 207.367 80.8242 209.68 78.7906C211.992 76.757 212.924 74.7986 211.898 73.1416C210.871 71.4846 207.918 72.7085 206.458 72.7462C204.999 72.7838 205.291 70.9809 205.291 70.9809C205.291 70.9809 207.075 66.8806 209.213 58.9155C211.351 50.9504 207.612 50.4043 207.612 50.4043" fill="#EBEBEB"/>
<path d="M205.624 57.5363C205.617 57.5935 205.606 57.6501 205.591 57.7057C205.563 57.8281 205.52 57.9929 205.473 58.1765C205.355 58.6472 205.195 59.2545 205.002 60.0595C204.578 61.7024 203.947 64.0703 203.156 66.9936C201.569 72.8403 199.309 80.8949 196.775 89.7827C194.242 98.6704 191.972 106.73 190.319 112.558C189.504 115.462 188.85 117.821 188.388 119.468C188.162 120.268 187.983 120.88 187.856 121.351C187.799 121.558 187.752 121.718 187.715 121.822C187.677 121.925 187.658 121.987 187.658 121.987C187.661 121.936 187.669 121.885 187.682 121.836C187.715 121.714 187.752 121.549 187.804 121.365C187.917 120.913 188.074 120.286 188.275 119.482C188.699 117.844 189.33 115.476 190.121 112.553C191.708 106.701 193.973 98.6469 196.507 89.7544L202.963 66.9842C203.773 64.0797 204.428 61.7212 204.889 60.0736C205.115 59.2733 205.294 58.6613 205.421 58.1906C205.482 57.9882 205.53 57.8234 205.562 57.7198C205.575 57.6563 205.596 57.5946 205.624 57.5363Z" fill="#E0E0E0"/>
<path d="M194.957 71.4047C195.242 71.8073 195.488 72.236 195.691 72.6851C196.111 73.4948 196.633 74.6293 197.222 75.8956L198.663 79.1438C198.883 79.5852 199.071 80.0414 199.228 80.509C198.938 80.1083 198.691 79.6774 198.493 79.2238C198.084 78.4094 197.552 77.2702 196.982 76.0039C196.412 74.7376 195.932 73.6501 195.522 72.7651C195.295 72.3286 195.106 71.8734 194.957 71.4047Z" fill="#E0E0E0"/>
<path d="M199.738 80.5089C199.705 80.443 201.994 79.2096 204.848 77.7597C207.702 76.3098 210.028 75.18 210.08 75.2459C210.132 75.3118 207.824 76.5405 204.97 77.9951C202.117 79.4497 199.771 80.5701 199.738 80.5089Z" fill="#E0E0E0"/>
<path d="M195.216 93.9818C195.697 93.8337 196.188 93.7235 196.686 93.6522C197.599 93.4686 198.852 93.2144 200.232 92.8943C201.611 92.5742 202.85 92.2494 203.745 92.0093C204.224 91.8566 204.713 91.7386 205.209 91.6562C204.758 91.8811 204.284 92.0593 203.796 92.1882C202.911 92.4707 201.673 92.8284 200.288 93.1297C198.904 93.431 197.637 93.6758 196.714 93.8123C196.222 93.9189 195.72 93.9757 195.216 93.9818Z" fill="#E0E0E0"/>
<path d="M189.095 86.6993C189.453 86.9977 189.783 87.3287 190.079 87.6879C190.659 88.3234 191.445 89.2131 192.302 90.2017C193.159 91.1903 193.922 92.0847 194.468 92.7626C194.782 93.1078 195.062 93.4813 195.307 93.8783C194.949 93.5793 194.621 93.2467 194.327 92.885C193.748 92.2542 192.957 91.3645 192.1 90.3759C191.243 89.3873 190.48 88.4929 189.938 87.8103C189.624 87.4664 189.342 87.0945 189.095 86.6993Z" fill="#E0E0E0"/>
<path d="M183.599 98.0914C184.048 98.4851 184.466 98.9115 184.852 99.3672C185.596 100.177 186.613 101.307 187.724 102.564C188.836 103.82 189.829 104.974 190.55 105.816C190.956 106.258 191.328 106.73 191.661 107.229C191.214 106.836 190.796 106.409 190.413 105.953C189.665 105.143 188.647 104.013 187.541 102.752C186.434 101.49 185.436 100.346 184.715 99.5037C184.311 99.0597 183.938 98.5877 183.599 98.0914Z" fill="#E0E0E0"/>
<path d="M191.515 106.942C192.121 106.745 192.739 106.588 193.366 106.471C194.51 106.198 196.092 105.826 197.83 105.369C199.568 104.913 201.126 104.47 202.266 104.141L203.608 103.759C203.771 103.701 203.94 103.665 204.112 103.651C203.965 103.741 203.807 103.811 203.641 103.858C203.335 103.976 202.883 104.136 202.322 104.329C201.202 104.701 199.643 105.181 197.901 105.633C196.158 106.085 194.562 106.438 193.403 106.664C192.824 106.772 192.353 106.857 192.028 106.904C191.86 106.941 191.687 106.953 191.515 106.942Z" fill="#E0E0E0"/>
<path d="M162.14 103.058C170.616 97.145 172.5 86.1765 172.184 76.319C172.128 74.6714 172.312 72.939 171.53 71.4938C170.748 70.0486 168.916 69.0648 167.442 69.7568C166.223 70.3311 165.686 71.7527 165.003 72.9296C164.089 74.4974 162.75 75.7751 161.141 76.6156C160.096 77.1617 158.787 77.4912 157.76 76.9216C156.348 76.1401 156.173 74.1771 156.183 72.5389C156.208 69.4884 156.228 66.438 156.244 63.3875C156.244 61.754 156.244 60.0923 155.749 58.5294C155.255 56.9665 154.115 55.5307 152.557 55.0929C150.998 54.6551 149.072 55.5636 148.742 57.1595C148.682 57.8372 148.666 58.5181 148.695 59.1978C148.653 59.8757 148.332 60.6101 147.687 60.8172C147.042 61.0243 146.378 60.5442 145.888 60.064C144.203 58.4117 143.063 56.298 141.98 54.1655C140.897 52.033 139.87 49.8817 138.335 48.0787C136.8 46.2757 134.681 44.8494 132.335 44.7175C129.99 44.5857 127.494 46.0309 126.901 48.3329C126.308 50.6349 127.654 52.9792 129.119 54.8481C131.293 57.6185 133.856 60.0603 136.729 62.0977C137.288 62.4072 137.734 62.8872 138.001 63.4675C138.358 64.5597 137.322 65.6424 136.244 66.0002C135.024 66.4097 133.701 66.2826 132.425 66.4333C131.149 66.5839 129.764 67.1441 129.279 68.3492C128.61 70.0251 130.009 71.7763 131.389 72.9249C134.146 75.2271 137.279 77.0363 140.652 78.2726C141.857 78.7151 143.124 79.1012 144.099 79.9438C145.074 80.7864 145.653 82.2646 145.069 83.4179C144.485 84.5713 142.973 84.9385 141.711 84.7031C140.449 84.4677 139.324 83.7616 138.118 83.3332C135.867 82.4859 132.962 82.6412 131.525 84.5854C130.584 85.8611 130.494 87.6406 130.974 89.1658C131.524 90.6655 132.368 92.0403 133.456 93.2095C137.063 97.4463 141.678 100.845 146.901 102.653C152.123 104.46 156.955 104.95 162.145 103.058" fill="#EBEBEB"/>
<path d="M129.287 46.0875C129.335 46.1445 129.389 46.1965 129.447 46.2429L129.918 46.676C130.347 47.0526 130.982 47.6175 131.774 48.3565C134.024 50.4456 136.114 52.7006 138.027 55.1024C139.247 56.6182 140.514 58.3365 141.842 60.2053C143.17 62.0742 144.564 64.089 145.958 66.2545C147.434 68.5107 148.786 70.846 150.007 73.2498C150.639 74.502 151.199 75.8107 151.773 77.1429C152.348 78.4752 152.922 79.8356 153.511 81.2055C155.749 86.3427 157.697 91.6014 159.346 96.9568C160.672 101.339 161.587 105.835 162.077 110.387C162.394 113.459 162.444 116.552 162.228 119.633C162.143 120.72 162.058 121.568 161.983 122.137C161.95 122.41 161.926 122.608 161.908 122.787C161.903 122.862 161.903 122.938 161.908 123.013C161.908 123.013 160.843 132.899 161.955 122.792C161.983 122.632 162.016 122.42 162.063 122.147C162.157 121.577 162.261 120.734 162.364 119.642C162.624 116.554 162.605 113.449 162.308 110.364C161.836 105.795 160.926 101.281 159.591 96.8862C157.956 91.5117 156.014 86.2353 153.775 81.0831C153.188 79.7117 152.607 78.359 152.032 77.0252C151.458 75.693 150.893 74.3702 150.252 73.1133C149.026 70.7025 147.667 68.3609 146.184 66.0991C144.771 63.9337 143.358 61.9236 142.04 60.0594C140.721 58.1952 139.421 56.4817 138.187 54.9659C136.256 52.5677 134.137 50.3277 131.849 48.2671C131.039 47.5374 130.394 46.9914 129.965 46.6289L129.457 46.2193C129.406 46.1681 129.349 46.1238 129.287 46.0875Z" fill="#E0E0E0"/>
<path d="M150.164 73.1039C150.241 72.8761 150.294 72.6411 150.324 72.4025C150.409 71.9318 150.512 71.2962 150.63 70.4771C150.86 68.8483 151.101 66.5887 151.359 64.0938C151.618 61.5988 151.891 59.3439 152.15 57.7245C152.273 56.9148 152.381 56.2558 152.461 55.8038C152.518 55.5709 152.549 55.3326 152.555 55.093C152.461 55.3139 152.392 55.5444 152.348 55.7803C152.23 56.2275 152.094 56.8772 151.938 57.6633C151.628 59.2827 151.322 61.5376 151.063 64.0373C150.804 66.537 150.592 68.7448 150.418 70.4301C150.333 71.1958 150.263 71.8407 150.206 72.3649C150.165 72.6089 150.151 72.8568 150.164 73.1039Z" fill="#E0E0E0"/>
<path d="M129.113 69.1685C129.389 69.2307 129.669 69.2654 129.952 69.2721C130.493 69.3191 131.275 69.3851 132.235 69.498C134.166 69.7052 136.818 70.0865 139.728 70.6325C142.638 71.1786 145.247 71.8 147.126 72.2943C148.068 72.5391 148.821 72.765 149.344 72.9016C149.61 72.9944 149.884 73.0621 150.163 73.104C149.913 72.9713 149.649 72.8656 149.377 72.7886C148.864 72.605 148.115 72.3602 147.182 72.0872C145.299 71.5364 142.699 70.8867 139.784 70.3313C137.292 69.8553 134.777 69.505 132.25 69.2815C131.28 69.1967 130.493 69.1638 129.947 69.1544C129.669 69.1354 129.39 69.1401 129.113 69.1685Z" fill="#E0E0E0"/>
<path d="M159.333 96.4862C159.395 96.4096 159.444 96.3238 159.479 96.232L159.842 95.4694C160.148 94.8057 160.572 93.8359 161.08 92.6449C162.093 90.2347 163.393 86.8594 164.777 83.1169C166.162 79.3744 167.433 75.9803 168.375 73.5513C168.846 72.3697 169.232 71.3999 169.524 70.675C169.646 70.3643 169.75 70.1054 169.83 69.8935C169.875 69.8047 169.905 69.7094 169.919 69.6111C169.861 69.6908 169.814 69.7779 169.778 69.87L169.416 70.6279C169.105 71.2917 168.681 72.2614 168.177 73.4524C167.16 75.8627 165.86 79.2379 164.48 82.9804C163.101 86.7229 161.834 90.1076 160.868 92.5366L159.719 95.4082C159.597 95.7236 159.493 95.9825 159.409 96.1944C159.372 96.2883 159.347 96.3863 159.333 96.4862Z" fill="#E0E0E0"/>
<path d="M131.36 87.4713C131.448 87.5202 131.541 87.5581 131.638 87.5843L132.453 87.8573L135.448 88.8271C137.977 89.6462 141.457 90.8184 145.3 92.1223C149.142 93.4263 152.641 94.5655 155.189 95.3328C156.46 95.7189 157.492 96.0154 158.212 96.2084L159.041 96.4297C159.135 96.4617 159.233 96.4791 159.333 96.4815C159.246 96.4314 159.152 96.3934 159.055 96.3685L158.245 96.0955L155.25 95.1257C152.721 94.3066 149.241 93.1344 145.394 91.8305C141.546 90.5265 138.057 89.3873 135.504 88.6199C134.233 88.2386 133.197 87.9374 132.481 87.7443L131.652 87.5278C131.558 87.4965 131.46 87.4775 131.36 87.4713Z" fill="#E0E0E0"/>
<path d="M148.827 22.2865H218.377C218.377 22.2865 212.227 11.0968 194.323 12.7256C177.228 14.2791 176.357 7.22251 167.664 6.35162C158.971 5.48073 151.724 12.1513 148.827 22.2865Z" fill="#F5F5F5"/>
<path d="M29.2317 9.22787H69.3209C69.3209 9.22787 65.7749 2.77859 55.4571 3.71538C45.6008 4.61451 45.0969 0.542522 40.0863 0.0435266C35.0758 -0.455469 30.8987 3.38115 29.2317 9.22787Z" fill="#F5F5F5"/>
<path d="M116.74 28.5368C120.003 25.2755 120.003 19.9879 116.74 16.7266C113.478 13.4653 108.188 13.4653 104.926 16.7266C101.664 19.9879 101.664 25.2755 104.926 28.5368C108.189 31.7982 113.478 31.7982 116.74 28.5368Z" fill="#EBEBEB"/>
<path d="M110.743 43.296C110.625 43.296 110.526 40.4715 110.526 37.0115C110.526 33.5515 110.625 30.7223 110.743 30.7223C110.86 30.7223 110.964 33.5468 110.964 37.0115C110.964 40.4762 110.865 43.296 110.743 43.296Z" fill="#EBEBEB"/>
<path d="M131.309 22.1594C131.309 22.2818 128.38 22.3807 124.763 22.3807C121.147 22.3807 118.218 22.2818 118.218 22.1594C118.218 22.037 121.151 21.9429 124.763 21.9429C128.375 21.9429 131.309 22.037 131.309 22.1594Z" fill="#EBEBEB"/>
<path d="M110.833 3.81885C110.956 3.81885 111.054 6.39856 111.054 9.58083C111.054 12.7631 110.956 15.3381 110.833 15.3381C110.711 15.3381 110.617 12.7584 110.617 9.58083C110.617 6.40327 110.716 3.81885 110.833 3.81885Z" fill="#EBEBEB"/>
<path d="M105.046 22.9455C105.046 23.0632 101.933 23.162 98.0953 23.162C94.2573 23.162 91.1445 23.0632 91.1445 22.9455C91.1445 22.8278 94.2573 22.7242 98.0953 22.7242C101.933 22.7242 105.046 22.8231 105.046 22.9455Z" fill="#EBEBEB"/>
<path d="M105.911 18.6947C105.826 18.7794 104.079 17.1695 102.012 15.1029C99.9446 13.0363 98.3293 11.2851 98.4141 11.2003C98.4988 11.1156 100.246 12.7256 102.318 14.7922C104.39 16.8588 105.996 18.61 105.911 18.6947Z" fill="#EBEBEB"/>
<path d="M122.37 11.3227C122.455 11.4074 121.221 12.8009 119.61 14.4344C118 16.0679 116.625 17.3248 116.54 17.2589C116.455 17.193 117.689 15.7807 119.3 14.1472C120.91 12.5137 122.28 11.238 122.37 11.3227Z" fill="#EBEBEB"/>
<path d="M123.167 34.5732C123.082 34.6579 121.382 33.0997 119.376 31.0943C117.37 29.0889 115.806 27.3895 115.896 27.3283C115.985 27.2671 117.676 28.8018 119.663 30.8072C121.65 32.8125 123.228 34.4884 123.167 34.5732Z" fill="#EBEBEB"/>
<path d="M108.464 26.4996C108.549 26.5843 106.468 28.8109 103.816 31.4707C101.165 34.1304 98.9423 36.2159 98.8529 36.1311C98.7634 36.0464 100.85 33.8197 103.506 31.16C106.162 28.5003 108.38 26.4148 108.464 26.4996Z" fill="#EBEBEB"/>
<path d="M56.0336 145.303L48.7156 121.634C48.7156 121.634 71.5975 112.327 71.3196 112.722C71.0418 113.118 70.7875 121.37 65.1977 127.485C59.6079 133.6 59.8763 138.92 62.2686 140.384C62.2686 140.384 65.7534 139.141 68.0185 139.936C70.2836 140.732 74.9127 145.303 74.9127 145.303H56.0336Z" fill="#FF725E"/>
<path opacity="0.3" d="M56.0336 145.303L48.7156 121.634C48.7156 121.634 71.5975 112.327 71.3196 112.722C71.0418 113.118 70.7875 121.37 65.1977 127.485C59.6079 133.6 59.8763 138.92 62.2686 140.384C62.2686 140.384 65.7534 139.141 68.0185 139.936C70.2836 140.732 74.9127 145.303 74.9127 145.303H56.0336Z" fill="black"/>
<path d="M169.586 131.072L168.442 120.367L164.726 116.649L146.309 111.55C145.511 111.328 144.664 111.363 143.888 111.649L136.057 114.525L132.209 113.866C132.209 113.866 127.623 112.694 125.395 111.442C124.526 110.963 123.594 110.608 122.626 110.388C102.094 105.473 86.9305 93.1392 86.9305 93.1392C84.8349 91.0444 77.6299 79.398 73.5894 77.7128C69.5489 76.0275 61.0159 76.7713 61.0159 76.7713L59.1746 77.3644L60.0222 76.9595C58.616 73.8989 56.3233 71.3304 53.4409 69.5863C50.5585 67.8423 47.2189 67.003 43.8541 67.1769C40.4893 67.3508 37.2542 68.53 34.5671 70.5618C31.8799 72.5937 29.8645 75.3849 28.7815 78.5742C27.7502 81.6153 27.5995 84.8964 27.0015 88.0504C26.1194 90.6073 24.2863 92.7263 21.8826 93.9678C18.9064 95.5354 15.3792 95.8131 12.0498 95.3518C13.1013 96.4866 14.3681 97.4011 15.7764 98.042C17.1847 98.6829 18.7065 99.0374 20.2532 99.0848C17.1499 101.481 13.3307 103.162 9.55396 104.296C11.6328 105.716 14.0839 106.492 16.6014 106.528C19.1188 106.564 21.5911 105.858 23.7097 104.498L19.8906 107.827C23.8651 108.434 27.6984 105.671 29.7799 102.234C31.8613 98.7977 32.6431 94.7633 33.7638 90.9079C34.8846 87.0524 36.5375 83.0981 39.768 80.7161C42.5465 78.6684 46.7612 78.3153 49.4172 80.2878C46.7471 80.9233 41.2514 82.8863 39.0993 88.5824C37.5359 92.7391 38.5295 96.0814 34.9506 108.038C32.5065 116.211 19.4338 122.199 19.4338 122.199C19.4338 122.199 22.9798 124.774 24.8258 130.131C27.6513 138.345 29.4455 150.816 31.2868 152.774C31.2868 152.774 47.0626 155.179 49.921 153.654C49.921 153.654 43.1163 147.2 37.5359 147.2L35.6805 141.838C35.4591 140.172 34.0558 130.936 35.4356 130.733C35.9819 130.653 39.6739 130.809 42.4711 130.131C47.0626 129.029 56.6928 122.429 57.7571 121.13C57.7571 121.13 67.8301 122.105 73.1985 133.017C76.6739 140.078 92.3131 151.291 104.844 150.463L106.257 150.364C106.452 150.351 106.647 150.38 106.829 150.45C107.012 150.519 107.177 150.627 107.314 150.765C107.452 150.904 107.557 151.071 107.624 151.254C107.691 151.438 107.718 151.633 107.703 151.828L107.425 155.438C114.545 155.034 118.727 161.304 118.727 161.304C133.721 161.732 140.577 162.923 155.571 163.352C155.571 163.352 155.571 161.582 153.189 159.539C149.139 156.06 138.482 156.328 138.482 156.328C136.721 156.196 134.861 156.027 133.434 154.991C131.687 153.725 130.236 151.357 129.544 149.281L164.156 149.436L164.251 149.634L177.036 148.97C183.761 144.597 184.1 134.551 184.1 134.551L169.586 131.072Z" fill="#FF725E"/>
<g opacity="0.3">
<path d="M136.057 114.525C132.76 119.501 130.434 125.946 130.58 131.901C130.726 137.856 131.993 143.458 133.24 149.286H130.886C129.294 143.265 127.66 137.352 127.665 131.83C127.695 125.494 129.569 119.303 133.057 114.012" fill="black"/>
</g>
<path d="M45.3919 154.826C45.3542 154.855 45.0104 154.403 44.337 153.796C42.565 152.207 40.2748 151.319 37.8949 151.296C36.9907 151.296 36.4303 151.395 36.4209 151.348C36.5425 151.29 36.6731 151.253 36.8071 151.239C37.165 151.164 37.5291 151.121 37.8949 151.112C38.4363 151.088 38.9789 151.116 39.5148 151.197C40.1722 151.304 40.8173 151.476 41.4409 151.71C42.06 151.963 42.6516 152.279 43.2068 152.652C43.6593 152.951 44.0805 153.294 44.4642 153.678C44.7272 153.93 44.9667 154.206 45.18 154.502C45.3307 154.695 45.406 154.817 45.3919 154.826Z" fill="#263238"/>
<path d="M18.3884 121.723C18.3884 121.634 20.3098 122.048 22.6785 121.85C24.1024 121.689 25.5116 121.416 26.8932 121.036C26.5238 121.245 26.1278 121.404 25.7159 121.507C23.7464 122.114 21.6664 122.275 19.6269 121.978C19.2044 121.95 18.7877 121.864 18.3884 121.723Z" fill="#263238"/>
<path d="M18.4116 122.806C19.832 123.172 21.2915 123.365 22.7582 123.38C25.2023 123.347 27.0624 122.556 27.0859 122.646C26.71 122.87 26.3041 123.04 25.8804 123.15C23.8488 123.769 21.6848 123.809 19.6313 123.267C19.2037 123.176 18.7924 123.021 18.4116 122.806Z" fill="#263238"/>
<path d="M19.8535 123.78C19.8535 123.705 21.2945 124.077 23.0699 124.388C24.8452 124.698 26.3004 124.835 26.2957 124.91C25.1978 124.968 24.0973 124.879 23.0228 124.647C21.9326 124.5 20.8668 124.208 19.8535 123.78Z" fill="#263238"/>
<path d="M63.4658 105.967C63.5166 106.221 63.5434 106.48 63.5459 106.739C63.5694 107.043 63.5772 107.348 63.5694 107.652C63.5694 108.006 63.5694 108.415 63.5176 108.858C63.4873 109.345 63.4307 109.831 63.3481 110.312C63.2822 110.835 63.1456 111.385 63.0137 111.96C62.6929 113.206 62.2562 114.42 61.7093 115.585C61.1447 116.741 60.4764 117.844 59.7126 118.88C59.3453 119.351 59.0062 119.793 58.6389 120.174C58.3173 120.542 57.9761 120.893 57.617 121.224C57.3285 121.505 57.0251 121.771 56.7081 122.02C56.4796 122.22 56.239 122.405 55.9876 122.575C55.7841 122.737 55.5666 122.88 55.3378 123.004C55.3048 122.957 56.2231 122.335 57.4852 121.092C57.8007 120.777 58.1444 120.433 58.4741 120.033C58.8037 119.633 59.1616 119.2 59.5195 118.734C60.262 117.704 60.9158 116.612 61.4738 115.472C62.0112 114.321 62.4477 113.125 62.7783 111.899C62.9148 111.329 63.0561 110.792 63.1315 110.275C63.2068 109.757 63.2869 109.281 63.334 108.862C63.5082 107.078 63.4093 105.972 63.4658 105.967Z" fill="#263238"/>
<g opacity="0.3">
<path d="M80.7853 85.5884C77.5454 88.6718 75.8548 93.996 76.7872 98.374C77.2783 100.564 78.3118 102.596 79.7929 104.283C81.2739 105.97 83.1551 107.258 85.2637 108.029C88.4895 109.178 92.3275 109.145 94.8281 111.456C96.2785 112.788 97.0414 114.69 98.1716 116.3C99.6635 118.353 101.734 119.914 104.118 120.784C106.502 121.655 109.091 121.795 111.555 121.187C116.443 119.887 120.281 114.94 120.743 109.889C117.874 109.166 115.049 108.283 112.28 107.243C108.661 105.825 105.118 104.219 101.666 102.432C99.1746 101.1 90.2743 95.6295 88.7532 94.5138C86.4363 92.8144 80.7853 85.5884 80.7853 85.5884Z" fill="black"/>
</g>
<path d="M41.5432 93.7041C41.5857 93.3241 41.6808 92.9518 41.8258 92.5979C42.1289 91.7317 42.5169 90.8975 42.9842 90.1076C43.4547 89.3169 44.0037 88.5756 44.623 87.8951C44.8613 87.5964 45.144 87.3361 45.4613 87.123C44.6585 88.1235 43.9087 89.1653 43.215 90.2441C42.1224 92.0612 41.6233 93.7324 41.5432 93.7041Z" fill="#263238"/>
<path d="M43.2712 94.928C43.2911 94.545 43.3689 94.1673 43.502 93.8076C44.0438 92.0331 44.9956 90.4108 46.2804 89.0719C46.5294 88.7797 46.8216 88.5273 47.1469 88.3234C47.2081 88.3846 45.9131 89.5661 44.8394 91.4068C43.7657 93.2474 43.356 94.9515 43.2712 94.928Z" fill="#263238"/>
<path d="M107.247 156.201C107.2 156.201 107.417 155.528 107.52 154.426C107.661 152.995 107.494 151.55 107.03 150.188C106.566 148.827 105.817 147.58 104.831 146.532C104.073 145.727 103.503 145.331 103.532 145.294C103.682 145.358 103.823 145.442 103.951 145.543C104.311 145.803 104.649 146.091 104.963 146.405C106.014 147.439 106.809 148.705 107.285 150.101C107.761 151.497 107.904 152.984 107.704 154.445C107.648 154.885 107.555 155.32 107.426 155.744C107.389 155.905 107.329 156.059 107.247 156.201Z" fill="#263238"/>
<path d="M108.726 154.421C108.778 153.789 108.867 153.16 108.994 152.538C109.033 151.907 109.105 151.279 109.21 150.655C109.437 151.929 109.273 153.242 108.74 154.421H108.726Z" fill="#263238"/>
<path d="M109.708 154.243C109.642 154.196 110.113 153.551 110.362 152.628C110.612 151.705 110.56 150.914 110.64 150.905C110.843 151.486 110.843 152.118 110.64 152.699C110.512 153.303 110.184 153.847 109.708 154.243Z" fill="#263238"/>
<path d="M148.395 163.126C148.353 163.126 148.259 162.754 147.924 162.241C147.468 161.578 146.848 161.043 146.125 160.687C145.392 160.339 144.614 160.092 143.813 159.953C143.474 159.911 143.139 159.835 142.815 159.727C143.159 159.685 143.507 159.698 143.846 159.765C144.677 159.853 145.488 160.08 146.243 160.438C147.009 160.81 147.649 161.397 148.085 162.128C148.282 162.424 148.39 162.77 148.395 163.126Z" fill="#263238"/>
<path d="M155.002 163.356C154.96 163.385 154.649 162.806 153.98 162.001C153.589 161.53 153.157 161.096 152.69 160.701C151.546 159.728 150.209 159.006 148.767 158.583C148.181 158.407 147.581 158.283 146.973 158.211C145.932 158.093 145.278 158.15 145.278 158.098C145.43 158.049 145.589 158.026 145.749 158.027C145.928 158.004 146.109 157.996 146.29 158.004C146.529 157.996 146.768 158.004 147.006 158.027C147.631 158.071 148.249 158.178 148.852 158.348C149.589 158.559 150.303 158.846 150.98 159.204C151.651 159.577 152.283 160.017 152.864 160.518C153.332 160.931 153.76 161.388 154.14 161.883C154.289 162.071 154.427 162.268 154.555 162.471C154.656 162.622 154.747 162.779 154.828 162.942C154.906 163.071 154.965 163.21 155.002 163.356Z" fill="#263238"/>
<path d="M124.109 131.647C124.198 131.974 124.268 132.305 124.321 132.64C124.449 133.28 124.646 134.203 124.929 135.337C125.671 138.286 126.624 141.177 127.778 143.99C128.456 145.642 128.998 147.257 129.567 148.697C130.047 149.973 130.636 151.205 131.329 152.379C131.796 153.169 132.368 153.892 133.029 154.53C133.5 154.977 133.801 155.184 133.782 155.208C133.704 155.169 133.629 155.121 133.561 155.067C133.347 154.927 133.145 154.769 132.958 154.596C132.262 153.978 131.659 153.263 131.168 152.473C130.447 151.3 129.835 150.063 129.341 148.777C128.757 147.342 128.211 145.732 127.533 144.07C126.372 141.246 125.439 138.334 124.745 135.361C124.486 134.222 124.317 133.29 124.222 132.64C124.166 132.315 124.142 132.061 124.124 131.892C124.108 131.811 124.103 131.729 124.109 131.647Z" fill="#263238"/>
<g opacity="0.4">
<path d="M60.6769 79.8076C60.6392 79.6476 61.5434 79.238 63.121 78.9933C64.0435 78.8557 64.9769 78.8053 65.9088 78.8426C67.0546 78.8905 68.1932 79.0482 69.3088 79.3134C70.4195 79.5977 71.501 79.9854 72.5393 80.4714C73.383 80.8647 74.1873 81.3376 74.941 81.8837C76.2219 82.8252 76.8247 83.616 76.7211 83.7431C76.6175 83.8702 75.7793 83.3759 74.4466 82.6745C73.6666 82.2644 72.8666 81.8936 72.0496 81.5635C71.0515 81.1733 70.0309 80.8431 68.9933 80.575C67.9491 80.3283 66.8907 80.1459 65.8241 80.0289C64.8398 79.9348 63.9404 79.8924 63.1869 79.8971C61.68 79.9395 60.7193 80.0007 60.6769 79.8076Z" fill="white"/>
</g>
<g opacity="0.4">
<path d="M29.1358 85.3622C29.051 85.3622 28.9191 84.9574 28.8344 84.19C28.7374 83.0893 28.7929 81.9804 28.9992 80.8948C29.2964 79.2773 29.8665 77.7221 30.6851 76.2955C31.6757 74.5211 33.0359 72.9799 34.6738 71.7763C36.3117 70.5727 38.189 69.7347 40.1788 69.319C41.7848 68.965 43.4394 68.887 45.0716 69.0884C46.1629 69.211 47.2314 69.4867 48.2456 69.9075C48.9567 70.2182 49.3099 70.4676 49.2769 70.543C49.2016 70.7548 47.624 70.1193 44.9963 70.0157C43.4698 69.9525 41.9422 70.1111 40.4613 70.4865C38.6556 70.9284 36.9549 71.7222 35.4567 72.8225C33.9585 73.9227 32.6922 75.3077 31.7305 76.8981C30.9225 78.1964 30.3101 79.6065 29.9128 81.0831C29.2252 83.6581 29.3571 85.3528 29.1358 85.3622Z" fill="white"/>
</g>
<path d="M151.371 128.86C151.36 128.912 151.343 128.962 151.32 129.01C151.277 129.119 151.221 129.26 151.145 129.439L150.448 131.072C149.822 132.485 148.923 134.528 147.566 136.938C146.028 139.8 143.984 142.359 141.534 144.493C140.834 145.138 140.015 145.64 139.123 145.972C138.65 146.141 138.144 146.204 137.644 146.155C137.12 146.091 136.636 145.842 136.278 145.454C135.938 145.047 135.704 144.562 135.6 144.041C135.5 143.55 135.437 143.051 135.412 142.549C135.343 141.529 135.269 140.494 135.191 139.442C134.894 135.243 134.611 131.246 134.357 127.608C134.235 125.795 134.239 123.992 134.87 122.429C135.469 121.02 136.447 119.804 137.696 118.918C138.705 118.188 139.815 117.61 140.992 117.204C141.88 116.895 142.786 116.641 143.705 116.441C144.458 116.272 145.047 116.159 145.447 116.088L145.918 116.008H146.074C146.025 116.028 145.974 116.044 145.923 116.055L145.452 116.159L143.724 116.559C142.814 116.775 141.918 117.042 141.039 117.359C139.877 117.775 138.781 118.357 137.785 119.087C136.572 119.959 135.625 121.15 135.049 122.528C134.442 124.02 134.442 125.781 134.578 127.589C134.842 131.228 135.129 135.224 135.435 139.419C135.511 140.468 135.581 141.504 135.657 142.526C135.732 143.547 135.831 144.583 136.467 145.294C136.782 145.636 137.207 145.857 137.668 145.92C138.132 145.961 138.599 145.901 139.038 145.746C139.908 145.433 140.708 144.954 141.393 144.333C143.83 142.224 145.871 139.698 147.42 136.872C148.795 134.485 149.718 132.452 150.373 131.058L151.117 129.444C151.197 129.274 151.263 129.133 151.315 129.029C151.328 128.971 151.347 128.914 151.371 128.86Z" fill="#263238"/>
<path d="M164.995 134.457C164.637 134.391 164.5 133.516 164.693 132.494C164.886 131.472 165.324 130.705 165.682 130.771C166.04 130.837 166.181 131.713 165.988 132.734C165.795 133.756 165.357 134.546 164.995 134.457Z" fill="#263238"/>
<path d="M166.672 124.934C166.507 125.033 166.201 124.825 165.768 124.722C165.193 124.581 164.592 124.604 164.03 124.788C163.406 125.044 162.809 125.36 162.245 125.729C161.751 126.007 161.383 126.148 161.256 126.012C161.129 125.875 161.256 125.517 161.623 125.028C162.126 124.355 162.815 123.846 163.606 123.564C164.038 123.407 164.502 123.358 164.958 123.421C165.413 123.484 165.846 123.658 166.22 123.926C166.448 124.094 166.62 124.327 166.714 124.595C166.775 124.764 166.742 124.887 166.672 124.934Z" fill="#263238"/>
<path d="M166.454 119.713C166.454 119.713 166.604 119.713 166.68 119.934C166.726 120.06 166.726 120.199 166.68 120.325C166.645 120.412 166.59 120.489 166.518 120.55C166.447 120.611 166.362 120.653 166.27 120.673C165.789 120.731 165.302 120.623 164.89 120.367C164.336 120.09 163.843 119.704 163.44 119.233L162.781 118.461L163.586 119.082C163.799 119.2 163.985 119.359 164.134 119.551C164.283 119.743 164.391 119.963 164.452 120.198C164.479 120.339 164.467 120.485 164.419 120.62C164.371 120.756 164.289 120.877 164.179 120.97C164.057 121.048 163.92 121.1 163.776 121.122C163.632 121.144 163.486 121.135 163.346 121.097C162.222 120.856 161.239 120.179 160.614 119.214C160.495 119.034 160.39 118.845 160.299 118.649L159.899 117.835L160.506 118.508C160.968 119.022 161.322 119.624 161.547 120.278C161.613 120.443 161.65 120.618 161.655 120.796C161.651 120.896 161.618 120.993 161.562 121.077C161.505 121.16 161.427 121.226 161.335 121.267C161.168 121.311 160.993 121.318 160.823 121.285C160.654 121.253 160.494 121.182 160.355 121.078C159.453 120.499 158.692 119.726 158.128 118.814C157.751 118.207 157.468 117.547 157.29 116.856C157.243 116.669 157.207 116.481 157.181 116.291C157.169 116.224 157.169 116.155 157.181 116.088C157.41 117.018 157.787 117.905 158.297 118.715C158.865 119.587 159.616 120.326 160.497 120.88C160.604 120.959 160.726 121.013 160.856 121.041C160.986 121.069 161.12 121.068 161.25 121.041C161.471 120.951 161.443 120.645 161.321 120.349C161.104 119.727 160.764 119.156 160.322 118.668L160.539 118.527C160.625 118.711 160.724 118.889 160.836 119.059C161.424 119.961 162.342 120.6 163.393 120.838C163.499 120.87 163.61 120.879 163.719 120.865C163.829 120.851 163.934 120.815 164.029 120.758C164.105 120.692 164.164 120.606 164.198 120.511C164.231 120.415 164.24 120.312 164.222 120.212C164.105 119.8 163.831 119.45 163.459 119.238L163.605 119.082C163.983 119.541 164.447 119.922 164.97 120.203C165.344 120.451 165.789 120.57 166.237 120.542C166.304 120.529 166.367 120.503 166.423 120.465C166.48 120.427 166.528 120.379 166.565 120.322C166.602 120.266 166.628 120.202 166.64 120.136C166.653 120.069 166.652 120 166.637 119.934C166.576 119.76 166.44 119.727 166.454 119.713Z" fill="#263238"/>
<g opacity="0.3">
<path d="M137.903 146.282C140.163 146.433 142.513 146.569 144.608 145.717C147.434 144.569 149.318 141.763 150.128 138.821C150.938 135.879 150.905 133.228 150.792 130.182C147.91 137.423 144.797 143.067 137.903 146.282Z" fill="black"/>
</g>
<path d="M182.503 141.867C182.482 141.946 182.454 142.024 182.418 142.097C182.352 142.243 182.253 142.455 182.121 142.728C181.762 143.514 181.286 144.241 180.708 144.884C180.327 145.28 179.866 145.656 179.395 146.075C178.911 146.574 178.329 146.967 177.685 147.229C177.305 147.358 176.889 147.333 176.527 147.158C176.163 146.965 175.869 146.664 175.684 146.296C175.375 145.524 175.299 144.678 175.462 143.863C175.623 142.315 175.939 140.786 176.404 139.301C176.761 138.075 177.295 136.907 177.991 135.836C178.467 135.107 179.114 134.504 179.875 134.08C180.081 133.968 180.299 133.879 180.525 133.817C180.601 133.789 180.68 133.77 180.76 133.76C180.76 133.789 180.44 133.869 179.927 134.17C179.209 134.617 178.603 135.222 178.156 135.94C177.494 137.008 176.987 138.166 176.649 139.376C176.189 140.847 175.874 142.359 175.707 143.891C175.55 144.656 175.615 145.45 175.896 146.179C176.054 146.499 176.307 146.762 176.621 146.932C176.771 147.006 176.935 147.051 177.102 147.062C177.269 147.073 177.437 147.051 177.596 146.998C178.209 146.748 178.766 146.379 179.235 145.91C179.705 145.496 180.176 145.129 180.558 144.752C181.13 144.131 181.615 143.434 181.999 142.681C182.148 142.399 182.316 142.126 182.503 141.867Z" fill="#263238"/>
<path d="M181.419 137.842C181.777 137.889 182.055 138.049 182.036 138.204C182.017 138.36 181.707 138.435 181.344 138.388C180.982 138.341 180.709 138.181 180.727 138.026C180.746 137.87 181.057 137.809 181.419 137.842Z" fill="#263238"/>
<path d="M179.206 139.018C179.559 138.929 179.875 138.976 179.917 139.127C179.959 139.277 179.7 139.475 179.352 139.569C179.004 139.663 178.679 139.616 178.641 139.461C178.604 139.306 178.848 139.113 179.206 139.018Z" fill="#263238"/>
<path d="M181.306 139.574C181.645 139.437 181.956 139.409 181.994 139.508C182.031 139.607 181.791 139.805 181.452 139.936C181.113 140.068 180.807 140.101 180.77 140.002C180.732 139.903 180.972 139.725 181.306 139.574Z" fill="#263238"/>
<path d="M179.405 142.239C179.319 142.27 179.226 142.276 179.137 142.258C179.047 142.24 178.964 142.197 178.897 142.135C178.83 142.073 178.781 141.994 178.756 141.906C178.731 141.818 178.731 141.725 178.755 141.637C178.779 141.548 178.827 141.469 178.894 141.406C178.96 141.343 179.043 141.3 179.132 141.281C179.222 141.262 179.315 141.268 179.401 141.298C179.487 141.328 179.564 141.382 179.622 141.452C179.692 141.587 179.708 141.742 179.668 141.888C179.628 142.034 179.534 142.159 179.405 142.239Z" fill="#263238"/>
<g opacity="0.3">
<path d="M184.222 134.344C183.025 134 181.424 133.676 180.887 133.567C180.351 133.459 179.946 133.953 179.55 134.193C178.472 134.852 177.77 135.973 177.195 137.107C176.009 139.541 175.698 142.286 175.613 144.974C175.585 145.811 175.938 146.706 176.753 146.918C176.958 146.985 177.175 147.008 177.389 146.984C177.604 146.961 177.811 146.891 177.996 146.781C180.046 145.629 181.657 143.832 182.578 141.669C183.555 139.345 184.104 136.863 184.198 134.344" fill="black"/>
</g>
<path d="M183.021 134.076C182.932 133.977 182.767 134.047 182.663 134.132C182.195 134.588 181.853 135.157 181.67 135.784C181.581 135.979 181.526 136.188 181.505 136.401C181.498 136.508 181.517 136.615 181.56 136.712C181.604 136.81 181.671 136.895 181.755 136.961C181.864 137.024 181.989 137.056 182.115 137.056C182.241 137.056 182.365 137.024 182.475 136.961C182.696 136.848 182.889 136.679 183.115 136.571C183.195 136.533 183.308 136.509 183.36 136.571C183.412 136.632 183.36 136.735 183.318 136.806C183.132 137.118 183.022 137.47 182.997 137.832C182.974 138.004 183 138.179 183.073 138.336C183.11 138.414 183.17 138.48 183.244 138.524C183.319 138.569 183.405 138.59 183.492 138.585C183.492 138.585 184.767 134.994 183.939 134.443C183.11 133.892 183.021 134.076 183.021 134.076Z" fill="#263238"/>
<g opacity="0.3">
<path d="M156.674 115.514C157.667 117.874 159.079 120.035 160.841 121.893C161.444 120.598 160.733 119.096 160.031 117.844C160.887 119.067 161.997 120.09 163.286 120.843C163.485 120.988 163.732 121.055 163.978 121.031C164.066 120.996 164.147 120.944 164.215 120.877C164.283 120.811 164.337 120.731 164.374 120.644C164.411 120.556 164.431 120.462 164.432 120.367C164.432 120.272 164.414 120.178 164.378 120.09C164.214 119.739 163.963 119.435 163.648 119.209C163.332 118.977 163.104 118.645 162.998 118.268C163.703 119.018 164.527 119.647 165.438 120.127C165.748 120.334 166.127 120.41 166.492 120.339C166.73 120.226 166.915 120.027 167.01 119.782C167.104 119.536 167.101 119.264 167.001 119.021C166.779 118.541 166.416 118.141 165.96 117.872C163.399 116.056 160.341 115.07 157.201 115.048" fill="black"/>
</g>
<g opacity="0.4">
<path d="M136.467 138.755C136.293 138.755 135.996 137.442 135.714 135.253C135.325 132.372 135.342 129.452 135.765 126.577C135.902 125.75 136.09 124.932 136.331 124.129C136.546 123.371 136.825 122.632 137.164 121.921C137.73 120.652 138.642 119.569 139.797 118.795C140.583 118.28 141.508 118.015 142.448 118.037C143.107 118.075 143.432 118.268 143.413 118.343C143.394 118.419 143.051 118.433 142.471 118.55C141.683 118.713 140.944 119.06 140.315 119.563C139.398 120.327 138.69 121.312 138.257 122.425C137.976 123.095 137.743 123.784 137.56 124.487C137.349 125.247 137.18 126.019 137.056 126.798C136.524 130.004 136.623 133.012 136.632 135.191C136.641 137.371 136.655 138.736 136.467 138.755Z" fill="white"/>
</g>
<path d="M8.26489 92.7156C8.31605 92.3548 8.43425 92.0068 8.61337 91.6894C9.39854 90.092 10.7373 88.834 12.3807 88.1493C12.7085 87.99 13.063 87.8927 13.4262 87.8622C13.4638 87.9422 11.8203 88.3753 10.3652 89.7452C8.91005 91.1151 8.34495 92.7533 8.26489 92.7156Z" fill="#263238"/>
<path d="M6.38018 87.2408C6.35193 87.2408 6.43198 86.9724 6.66744 86.6241C6.98963 86.1717 7.40791 85.7962 7.89232 85.5243C8.37673 85.2525 8.91529 85.0911 9.4694 85.0518C9.69729 85.0133 9.93132 85.036 10.1475 85.1177C9.40726 85.1995 8.68695 85.4098 8.01898 85.7391C6.93116 86.3463 6.45082 87.2878 6.38018 87.2408Z" fill="#263238"/>
<path d="M211.585 152.402C212.099 152.642 212.647 152.801 213.209 152.873C213.491 152.906 213.777 152.875 214.045 152.782C214.314 152.689 214.558 152.536 214.759 152.336C214.98 152.091 215.107 151.766 215.333 151.522C215.599 151.289 215.924 151.134 216.272 151.075C216.621 151.016 216.979 151.055 217.306 151.187C217.78 151.345 218.209 151.614 218.557 151.972C218.906 152.33 219.163 152.767 219.308 153.245C219.44 153.727 219.443 154.235 219.318 154.719C219.192 155.203 218.942 155.646 218.592 156.003C218.231 156.349 217.779 156.586 217.289 156.685C216.798 156.784 216.29 156.742 215.823 156.563C215.823 156.563 219.119 157.759 218.215 160.183C217.311 162.608 214.212 162.914 213.115 160.838C213.115 160.838 212.644 159.317 212.173 159.138C211.702 158.959 210.078 158.253 210.078 158.253L207.28 157.119C206.766 156.881 206.218 156.723 205.656 156.648C205.374 156.615 205.088 156.646 204.82 156.739C204.551 156.832 204.308 156.984 204.106 157.185C203.885 157.434 203.758 157.754 203.532 157.999C203.268 158.235 202.943 158.392 202.594 158.452C202.245 158.512 201.886 158.473 201.559 158.338C201.084 158.18 200.655 157.91 200.306 157.551C199.958 157.193 199.701 156.755 199.557 156.276C199.425 155.795 199.422 155.287 199.547 154.804C199.673 154.32 199.923 153.879 200.273 153.522C200.633 153.175 201.084 152.938 201.574 152.839C202.063 152.74 202.571 152.783 203.037 152.962C203.037 152.962 199.741 151.762 200.645 149.337C201.549 146.913 204.653 146.612 205.75 148.683C205.75 148.683 206.221 150.208 206.692 150.387C207.163 150.566 208.783 151.272 208.783 151.272L211.585 152.402Z" fill="#263238"/>
<path d="M210.903 151.724C211.418 151.963 211.968 152.122 212.532 152.195C212.814 152.228 213.1 152.197 213.368 152.104C213.636 152.011 213.88 151.859 214.081 151.658C214.303 151.409 214.43 151.089 214.656 150.844C214.921 150.611 215.247 150.456 215.595 150.397C215.943 150.338 216.301 150.377 216.629 150.51C217.103 150.667 217.532 150.936 217.879 151.294C218.227 151.652 218.483 152.089 218.626 152.567C218.762 153.048 218.768 153.557 218.643 154.042C218.519 154.527 218.267 154.97 217.915 155.325C217.553 155.671 217.101 155.907 216.611 156.006C216.121 156.105 215.613 156.063 215.146 155.886C215.146 155.886 218.442 157.081 217.538 159.506C216.634 161.93 213.535 162.231 212.438 160.16C212.438 160.16 211.967 158.639 211.496 158.461C211.025 158.282 209.4 157.571 209.4 157.571L206.603 156.441C206.089 156.202 205.541 156.044 204.978 155.97C204.696 155.936 204.409 155.967 204.14 156.06C203.871 156.153 203.626 156.306 203.424 156.507C203.208 156.756 203.081 157.077 202.855 157.321C202.59 157.558 202.264 157.714 201.914 157.773C201.564 157.833 201.204 157.792 200.877 157.656C200.403 157.498 199.974 157.229 199.626 156.871C199.279 156.513 199.023 156.077 198.88 155.598C198.745 155.117 198.74 154.609 198.866 154.125C198.991 153.641 199.243 153.199 199.596 152.844C199.955 152.498 200.406 152.261 200.896 152.161C201.385 152.061 201.893 152.102 202.36 152.28C202.36 152.28 199.064 151.084 199.968 148.659C200.872 146.235 203.971 145.934 205.068 148.005C205.068 148.005 205.539 149.526 206.01 149.705C206.481 149.883 208.101 150.594 208.101 150.594L210.903 151.724Z" fill="#455A64"/>
<path d="M213.418 136.933C213.818 136.907 214.212 136.819 214.586 136.674C214.773 136.601 214.942 136.487 215.079 136.339C215.216 136.192 215.318 136.015 215.377 135.822C215.428 135.591 215.4 135.351 215.461 135.121C215.548 134.886 215.698 134.68 215.895 134.526C216.092 134.372 216.329 134.277 216.578 134.25C216.927 134.189 217.285 134.213 217.623 134.321C217.961 134.428 218.268 134.615 218.518 134.866C218.761 135.123 218.933 135.439 219.016 135.783C219.098 136.126 219.089 136.486 218.989 136.825C218.881 137.162 218.68 137.461 218.408 137.687C218.136 137.913 217.805 138.057 217.453 138.101C217.453 138.101 219.916 137.743 220.161 139.56C220.406 141.377 218.574 142.606 217.194 141.678C217.194 141.678 216.403 140.878 216.05 140.925C215.697 140.972 214.449 141.076 214.449 141.076L212.32 141.306C211.92 141.331 211.527 141.417 211.153 141.561C210.966 141.635 210.797 141.75 210.661 141.897C210.524 142.045 210.421 142.221 210.361 142.413C210.31 142.643 210.361 142.883 210.277 143.114C210.19 143.349 210.04 143.555 209.843 143.71C209.646 143.865 209.409 143.961 209.161 143.99C208.811 144.049 208.453 144.024 208.115 143.917C207.778 143.81 207.471 143.623 207.22 143.373C206.978 143.116 206.807 142.8 206.725 142.456C206.642 142.113 206.651 141.754 206.749 141.415C206.86 141.078 207.063 140.779 207.335 140.553C207.607 140.326 207.938 140.181 208.289 140.134C208.289 140.134 205.826 140.497 205.582 138.675C205.337 136.853 207.164 135.634 208.544 136.556C208.544 136.556 209.339 137.357 209.688 137.31C210.036 137.263 211.294 137.164 211.294 137.164L213.418 136.933Z" fill="#263238"/>
<path d="M212.762 136.735C213.163 136.709 213.558 136.623 213.935 136.481C214.122 136.407 214.29 136.292 214.427 136.144C214.563 135.995 214.663 135.818 214.721 135.624C214.777 135.399 214.749 135.154 214.806 134.928C214.897 134.695 215.051 134.493 215.251 134.343C215.45 134.192 215.687 134.1 215.936 134.076C216.285 134.015 216.644 134.039 216.981 134.147C217.319 134.254 217.626 134.441 217.876 134.692C218.12 134.949 218.291 135.265 218.374 135.608C218.457 135.952 218.447 136.312 218.347 136.651C218.237 136.987 218.034 137.286 217.761 137.512C217.489 137.739 217.158 137.884 216.807 137.931C216.807 137.931 219.275 137.569 219.52 139.39C219.764 141.212 217.933 142.432 216.553 141.509C216.553 141.509 215.762 140.709 215.408 140.756C215.055 140.803 213.803 140.902 213.803 140.902L211.679 141.132C211.278 141.159 210.883 141.245 210.506 141.386C210.319 141.461 210.151 141.577 210.015 141.725C209.879 141.874 209.778 142.051 209.72 142.243C209.668 142.474 209.72 142.714 209.635 142.945C209.547 143.179 209.396 143.385 209.198 143.539C209 143.693 208.763 143.789 208.514 143.816C208.166 143.876 207.808 143.851 207.471 143.744C207.134 143.637 206.828 143.45 206.579 143.199C206.335 142.942 206.164 142.626 206.081 142.283C205.998 141.939 206.008 141.58 206.108 141.241C206.219 140.905 206.422 140.607 206.694 140.381C206.967 140.156 207.297 140.011 207.648 139.965C207.648 139.965 205.185 140.323 204.94 138.505C204.695 136.688 206.522 135.46 207.902 136.387C207.902 136.387 208.693 137.183 209.046 137.14C209.4 137.098 210.652 136.99 210.652 136.99L212.762 136.735Z" fill="#455A64"/>
</svg>
