<svg width="60" height="45" viewBox="0 0 60 45" fill="none" xmlns="http://www.w3.org/2000/svg">
<path d="M4.15352 26.7097L3.19164 25.5423L4.44809 26.2492C4.20762 25.7202 3.96715 25.1912 3.72668 24.6622L5.5302 25.5603L4.47935 23.9492L6.5005 25.0842C6.66081 24.5848 6.82112 24.0854 6.98143 23.5861L7.8856 24.388C7.87461 23.85 8.05387 23.3255 8.39178 22.9067L9.34164 24.2738C9.41257 23.8878 9.48231 23.5019 9.55325 23.1147C9.55022 22.9182 9.58576 22.7229 9.65785 22.54L9.55325 23.1147C9.56407 24.0249 10.3684 24.9098 11.2894 25.19C12.4052 25.5302 13.6015 25.2585 14.7498 25.0469C18.8666 24.2882 23.0832 24.3375 27.2686 24.3892L41.7881 24.5684C41.493 23.7532 41.4351 22.871 41.621 22.0242C42.2109 22.7176 42.8017 23.4105 43.3933 24.1031C43.2979 23.5115 43.2037 22.92 43.1107 22.3284L44.4934 23.8325L44.4393 22.2454L46.054 24.2197L45.6933 22.308C46.4604 23.33 47.7229 23.8878 48.9866 24.073C50.2502 24.2582 51.5391 24.1115 52.8088 23.9636C52.5932 23.0017 52.3784 22.0378 52.1644 21.0719L53.9823 23.8313C53.8404 22.9496 53.6994 22.0679 53.5591 21.1862L55.4035 23.6594C55.3233 22.8875 55.2408 22.1156 55.1558 21.3437C55.3443 22.2277 55.7244 23.0596 56.2692 23.7808C56.399 23.0209 56.5285 22.2595 56.6575 21.4964L56.8162 23.9756C57.1168 23.0658 57.4178 22.1553 57.7192 21.2439C57.6695 22.0791 57.6206 22.9143 57.5725 23.7496C58.1953 23.6738 59.2233 22.9825 59.5528 23.3528C59.5347 23.2494 59.5167 23.146 59.4999 23.0414C58.6522 20.2303 56.6611 16.8265 54.01 13.942C52.3098 12.391 50.5232 10.9422 48.4996 9.86489C45.5899 8.31627 42.0731 7.60568 38.9662 8.70463C37.1086 9.36111 35.5071 10.6164 33.6446 11.2584C32.5376 11.6334 31.3672 11.7852 30.2012 11.7049C29.0351 11.6246 27.8966 11.3139 26.8514 10.7907C20.586 7.95196 20.0233 1.65287 10.4418 4.91363C10.3023 4.98457 10.164 5.05791 10.0282 5.13246C7.77342 6.37214 5.78042 8.03726 4.15953 10.0356C1.21378 14.2595 -0.419001 20.2724 0.0931984 25.9318C0.107627 26.0064 0.123257 26.0809 0.14009 26.1531C1.21739 25.9499 3.07141 26.4536 4.15352 26.7097Z" fill="#F5F5F5"/>
<path d="M59.8603 24.5625C59.4491 24.6058 3.27195 30.3782 0.945415 27.8786C0.564272 27.471 0.308171 26.871 0.145855 26.1532H0.120605C0.516177 30.0753 1.94817 33.8121 4.69793 36.6461C5.68215 37.2562 6.72057 37.7742 7.79999 38.1935C20.4318 42.1528 62.7339 41.8294 59.8603 24.5625Z" fill="#E0E0E0"/>
<path d="M59.8558 24.5373C59.798 24.1982 59.7247 23.8543 59.6333 23.5033C59.6185 23.4492 59.5918 23.3991 59.5552 23.3566C59.6244 23.7574 59.7249 24.1521 59.8558 24.5373Z" fill="#E0E0E0"/>
<path d="M9.5451 23.1149L9.64971 22.5402C9.57761 22.7231 9.54207 22.9183 9.5451 23.1149Z" fill="#E0E0E0"/>
<path d="M57.575 23.7496C57.6231 22.9152 57.672 22.08 57.7217 21.2439C57.4211 22.1569 57.1193 23.0675 56.8163 23.9757L56.6468 21.5024C56.517 22.2639 56.3875 23.0254 56.2585 23.7869C55.7137 23.0656 55.3336 22.2337 55.1451 21.3497C55.2252 22.1216 55.3078 22.8935 55.3928 23.6654L53.5484 21.1922C53.6886 22.0739 53.8297 22.9557 53.9716 23.8374L52.1536 21.078C52.3685 22.0399 52.5833 23.0038 52.7981 23.9696C51.5284 24.1175 50.2407 24.2642 48.9759 24.0791C47.711 23.8939 46.4509 23.336 45.6826 22.314L46.0433 24.2257L44.4322 22.2455L44.4863 23.8326L43.1036 22.3284C43.1974 22.92 43.2916 23.5116 43.3861 24.1031C42.7946 23.4106 42.2038 22.7176 41.6139 22.0242C41.428 22.8711 41.4859 23.7532 41.781 24.5684L27.2615 24.3893C23.0761 24.3376 18.8595 24.2883 14.7427 25.0469C13.5944 25.2586 12.3981 25.5279 11.2823 25.19C10.3613 24.9099 9.55696 24.025 9.54614 23.1148C9.4752 23.5019 9.40546 23.8879 9.33453 24.2738L8.38467 22.9068C8.04762 23.3258 7.86922 23.8504 7.88089 24.3881L6.97673 23.5861C6.81641 24.0855 6.6561 24.5848 6.49579 25.0842L4.47465 23.9492L5.5255 25.5603L3.72198 24.6622C3.96245 25.1912 4.20292 25.7203 4.44339 26.2493L3.18694 25.5423L4.14881 26.7098C3.0667 26.4537 1.2187 25.9499 0.143799 26.1531C0.306115 26.8745 0.562215 27.4757 0.943359 27.8785C3.2735 30.3781 59.4507 24.6057 59.8583 24.5624C59.8577 24.5528 59.8577 24.5432 59.8583 24.5335C59.7274 24.1484 59.6269 23.7536 59.5577 23.3528C59.221 22.9825 58.1978 23.6739 57.575 23.7496Z" fill="#E0E0E0"/>
<path d="M53.0241 6.66173C53.0241 6.66173 52.156 6.30103 51.5728 8.32578C50.9897 10.3505 50.8394 11.4819 50.8394 11.4819C50.8394 11.4819 50.6663 11.9172 50.3585 11.7152C50.0507 11.5132 49.5421 10.8735 49.1164 11.0852C48.6908 11.2968 48.6223 11.8607 48.8591 12.6097C49.096 13.3588 49.5565 15.0144 49.5974 15.1707C49.6383 15.327 49.5974 15.5567 49.3569 15.4533C49.1164 15.3499 47.6652 14.2509 47.1831 14.9723C46.7009 15.6937 47.7061 17.674 47.8119 17.8916C47.9177 18.1093 47.8913 18.2175 47.7939 18.2956C47.6965 18.3738 47.2408 17.9566 46.814 17.6608C46.3871 17.365 45.8401 17.0945 45.596 17.5345C45.3519 17.9746 45.5563 19.5665 47.5462 21.8305L48.5381 22.82L49.9016 22.4762C52.774 21.5648 53.7695 20.3059 53.7888 19.8034C53.808 19.3008 53.1996 19.2491 52.6814 19.2827C52.1632 19.3164 51.5584 19.4391 51.5139 19.3212C51.4694 19.2034 51.5031 19.0988 51.7063 18.9605C51.9095 18.8223 53.7924 17.6512 53.7503 16.7843C53.7082 15.9174 51.8939 16.1098 51.639 16.0761C51.3841 16.0424 51.4694 15.8164 51.5801 15.7154C51.6907 15.6144 52.9447 14.4229 53.5351 13.9035C54.1254 13.384 54.3635 12.8839 54.1014 12.4606C53.8393 12.0374 53.0854 12.35 52.7127 12.3596C52.3399 12.3693 52.4145 11.9088 52.4145 11.9088C52.4145 11.9088 52.8702 10.8615 53.416 8.82716C53.9619 6.79279 53.0072 6.65332 53.0072 6.65332" fill="#EBEBEB"/>
<path d="M52.4998 8.47498C52.498 8.48959 52.4952 8.50405 52.4914 8.51826C52.4842 8.54952 52.4733 8.5916 52.4613 8.63849C52.4313 8.75873 52.3904 8.91383 52.3411 9.11943C52.2329 9.53905 52.0717 10.1438 51.8698 10.8905C51.4646 12.3838 50.8874 14.441 50.2406 16.711C49.5937 18.9811 49.0142 21.0395 48.5922 22.528C48.3842 23.2698 48.217 23.8722 48.0992 24.293C48.0415 24.4974 47.9958 24.6537 47.9633 24.774C47.9489 24.8269 47.9369 24.8677 47.9273 24.8942C47.9177 24.9207 47.9128 24.9363 47.9128 24.9363C47.9136 24.9233 47.9156 24.9104 47.9189 24.8978C47.9273 24.8665 47.9369 24.8245 47.9501 24.7776C47.979 24.6621 48.019 24.5018 48.0703 24.2966C48.1786 23.8782 48.3397 23.2734 48.5417 22.5268C48.9469 21.0323 49.5252 18.9751 50.172 16.7038L51.8205 10.8881C52.0273 10.1462 52.1944 9.54386 52.3122 9.12304C52.3699 8.91864 52.4156 8.76234 52.4481 8.6421C52.4637 8.5904 52.4757 8.54832 52.4842 8.52187C52.4873 8.50563 52.4926 8.48987 52.4998 8.47498Z" fill="#E0E0E0"/>
<path d="M49.7764 12.0171C49.8491 12.1199 49.9119 12.2294 49.9639 12.3441C50.0709 12.5509 50.2044 12.8407 50.3547 13.1641L50.7226 13.9937C50.7787 14.1065 50.8269 14.223 50.8669 14.3424C50.7927 14.2401 50.7299 14.13 50.6793 14.0142C50.5747 13.8062 50.4389 13.5152 50.2934 13.1918C50.1479 12.8684 50.0253 12.5906 49.9207 12.3646C49.8628 12.2531 49.8145 12.1368 49.7764 12.0171Z" fill="#E0E0E0"/>
<path d="M50.9967 14.3424C50.9883 14.3255 51.5726 14.0105 52.3012 13.6402C53.0298 13.2699 53.6238 12.9813 53.637 12.9981C53.6503 13.015 53.0611 13.3288 52.3325 13.7003C51.6039 14.0718 51.0051 14.358 50.9967 14.3424Z" fill="#E0E0E0"/>
<path d="M49.8428 17.7838C49.9654 17.746 50.0909 17.7178 50.2179 17.6996C50.4512 17.6527 50.771 17.5878 51.1233 17.506C51.4756 17.4243 51.7918 17.3413 52.0202 17.28C52.1425 17.241 52.2675 17.2109 52.3941 17.1898C52.2788 17.2473 52.158 17.2928 52.0334 17.3257C51.8074 17.3978 51.4912 17.4892 51.1377 17.5662C50.7842 17.6431 50.4608 17.7056 50.2251 17.7405C50.0994 17.7677 49.9714 17.7822 49.8428 17.7838Z" fill="#E0E0E0"/>
<path d="M48.2795 15.9236C48.3709 15.9998 48.4551 16.0843 48.5308 16.1761C48.6787 16.3384 48.8795 16.5656 49.0983 16.8181C49.3172 17.0706 49.5119 17.2991 49.6514 17.4722C49.7314 17.5604 49.8031 17.6558 49.8654 17.7572C49.7741 17.6808 49.6904 17.5958 49.6153 17.5035C49.4675 17.3424 49.2655 17.1151 49.0466 16.8626C48.8278 16.6101 48.633 16.3817 48.4948 16.2073C48.4145 16.1195 48.3425 16.0245 48.2795 15.9236Z" fill="#E0E0E0"/>
<path d="M46.8767 18.8333C46.9912 18.9338 47.0981 19.0427 47.1965 19.1591C47.3865 19.3659 47.6462 19.6545 47.93 19.9755C48.2137 20.2965 48.4674 20.5911 48.6514 20.8063C48.7551 20.9191 48.85 21.0396 48.9351 21.167C48.8208 21.0666 48.7143 20.9577 48.6165 20.8412C48.4253 20.6344 48.1656 20.3458 47.8831 20.0236C47.6005 19.7013 47.3456 19.4092 47.1617 19.194C47.0583 19.0805 46.9631 18.96 46.8767 18.8333Z" fill="#E0E0E0"/>
<path d="M48.8975 21.0937C49.0522 21.0435 49.21 21.0033 49.37 20.9735C49.6622 20.9038 50.0661 20.8088 50.5098 20.6922C50.9535 20.5755 51.3514 20.4625 51.6424 20.3783L51.9851 20.281C52.0266 20.2661 52.0698 20.2568 52.1137 20.2533C52.0763 20.2763 52.0358 20.2941 51.9935 20.3062C51.9153 20.3363 51.7999 20.3771 51.6568 20.4264C51.3707 20.5214 50.9727 20.6441 50.5278 20.7595C50.083 20.8749 49.6754 20.9651 49.3796 21.0228C49.2317 21.0504 49.1115 21.0721 49.0285 21.0841C48.9855 21.0935 48.9414 21.0967 48.8975 21.0937Z" fill="#E0E0E0"/>
<path d="M41.3971 20.1015C43.5613 18.5914 44.0422 15.7899 43.9617 13.2722C43.9472 12.8514 43.9941 12.4089 43.7945 12.0398C43.5949 11.6707 43.1272 11.4194 42.7509 11.5961C42.4395 11.7428 42.3024 12.1059 42.1281 12.4065C41.8947 12.8069 41.5529 13.1333 41.1422 13.3479C40.8752 13.4874 40.541 13.5716 40.2789 13.4261C39.9182 13.2265 39.8737 12.7251 39.8761 12.3067C39.8825 11.5276 39.8877 10.7485 39.8917 9.96936C39.8917 9.55214 39.8917 9.12772 39.7655 8.72854C39.6392 8.32936 39.3483 7.96264 38.9503 7.85082C38.5523 7.73901 38.0605 7.97106 37.9764 8.37865C37.9609 8.55174 37.9569 8.72566 37.9644 8.89927C37.9535 9.07241 37.8718 9.25997 37.7071 9.31288C37.5423 9.36578 37.3728 9.24314 37.2478 9.1205C36.8173 8.69848 36.5264 8.15862 36.2498 7.61396C35.9733 7.0693 35.7112 6.51983 35.3192 6.05933C34.9272 5.59883 34.3862 5.23452 33.7874 5.20085C33.1886 5.16719 32.5514 5.53631 32.3999 6.12426C32.2484 6.7122 32.5923 7.31097 32.9662 7.7883C33.5213 8.4959 34.1757 9.11955 34.9092 9.63991C35.0519 9.71899 35.1657 9.84157 35.2338 9.9898C35.3252 10.2687 35.0607 10.5453 34.7854 10.6367C34.4739 10.7413 34.1361 10.7088 33.8103 10.7473C33.4844 10.7857 33.1309 10.9288 33.0071 11.2366C32.8364 11.6647 33.1935 12.1119 33.5457 12.4053C34.2496 12.9933 35.0497 13.4554 35.9108 13.7712C36.2186 13.8842 36.542 13.9828 36.7909 14.198C37.0398 14.4132 37.1876 14.7908 37.0386 15.0853C36.8895 15.3799 36.5035 15.4737 36.1813 15.4136C35.8591 15.3535 35.5717 15.1731 35.2639 15.0637C34.6892 14.8473 33.9473 14.8869 33.5806 15.3835C33.3401 15.7094 33.3173 16.1638 33.4399 16.5534C33.5802 16.9364 33.7957 17.2876 34.0736 17.5862C34.9946 18.6683 36.1729 19.5364 37.5063 19.9981C38.8397 20.4598 40.0733 20.5849 41.3983 20.1015" fill="#EBEBEB"/>
<path d="M33.0095 5.55078C33.0218 5.56532 33.0355 5.57861 33.0504 5.59046L33.1706 5.70107C33.28 5.79726 33.4424 5.94154 33.6444 6.13031C34.2189 6.66388 34.7527 7.23982 35.2411 7.85327C35.5525 8.24043 35.8759 8.67928 36.215 9.15661C36.554 9.63395 36.9099 10.1485 37.2658 10.7016C37.6428 11.2779 37.988 11.8743 38.2998 12.4883C38.461 12.8081 38.604 13.1424 38.7507 13.4827C38.8974 13.8229 39.0441 14.1704 39.1944 14.5203C39.7658 15.8324 40.2632 17.1755 40.6841 18.5433C41.0228 19.6626 41.2563 20.811 41.3815 21.9736C41.4623 22.7582 41.4752 23.5482 41.4199 24.335C41.3983 24.6128 41.3766 24.8292 41.3574 24.9747C41.349 25.0444 41.343 25.0949 41.3382 25.1406C41.337 25.1598 41.337 25.1791 41.3382 25.1983C41.3382 25.1983 41.0664 27.7232 41.3502 25.1418C41.3574 25.1009 41.3658 25.0468 41.3778 24.9771C41.4019 24.8316 41.4283 24.6164 41.4548 24.3374C41.521 23.5486 41.5161 22.7555 41.4404 21.9676C41.3199 20.8006 41.0876 19.6479 40.7466 18.5253C40.3292 17.1526 39.8335 15.8049 39.2617 14.489C39.1118 14.1387 38.9635 13.7933 38.8168 13.4526C38.6702 13.1123 38.5259 12.7745 38.3624 12.4534C38.0492 11.8377 37.7024 11.2396 37.3235 10.662C36.9628 10.1089 36.6021 9.59547 36.2655 9.11934C35.9288 8.64321 35.597 8.20556 35.282 7.8184C34.7889 7.2059 34.2478 6.63376 33.6636 6.10747C33.4568 5.9211 33.2921 5.78163 33.1827 5.68905L33.0528 5.58445C33.0399 5.57136 33.0254 5.56004 33.0095 5.55078Z" fill="#E0E0E0"/>
<path d="M38.3398 12.4511C38.3594 12.3929 38.3731 12.3329 38.3807 12.272C38.4023 12.1517 38.4288 11.9894 38.4588 11.7802C38.5177 11.3642 38.5791 10.7871 38.6452 10.1498C38.7113 9.51259 38.7811 8.93667 38.8472 8.52306C38.8784 8.31626 38.9061 8.14793 38.9265 8.03251C38.941 7.97301 38.949 7.91215 38.9506 7.85095C38.9266 7.90737 38.9089 7.96623 38.8977 8.02649C38.8676 8.14072 38.8328 8.30664 38.7931 8.50743C38.7137 8.92104 38.6356 9.49696 38.5694 10.1354C38.5033 10.7739 38.4492 11.3378 38.4047 11.7682C38.3831 11.9638 38.365 12.1285 38.3506 12.2624C38.3401 12.3247 38.3365 12.388 38.3398 12.4511Z" fill="#E0E0E0"/>
<path d="M32.9648 11.4459C33.0351 11.4617 33.1068 11.4706 33.1789 11.4723C33.3171 11.4843 33.5167 11.5012 33.762 11.53C34.255 11.5829 34.9319 11.6803 35.6749 11.8198C36.418 11.9593 37.0841 12.118 37.5638 12.2442C37.8043 12.3067 37.9967 12.3645 38.1301 12.3993C38.1981 12.423 38.2681 12.4403 38.3393 12.451C38.2754 12.4171 38.2081 12.3901 38.1385 12.3705C38.0075 12.3236 37.8163 12.2611 37.5782 12.1913C37.0973 12.0506 36.4336 11.8847 35.6894 11.7428C35.053 11.6213 34.4109 11.5318 33.7656 11.4747C33.5179 11.4531 33.3171 11.4447 33.1777 11.4423C33.1067 11.4374 33.0355 11.4386 32.9648 11.4459Z" fill="#E0E0E0"/>
<path d="M40.6809 18.4233C40.6966 18.4037 40.7092 18.3818 40.7182 18.3583L40.8108 18.1636C40.8889 17.994 40.9971 17.7464 41.127 17.4422C41.3855 16.8266 41.7173 15.9645 42.0708 15.0086C42.4243 14.0527 42.7489 13.1859 42.9894 12.5654C43.1096 12.2637 43.2082 12.016 43.2828 11.8308C43.314 11.7515 43.3405 11.6853 43.3609 11.6312C43.3723 11.6085 43.38 11.5842 43.3838 11.5591C43.3689 11.5795 43.3568 11.6017 43.3477 11.6252L43.2551 11.8188C43.1758 11.9883 43.0676 12.236 42.9389 12.5402C42.6792 13.1558 42.3474 14.0179 41.9951 14.9737C41.6428 15.9296 41.3194 16.7941 41.0729 17.4145L40.7795 18.1479C40.7482 18.2285 40.7218 18.2946 40.7001 18.3487C40.6908 18.3727 40.6843 18.3977 40.6809 18.4233Z" fill="#E0E0E0"/>
<path d="M33.5391 16.1208C33.5614 16.1333 33.5853 16.143 33.61 16.1497L33.818 16.2194L34.5827 16.4671C35.2284 16.6763 36.1169 16.9757 37.098 17.3088C38.0791 17.6418 38.9725 17.9328 39.6229 18.1288C39.9476 18.2274 40.2109 18.3031 40.3948 18.3524L40.6064 18.4089C40.6305 18.4171 40.6556 18.4215 40.681 18.4221C40.6588 18.4093 40.6349 18.3996 40.6101 18.3933L40.4033 18.3235L39.6386 18.0759C38.9929 17.8667 38.1044 17.5673 37.1221 17.2342C36.1397 16.9012 35.2488 16.6102 34.5971 16.4142C34.2725 16.3168 34.008 16.2399 33.8252 16.1906L33.6136 16.1353C33.5895 16.1273 33.5644 16.1224 33.5391 16.1208Z" fill="#E0E0E0"/>
<path d="M14.3064 30.8915L12.438 24.8461C12.438 24.8461 18.2802 22.469 18.2092 22.57C18.1383 22.671 18.0734 24.7787 16.6462 26.3406C15.219 27.9024 15.2875 29.2611 15.8983 29.635C15.8983 29.635 16.7881 29.3176 17.3664 29.5208C17.9447 29.724 19.1266 30.8915 19.1266 30.8915H14.3064Z" fill="#FF725E"/>
<path opacity="0.3" d="M14.3064 30.8915L12.438 24.8461C12.438 24.8461 18.2802 22.469 18.2092 22.57C18.1383 22.671 18.0734 24.7787 16.6462 26.3406C15.219 27.9024 15.2875 29.2611 15.8983 29.635C15.8983 29.635 16.7881 29.3176 17.3664 29.5208C17.9447 29.724 19.1266 30.8915 19.1266 30.8915H14.3064Z" fill="black"/>
<path d="M43.2988 27.2569L43.0066 24.5228L42.0579 23.5729L37.3556 22.2708C37.152 22.2141 36.9358 22.2229 36.7376 22.2961L34.7381 23.0307L33.7557 22.8624C33.7557 22.8624 32.5847 22.563 32.0159 22.2432C31.794 22.1207 31.5561 22.0301 31.309 21.9738C26.0667 20.7186 22.1952 17.5684 22.1952 17.5684C21.6601 17.0334 19.8206 14.0588 18.7889 13.6283C17.7573 13.1979 15.5787 13.3879 15.5787 13.3879L15.1086 13.5394L15.325 13.436C14.9659 12.6542 14.3806 11.9982 13.6447 11.5528C12.9087 11.1073 12.0561 10.893 11.197 10.9374C10.3379 10.9818 9.51186 11.283 8.82578 11.8019C8.13971 12.3209 7.62514 13.0338 7.34863 13.8484C7.08532 14.6251 7.04684 15.4631 6.89414 16.2687C6.66894 16.9217 6.2009 17.463 5.58719 17.78C4.82731 18.1804 3.92675 18.2514 3.07669 18.1335C3.34516 18.4234 3.66859 18.657 4.02817 18.8206C4.38774 18.9843 4.77629 19.0749 5.17118 19.087C4.37884 19.699 3.40373 20.1282 2.43945 20.418C2.97023 20.7806 3.59604 20.9789 4.23879 20.9881C4.88154 20.9973 5.51277 20.817 6.0537 20.4697L5.0786 21.3197C6.09338 21.4749 7.07209 20.7691 7.60353 19.8914C8.13496 19.0136 8.33455 17.9832 8.62071 16.9985C8.90687 16.0138 9.32889 15.0038 10.1537 14.3954C10.8631 13.8724 11.9392 13.7822 12.6173 14.286C11.9356 14.4483 10.5324 14.9497 9.98297 16.4046C9.58379 17.4662 9.83748 18.3199 8.9237 21.3739C8.29968 23.4611 4.96197 24.9905 4.96197 24.9905C4.96197 24.9905 5.86734 25.6482 6.33866 27.0165C7.06006 29.1146 7.51816 32.2996 7.98828 32.7997C7.98828 32.7997 12.0161 33.4141 12.746 33.0246C12.746 33.0246 11.0086 31.3762 9.58379 31.3762L9.11006 30.0067C9.05355 29.5811 8.69525 27.2221 9.04754 27.1704C9.18701 27.1499 10.1297 27.1896 10.8438 27.0165C12.0161 26.7351 14.4749 25.0494 14.7467 24.7176C14.7467 24.7176 17.3185 24.9665 18.6891 27.7535C19.5765 29.557 23.5695 32.421 26.7689 32.2094L27.1296 32.1841C27.1793 32.1809 27.2292 32.1884 27.2758 32.2061C27.3224 32.2238 27.3646 32.2513 27.3996 32.2868C27.4346 32.3222 27.4616 32.3648 27.4787 32.4116C27.4958 32.4584 27.5026 32.5084 27.4987 32.5581L27.4278 33.4803C29.2457 33.3769 30.3134 34.9784 30.3134 34.9784C34.1417 35.0878 35.8923 35.392 39.7206 35.5014C39.7206 35.5014 39.7206 35.0493 39.1122 34.5275C38.0782 33.639 35.3573 33.7075 35.3573 33.7075C34.9076 33.6738 34.4327 33.6306 34.0683 33.366C33.6223 33.0426 33.252 32.4378 33.0752 31.9076L41.9124 31.9473L41.9365 31.9978L45.2009 31.8282C46.9178 30.7113 47.0044 28.1455 47.0044 28.1455L43.2988 27.2569Z" fill="#FF725E"/>
<g opacity="0.3">
<path d="M34.738 23.0307C33.8964 24.3016 33.3024 25.9476 33.3397 27.4686C33.377 28.9895 33.7004 30.4203 34.019 31.9088H33.4179C33.0115 30.371 32.5943 28.8609 32.5955 27.4505C32.6033 25.8322 33.0816 24.251 33.9721 22.8997" fill="black"/>
</g>
<path d="M11.5898 33.3239C11.5802 33.3311 11.4924 33.2157 11.3205 33.0606C10.868 32.6549 10.2833 32.4279 9.67565 32.4221C9.4448 32.4221 9.30172 32.4474 9.29932 32.4354C9.33037 32.4206 9.36371 32.4113 9.39791 32.4077C9.48929 32.3884 9.58227 32.3775 9.67565 32.3752C9.8139 32.369 9.95242 32.3762 10.0893 32.3969C10.2571 32.4243 10.4218 32.4682 10.581 32.5279C10.7391 32.5926 10.8901 32.6732 11.0319 32.7684C11.1474 32.8448 11.255 32.9326 11.3529 33.0305C11.4201 33.095 11.4812 33.1654 11.5357 33.2409C11.5742 33.2902 11.5934 33.3215 11.5898 33.3239Z" fill="#263238"/>
<path d="M4.69507 24.8689C4.69507 24.8461 5.18563 24.9519 5.7904 24.9014C6.15396 24.86 6.51374 24.7905 6.8665 24.6934C6.77219 24.7468 6.67107 24.7872 6.56592 24.8136C6.06307 24.9687 5.53199 25.0097 5.01129 24.9338C4.90341 24.9267 4.79701 24.9049 4.69507 24.8689Z" fill="#263238"/>
<path d="M4.70068 25.1456C5.06334 25.239 5.43597 25.2883 5.81045 25.2923C6.43446 25.2839 6.90939 25.0819 6.9154 25.1047C6.81941 25.1619 6.71577 25.2053 6.6076 25.2334C6.0889 25.3915 5.53638 25.4019 5.01209 25.2634C4.90292 25.2401 4.79791 25.2004 4.70068 25.1456Z" fill="#263238"/>
<path d="M5.06909 25.3944C5.06909 25.3751 5.43701 25.4701 5.89029 25.5495C6.34358 25.6288 6.7151 25.6637 6.7139 25.6829C6.4336 25.6976 6.1526 25.675 5.87827 25.6156C5.59992 25.5781 5.3278 25.5037 5.06909 25.3944Z" fill="#263238"/>
<path d="M16.2041 20.8446C16.2171 20.9095 16.2239 20.9756 16.2246 21.0418C16.2306 21.1194 16.2326 21.1972 16.2306 21.275C16.2306 21.3652 16.2306 21.4698 16.2174 21.5828C16.2096 21.7074 16.1952 21.8314 16.1741 21.9544C16.1572 22.0878 16.1224 22.2285 16.0887 22.3752C16.0068 22.6935 15.8953 23.0035 15.7557 23.301C15.6115 23.5964 15.4409 23.8781 15.2459 24.1426C15.1521 24.2629 15.0655 24.3759 14.9717 24.4733C14.8896 24.5672 14.8025 24.6568 14.7108 24.7414C14.6371 24.8132 14.5597 24.8811 14.4788 24.9446C14.4204 24.9956 14.359 25.043 14.2948 25.0865C14.2428 25.1278 14.1873 25.1644 14.1289 25.1959C14.1205 25.1839 14.3549 25.0252 14.6772 24.7077C14.7577 24.6272 14.8455 24.5394 14.9296 24.4372C15.0138 24.335 15.1052 24.2244 15.1966 24.1054C15.3861 23.8422 15.5531 23.5635 15.6955 23.2721C15.8327 22.9782 15.9442 22.6728 16.0286 22.3596C16.0635 22.2141 16.0995 22.077 16.1188 21.9447C16.138 21.8125 16.1584 21.6911 16.1705 21.584C16.2149 21.1284 16.1897 20.8458 16.2041 20.8446Z" fill="#263238"/>
<g opacity="0.3">
<path d="M20.6259 15.6396C19.7987 16.4272 19.3671 17.787 19.6051 18.9052C19.7305 19.4646 19.9944 19.9835 20.3725 20.4144C20.7507 20.8453 21.231 21.1743 21.7694 21.3712C22.593 21.6646 23.5729 21.6562 24.2113 22.2465C24.5816 22.5868 24.7764 23.0725 25.065 23.4837C25.4459 24.008 25.9745 24.4067 26.5831 24.629C27.1918 24.8513 27.8529 24.8871 28.4821 24.7318C29.7301 24.3999 30.71 23.1363 30.8278 21.8462C30.0955 21.6617 29.3742 21.4361 28.6672 21.1704C27.7431 20.8082 26.8385 20.398 25.9571 19.9416C25.3211 19.6014 23.0487 18.2043 22.6603 17.9193C22.0687 17.4852 20.6259 15.6396 20.6259 15.6396Z" fill="black"/>
</g>
<path d="M10.6069 17.7126C10.6178 17.6156 10.6421 17.5205 10.6791 17.4301C10.7565 17.2088 10.8555 16.9958 10.9749 16.794C11.095 16.5921 11.2352 16.4027 11.3933 16.2289C11.4541 16.1526 11.5263 16.0861 11.6073 16.0317C11.4023 16.2873 11.2109 16.5533 11.0338 16.8289C10.7548 17.293 10.6274 17.7198 10.6069 17.7126Z" fill="#263238"/>
<path d="M11.0481 18.025C11.0532 17.9272 11.073 17.8307 11.107 17.7389C11.2453 17.2856 11.4884 16.8713 11.8164 16.5293C11.88 16.4547 11.9546 16.3902 12.0376 16.3381C12.0533 16.3538 11.7226 16.6556 11.4485 17.1257C11.1743 17.5958 11.0697 18.031 11.0481 18.025Z" fill="#263238"/>
<path d="M27.3825 33.675C27.3705 33.675 27.4258 33.5031 27.4522 33.2217C27.4882 32.8561 27.4455 32.487 27.3271 32.1393C27.2087 31.7915 27.0173 31.4731 26.7657 31.2054C26.5721 30.9998 26.4266 30.8988 26.4339 30.8892C26.4722 30.9055 26.5082 30.9269 26.5409 30.9529C26.6328 31.0191 26.7193 31.0927 26.7994 31.1729C27.0677 31.4372 27.2708 31.7604 27.3922 32.1169C27.5137 32.4734 27.5503 32.8534 27.4991 33.2265C27.4849 33.3389 27.4612 33.45 27.4282 33.5584C27.4188 33.5993 27.4034 33.6386 27.3825 33.675Z" fill="#263238"/>
<path d="M27.76 33.2204C27.7733 33.0589 27.7962 32.8983 27.8285 32.7395C27.8385 32.5783 27.8569 32.4178 27.8839 32.2585C27.9417 32.584 27.8998 32.9193 27.7636 33.2204H27.76Z" fill="#263238"/>
<path d="M28.0109 33.1746C27.994 33.1626 28.1143 32.9979 28.178 32.7622C28.2417 32.5265 28.2285 32.3245 28.2489 32.3221C28.3007 32.4705 28.3007 32.6319 28.2489 32.7802C28.2162 32.9347 28.1323 33.0737 28.0109 33.1746Z" fill="#263238"/>
<path d="M37.8884 35.4437C37.8776 35.4437 37.8535 35.3487 37.7682 35.2176C37.6515 35.0483 37.4934 34.9117 37.3089 34.8209C37.1215 34.7319 36.9229 34.6688 36.7185 34.6333C36.6319 34.6225 36.5465 34.6032 36.4636 34.5756C36.5514 34.5649 36.6402 34.5682 36.7269 34.5852C36.9391 34.6078 37.146 34.6659 37.3389 34.7571C37.5344 34.8521 37.6978 35.0021 37.809 35.1888C37.8594 35.2644 37.8869 35.3529 37.8884 35.4437Z" fill="#263238"/>
<path d="M39.5749 35.5026C39.5641 35.5098 39.4847 35.3619 39.314 35.1563C39.2141 35.0362 39.1039 34.9252 38.9845 34.8245C38.6924 34.5757 38.3511 34.3914 37.983 34.2834C37.8333 34.2385 37.68 34.2067 37.5249 34.1884C37.2592 34.1584 37.092 34.1728 37.092 34.1596C37.1309 34.1472 37.1715 34.1411 37.2123 34.1415C37.2581 34.1355 37.3044 34.1335 37.3505 34.1355C37.4115 34.1335 37.4726 34.1355 37.5333 34.1415C37.6928 34.1526 37.8507 34.18 38.0046 34.2233C38.1929 34.2772 38.375 34.3505 38.5481 34.4421C38.7194 34.5372 38.8806 34.6496 39.029 34.7776C39.1485 34.8831 39.2576 34.9999 39.3549 35.1262C39.3928 35.1744 39.4282 35.2246 39.4607 35.2765C39.4865 35.315 39.5098 35.3552 39.5304 35.3968C39.5504 35.4296 39.5654 35.4653 39.5749 35.5026Z" fill="#263238"/>
<path d="M31.6874 27.4036C31.7099 27.4871 31.728 27.5718 31.7415 27.6573C31.774 27.8208 31.8245 28.0564 31.8966 28.3462C32.0862 29.0992 32.3293 29.8377 32.624 30.5561C32.7972 30.9781 32.9354 31.3905 33.0809 31.7585C33.2033 32.0843 33.3537 32.3989 33.5306 32.6987C33.6499 32.9005 33.7959 33.0854 33.9646 33.2482C34.0849 33.3624 34.1618 33.4153 34.157 33.4213C34.137 33.4113 34.1181 33.3992 34.1005 33.3852C34.046 33.3495 33.9945 33.3093 33.9466 33.265C33.7689 33.1072 33.615 32.9246 33.4897 32.7227C33.3054 32.4232 33.1493 32.1072 33.0232 31.7789C32.8741 31.4122 32.7346 31.001 32.5615 30.5766C32.265 29.8554 32.027 29.1115 31.8497 28.3522C31.7836 28.0612 31.7403 27.8232 31.7163 27.6573C31.7018 27.5743 31.6958 27.5094 31.691 27.4661C31.6871 27.4455 31.6859 27.4245 31.6874 27.4036Z" fill="#263238"/>
<g opacity="0.4">
<path d="M15.4917 14.1632C15.4821 14.1223 15.713 14.0177 16.1158 13.9552C16.3513 13.9201 16.5896 13.9072 16.8275 13.9167C17.1201 13.929 17.4108 13.9692 17.6956 14.037C17.9792 14.1096 18.2553 14.2086 18.5205 14.3328C18.7359 14.4332 18.9412 14.554 19.1336 14.6935C19.4607 14.9339 19.6146 15.1359 19.5881 15.1684C19.5617 15.2008 19.3477 15.0746 19.0074 14.8955C18.8083 14.7907 18.604 14.696 18.3954 14.6117C18.1406 14.512 17.88 14.4277 17.6151 14.3592C17.3485 14.2962 17.0782 14.2496 16.8059 14.2197C16.5546 14.1957 16.325 14.1849 16.1326 14.1861C15.7478 14.1969 15.5026 14.2125 15.4917 14.1632Z" fill="#EEEEEE"/>
</g>
<g opacity="0.4">
<path d="M7.43911 15.582C7.41747 15.582 7.3838 15.4786 7.36216 15.2827C7.33741 15.0015 7.35157 14.7183 7.40424 14.441C7.48013 14.0279 7.62568 13.6307 7.83468 13.2663C8.0876 12.8131 8.4349 12.4195 8.85308 12.1121C9.27126 11.8047 9.75057 11.5906 10.2586 11.4845C10.6687 11.394 11.0911 11.3741 11.5078 11.4255C11.7865 11.4569 12.0593 11.5273 12.3182 11.6347C12.4998 11.7141 12.59 11.7778 12.5815 11.7971C12.5623 11.8512 12.1595 11.6889 11.4886 11.6624C11.0989 11.6463 10.7089 11.6868 10.3307 11.7826C9.86972 11.8955 9.43549 12.0983 9.05297 12.3793C8.67045 12.6603 8.34715 13.014 8.1016 13.4202C7.89531 13.7518 7.73893 14.112 7.6375 14.4891C7.46196 15.1468 7.49562 15.5796 7.43911 15.582Z" fill="#EEEEEE"/>
</g>
<path d="M38.6478 26.6916C38.6449 26.7049 38.6405 26.7178 38.6346 26.7301C38.6238 26.7577 38.6094 26.7938 38.5901 26.8395L38.4122 27.2567C38.2523 27.6174 38.0226 28.1392 37.6763 28.7548C37.2836 29.4857 36.7618 30.1395 36.1361 30.6846C35.9573 30.8491 35.7483 30.9773 35.5205 31.0621C35.3997 31.1055 35.2708 31.1215 35.143 31.109C35.0092 31.0925 34.8856 31.029 34.7943 30.9299C34.7073 30.826 34.6477 30.702 34.6212 30.5691C34.5955 30.4435 34.5794 30.3161 34.5731 30.188C34.5555 29.9275 34.5366 29.663 34.5166 29.3945C34.4408 28.322 34.3687 27.3012 34.3038 26.3718C34.2725 25.9089 34.2737 25.4484 34.4348 25.0492C34.5877 24.6893 34.8375 24.3788 35.1562 24.1522C35.4138 23.9658 35.6974 23.8184 35.9979 23.7146C36.2246 23.6358 36.4559 23.5707 36.6904 23.5198C36.8828 23.4765 37.0331 23.4477 37.1353 23.4296L37.2555 23.4092H37.2952C37.2828 23.4143 37.2699 23.4183 37.2567 23.4212L37.1365 23.4477L36.6952 23.5499C36.4631 23.6049 36.2343 23.6732 36.0099 23.7543C35.7131 23.8603 35.4332 24.009 35.1791 24.1955C34.8694 24.4182 34.6275 24.7225 34.4805 25.0744C34.3254 25.4556 34.3254 25.9052 34.3603 26.3669C34.4276 27.2964 34.501 28.3172 34.5791 29.3884C34.5983 29.6566 34.6164 29.9211 34.6356 30.182C34.6549 30.4429 34.6801 30.7074 34.8424 30.889C34.9229 30.9764 35.0313 31.0329 35.149 31.0489C35.2675 31.0594 35.3868 31.0442 35.4989 31.0044C35.721 30.9246 35.9252 30.8021 36.1001 30.6437C36.7223 30.105 37.2435 29.4597 37.6391 28.738C37.9902 28.1284 38.2258 27.609 38.3929 27.2531L38.5829 26.8407C38.6034 26.7974 38.6202 26.7613 38.6334 26.7349C38.6368 26.72 38.6417 26.7055 38.6478 26.6916Z" fill="#263238"/>
<path d="M42.1265 28.1214C42.0351 28.1046 42.0002 27.8809 42.0495 27.62C42.0988 27.3591 42.2106 27.1631 42.302 27.18C42.3934 27.1968 42.4294 27.4204 42.3801 27.6813C42.3309 27.9422 42.219 28.1442 42.1265 28.1214Z" fill="#263238"/>
<path d="M42.5544 25.6889C42.5123 25.7141 42.4341 25.6612 42.3235 25.6348C42.1769 25.5989 42.0233 25.6048 41.8798 25.6516C41.7207 25.7172 41.5681 25.7977 41.4241 25.8921C41.2979 25.963 41.2041 25.9991 41.1717 25.9642C41.1392 25.9294 41.1717 25.838 41.2654 25.7129C41.3937 25.5412 41.5697 25.4111 41.7716 25.339C41.882 25.299 42.0005 25.2865 42.1167 25.3026C42.233 25.3188 42.3436 25.363 42.4389 25.4316C42.4972 25.4745 42.5412 25.534 42.5652 25.6023C42.5808 25.6456 42.5724 25.6769 42.5544 25.6889Z" fill="#263238"/>
<path d="M42.4987 24.3555C42.4987 24.3555 42.5372 24.3555 42.5564 24.412C42.5682 24.4442 42.5682 24.4796 42.5564 24.5118C42.5476 24.534 42.5334 24.5538 42.5152 24.5693C42.4969 24.5848 42.4752 24.5956 42.4518 24.6008C42.3289 24.6156 42.2046 24.588 42.0995 24.5226C41.958 24.4517 41.8321 24.3532 41.7292 24.2329L41.5609 24.0357L41.7665 24.1944C41.8208 24.2244 41.8684 24.2651 41.9064 24.3141C41.9444 24.3631 41.9721 24.4193 41.9877 24.4793C41.9944 24.5154 41.9915 24.5527 41.9792 24.5873C41.967 24.6219 41.9459 24.6527 41.918 24.6765C41.8867 24.6965 41.8517 24.7098 41.815 24.7154C41.7783 24.721 41.7409 24.7188 41.7052 24.709C41.4181 24.6474 41.1673 24.4744 41.0078 24.228C40.9773 24.1821 40.9504 24.1338 40.9272 24.0838L40.825 23.8758L40.9801 24.0477C41.0982 24.179 41.1886 24.3328 41.2459 24.4998C41.2629 24.5419 41.2722 24.5867 41.2735 24.632C41.2724 24.6577 41.2641 24.6825 41.2497 24.7038C41.2353 24.725 41.2152 24.7418 41.1917 24.7523C41.1491 24.7637 41.1045 24.7654 41.0612 24.757C41.0178 24.7487 40.977 24.7306 40.9417 24.7042C40.7113 24.5563 40.5169 24.3587 40.373 24.1258C40.2767 23.9709 40.2046 23.8023 40.1589 23.6257C40.1471 23.5781 40.1379 23.5299 40.1313 23.4814C40.1281 23.4643 40.1281 23.4468 40.1313 23.4297C40.1896 23.6672 40.2858 23.8937 40.4162 24.1006C40.5612 24.3234 40.7528 24.5121 40.9777 24.6537C41.0051 24.6737 41.0364 24.6876 41.0695 24.6947C41.1027 24.7017 41.137 24.7017 41.1701 24.6946C41.2266 24.6717 41.2194 24.5936 41.1881 24.5178C41.1327 24.3591 41.046 24.2132 40.9332 24.0886L40.9886 24.0525C41.0106 24.0995 41.0359 24.1449 41.0643 24.1884C41.2146 24.4189 41.4488 24.5819 41.7172 24.6429C41.7442 24.6509 41.7725 24.6532 41.8005 24.6497C41.8284 24.6462 41.8553 24.6369 41.8795 24.6224C41.8991 24.6055 41.914 24.5837 41.9227 24.5592C41.9313 24.5348 41.9334 24.5085 41.9288 24.4829C41.8989 24.3777 41.829 24.2884 41.734 24.2341L41.7713 24.1944C41.8678 24.3115 41.9862 24.4087 42.12 24.4805C42.2154 24.544 42.329 24.5744 42.4434 24.5671C42.4604 24.5638 42.4765 24.5572 42.4909 24.5475C42.5053 24.5379 42.5176 24.5255 42.5271 24.5111C42.5367 24.4966 42.5432 24.4804 42.5464 24.4634C42.5495 24.4464 42.5493 24.4289 42.5456 24.412C42.53 24.3675 42.4951 24.3591 42.4987 24.3555Z" fill="#263238"/>
<g opacity="0.3">
<path d="M35.2092 31.1416C35.7864 31.18 36.3863 31.2149 36.9214 30.9973C37.6428 30.7039 38.1237 29.9873 38.3305 29.2358C38.5373 28.4844 38.5289 27.8075 38.5 27.0295C37.7642 28.8787 36.9695 30.3204 35.2092 31.1416Z" fill="black"/>
</g>
<path d="M46.5963 30.0137C46.5911 30.034 46.5839 30.0538 46.5747 30.0726C46.5578 30.1099 46.5326 30.164 46.4989 30.2337C46.4073 30.4345 46.2857 30.6202 46.1382 30.7844C46.0408 30.8854 45.923 30.9816 45.8028 31.0886C45.6794 31.2161 45.5307 31.3164 45.3663 31.3831C45.2692 31.4162 45.1629 31.4097 45.0705 31.3651C44.9777 31.3158 44.9025 31.2389 44.8553 31.1451C44.7766 30.9477 44.757 30.7318 44.7988 30.5235C44.8398 30.1281 44.9204 29.7377 45.0393 29.3584C45.1303 29.0452 45.2668 28.747 45.4445 28.4735C45.5659 28.2871 45.731 28.1331 45.9254 28.025C45.9779 27.9962 46.0336 27.9736 46.0913 27.9577C46.1107 27.9505 46.1309 27.9457 46.1514 27.9432C46.1514 27.9505 46.0697 27.9709 45.9386 28.0478C45.7553 28.1619 45.6006 28.3166 45.4865 28.4999C45.3175 28.7728 45.1879 29.0684 45.1018 29.3776C44.9843 29.7532 44.9038 30.1394 44.8613 30.5307C44.8211 30.7261 44.8378 30.9289 44.9094 31.115C44.9498 31.1967 45.0145 31.2639 45.0946 31.3074C45.1329 31.3264 45.1746 31.3377 45.2173 31.3406C45.2601 31.3435 45.3029 31.3379 45.3435 31.3242C45.5001 31.2605 45.6423 31.1661 45.7619 31.0465C45.8821 30.9407 46.0024 30.8469 46.0997 30.7507C46.246 30.592 46.3697 30.414 46.4677 30.2217C46.5058 30.1495 46.5488 30.08 46.5963 30.0137Z" fill="#263238"/>
<path d="M46.32 28.9859C46.4114 28.9979 46.4824 29.0388 46.4776 29.0784C46.4727 29.1181 46.3934 29.1373 46.3008 29.1253C46.2082 29.1133 46.1385 29.0724 46.1433 29.0327C46.1481 28.9931 46.2275 28.9774 46.32 28.9859Z" fill="#263238"/>
<path d="M45.7551 29.2864C45.8453 29.2636 45.9259 29.2756 45.9367 29.3141C45.9475 29.3526 45.8814 29.4031 45.7924 29.4271C45.7034 29.4512 45.6205 29.4391 45.6108 29.3995C45.6012 29.3598 45.6637 29.3105 45.7551 29.2864Z" fill="#263238"/>
<path d="M46.2914 29.4283C46.3779 29.3935 46.4573 29.3863 46.4669 29.4115C46.4765 29.4368 46.4152 29.4873 46.3287 29.5209C46.2421 29.5546 46.1639 29.563 46.1543 29.5378C46.1447 29.5125 46.206 29.4668 46.2914 29.4283Z" fill="#263238"/>
<path d="M45.8059 30.1088C45.7839 30.1167 45.7602 30.1184 45.7373 30.1138C45.7144 30.1091 45.6933 30.0983 45.6761 30.0824C45.659 30.0666 45.6465 30.0463 45.6401 30.0238C45.6337 30.0014 45.6336 29.9776 45.6398 29.9551C45.646 29.9325 45.6583 29.9122 45.6753 29.8961C45.6923 29.8801 45.7134 29.8691 45.7362 29.8642C45.7591 29.8594 45.7828 29.8609 45.8048 29.8686C45.8269 29.8763 45.8464 29.89 45.8612 29.908C45.8791 29.9423 45.8833 29.982 45.8731 30.0193C45.8628 30.0566 45.8388 30.0886 45.8059 30.1088Z" fill="#263238"/>
<g opacity="0.3">
<path d="M47.0354 28.0924C46.7301 28.0047 46.3213 27.9217 46.1842 27.894C46.0471 27.8664 45.9437 27.9926 45.8427 28.054C45.5674 28.2223 45.3882 28.5084 45.2415 28.7982C44.9386 29.4198 44.8592 30.1208 44.8376 30.8073C44.8303 31.0213 44.9205 31.2498 45.1285 31.3039C45.1809 31.3211 45.2363 31.3268 45.291 31.3208C45.3458 31.3148 45.3986 31.2971 45.4459 31.269C45.9693 30.9748 46.3807 30.5157 46.6158 29.9633C46.8654 29.3697 47.0055 28.7359 47.0294 28.0924" fill="black"/>
</g>
<path d="M46.7289 28.0237C46.706 27.9984 46.6639 28.0164 46.6375 28.0381C46.518 28.1546 46.4306 28.2999 46.3838 28.4601C46.3611 28.5099 46.3469 28.5631 46.3417 28.6176C46.3398 28.6449 46.3447 28.6721 46.3558 28.6971C46.3669 28.722 46.3839 28.7439 46.4054 28.7607C46.4335 28.7766 46.4652 28.785 46.4974 28.785C46.5296 28.785 46.5613 28.7766 46.5894 28.7607C46.6459 28.7318 46.6952 28.6886 46.7529 28.6609C46.7733 28.6513 46.8022 28.6453 46.8154 28.6609C46.8287 28.6765 46.8154 28.703 46.8046 28.721C46.7572 28.8008 46.7292 28.8906 46.7228 28.9831C46.7169 29.027 46.7236 29.0716 46.7421 29.1118C46.7516 29.1318 46.7668 29.1486 46.7859 29.1599C46.805 29.1713 46.8269 29.1767 46.8491 29.1755C46.8491 29.1755 47.1749 28.2581 46.9633 28.1174C46.7517 27.9768 46.7289 28.0237 46.7289 28.0237Z" fill="#263238"/>
<g opacity="0.3">
<path d="M40.0022 23.283C40.2557 23.8858 40.6162 24.4377 41.0663 24.9122C41.2202 24.5815 41.0386 24.198 40.8595 23.8781C41.0778 24.1905 41.3612 24.4518 41.6903 24.644C41.7413 24.6812 41.8042 24.6983 41.867 24.6921C41.8896 24.6831 41.9102 24.6698 41.9275 24.6528C41.9449 24.6358 41.9587 24.6155 41.9682 24.5932C41.9777 24.5708 41.9827 24.5468 41.9829 24.5225C41.9831 24.4982 41.9784 24.4741 41.9692 24.4517C41.9274 24.362 41.8632 24.2845 41.7829 24.2268C41.7023 24.1674 41.6439 24.0828 41.6169 23.9863C41.7969 24.178 42.0073 24.3385 42.2398 24.4613C42.3189 24.5141 42.4157 24.5336 42.5091 24.5154C42.5697 24.4866 42.617 24.4356 42.6412 24.373C42.6653 24.3103 42.6645 24.2408 42.6389 24.1787C42.5822 24.0562 42.4895 23.9539 42.3732 23.8853C41.7193 23.4214 40.9386 23.1696 40.1369 23.1639" fill="black"/>
</g>
<g opacity="0.4">
<path d="M34.8427 29.2191C34.7982 29.2191 34.7225 28.8836 34.6504 28.3245C34.5511 27.5889 34.5556 26.843 34.6636 26.1086C34.6984 25.8974 34.7466 25.6885 34.8079 25.4834C34.8628 25.2898 34.934 25.1011 35.0207 24.9195C35.1651 24.5954 35.3981 24.3187 35.6928 24.1211C35.8936 23.9895 36.1297 23.922 36.3697 23.9276C36.538 23.9372 36.621 23.9865 36.6162 24.0057C36.6114 24.025 36.5236 24.0286 36.3757 24.0586C36.1744 24.1002 35.9857 24.1888 35.8251 24.3171C35.5909 24.5125 35.4102 24.764 35.2996 25.0482C35.2281 25.2193 35.1686 25.3953 35.1217 25.5748C35.0678 25.769 35.0248 25.9661 34.993 26.1651C34.8572 26.9839 34.8824 27.7522 34.8848 28.3089C34.8872 28.8656 34.8908 29.2143 34.8427 29.2191Z" fill="#EEEEEE"/>
</g>
<path d="M2.11011 17.4601C2.12317 17.3679 2.15335 17.279 2.19908 17.198C2.39955 16.79 2.74136 16.4687 3.16096 16.2938C3.24465 16.2531 3.33515 16.2282 3.42788 16.2205C3.4375 16.2409 3.01788 16.3515 2.64635 16.7014C2.27483 17.0513 2.13055 17.4697 2.11011 17.4601Z" fill="#263238"/>
<path d="M1.62932 16.0618C1.6221 16.0618 1.64254 15.9933 1.70266 15.9043C1.78492 15.7887 1.89171 15.6928 2.01539 15.6234C2.13907 15.554 2.27658 15.5127 2.41805 15.5027C2.47624 15.4929 2.53599 15.4987 2.59119 15.5195C2.40219 15.5404 2.21828 15.5941 2.04773 15.6782C1.76999 15.8333 1.64735 16.0738 1.62932 16.0618Z" fill="#263238"/>
<path d="M54.0216 32.7047C54.1528 32.766 54.2927 32.8065 54.4364 32.8249C54.5084 32.8334 54.5814 32.8254 54.6499 32.8017C54.7184 32.778 54.7806 32.739 54.832 32.6879C54.8885 32.6253 54.9209 32.5424 54.9786 32.4798C55.0465 32.4203 55.1295 32.3809 55.2184 32.3658C55.3074 32.3507 55.3988 32.3606 55.4824 32.3945C55.6034 32.4348 55.713 32.5036 55.8019 32.595C55.8908 32.6864 55.9565 32.7978 55.9934 32.9199C56.0272 33.0431 56.028 33.1729 55.996 33.2966C55.9639 33.4202 55.9 33.5332 55.8107 33.6245C55.7185 33.7129 55.6031 33.7733 55.478 33.7987C55.3528 33.824 55.223 33.8132 55.1037 33.7676C55.1037 33.7676 55.9453 34.073 55.7145 34.6922C55.4836 35.3114 54.6925 35.3895 54.4123 34.8593C54.4123 34.8593 54.2921 34.4709 54.1719 34.4252C54.0516 34.3796 53.6368 34.1992 53.6368 34.1992L52.9226 33.9094C52.7912 33.8488 52.6513 33.8082 52.5078 33.7892C52.4358 33.7808 52.3629 33.7887 52.2944 33.8124C52.2259 33.8362 52.1636 33.8751 52.1123 33.9263C52.0558 33.99 52.0233 34.0718 51.9656 34.1343C51.8982 34.1946 51.8152 34.2347 51.7261 34.25C51.637 34.2653 51.5454 34.2552 51.4618 34.2208C51.3406 34.1805 51.2309 34.1116 51.142 34.0199C51.0531 33.9283 50.9875 33.8166 50.9508 33.6942C50.917 33.5712 50.9162 33.4416 50.9482 33.3181C50.9803 33.1947 51.0442 33.0818 51.1335 32.9908C51.2253 32.9022 51.3405 32.8417 51.4656 32.8164C51.5906 32.791 51.7203 32.8019 51.8393 32.8478C51.8393 32.8478 50.9977 32.5412 51.2285 31.922C51.4594 31.3028 52.2517 31.2258 52.5319 31.7548C52.5319 31.7548 52.6521 32.1444 52.7723 32.1901C52.8926 32.2358 53.3062 32.4161 53.3062 32.4161L54.0216 32.7047Z" fill="#263238"/>
<path d="M53.8474 32.5316C53.9791 32.5927 54.1194 32.6333 54.2634 32.6518C54.3354 32.6603 54.4084 32.6523 54.4769 32.6286C54.5454 32.6049 54.6076 32.5659 54.659 32.5148C54.7155 32.451 54.748 32.3693 54.8057 32.3068C54.8735 32.2472 54.9565 32.2078 55.0455 32.1927C55.1344 32.1776 55.2258 32.1875 55.3095 32.2214C55.4304 32.2615 55.5399 32.3302 55.6287 32.4217C55.7174 32.5132 55.7828 32.6247 55.8193 32.7468C55.8541 32.8698 55.8557 32.9999 55.8238 33.1237C55.7919 33.2475 55.7277 33.3606 55.6377 33.4514C55.5454 33.5396 55.43 33.5998 55.3049 33.6251C55.1798 33.6505 55.05 33.6398 54.9307 33.5945C54.9307 33.5945 55.7724 33.8999 55.5415 34.5191C55.3107 35.1383 54.5195 35.2152 54.2394 34.6862C54.2394 34.6862 54.1191 34.2978 53.9989 34.2521C53.8787 34.2065 53.4639 34.0249 53.4639 34.0249L52.7497 33.7363C52.6183 33.6754 52.4784 33.6348 52.3349 33.6161C52.2627 33.6075 52.1894 33.6153 52.1207 33.6391C52.052 33.6628 51.9896 33.7018 51.9381 33.7532C51.8828 33.8169 51.8503 33.8987 51.7926 33.9612C51.725 34.0215 51.6418 34.0616 51.5524 34.0767C51.4631 34.0918 51.3713 34.0813 51.2876 34.0465C51.1666 34.0064 51.0571 33.9377 50.9684 33.8462C50.8796 33.7548 50.8143 33.6432 50.7778 33.5211C50.7433 33.3982 50.7421 33.2683 50.7742 33.1447C50.8063 33.0212 50.8706 32.9083 50.9606 32.8177C51.0524 32.7292 51.1675 32.6686 51.2925 32.6431C51.4175 32.6175 51.5471 32.6281 51.6663 32.6735C51.6663 32.6735 50.8247 32.3681 51.0556 31.7489C51.2864 31.1297 52.0776 31.0527 52.3577 31.5817C52.3577 31.5817 52.4779 31.9701 52.5982 32.0158C52.7184 32.0615 53.132 32.243 53.132 32.243L53.8474 32.5316Z" fill="#455A64"/>
<path d="M54.49 28.7538C54.5922 28.7471 54.6928 28.7248 54.7882 28.6877C54.8362 28.6691 54.8793 28.6399 54.9143 28.6022C54.9493 28.5645 54.9752 28.5193 54.9902 28.4701C55.0034 28.4112 54.9962 28.3499 55.0118 28.2909C55.0339 28.231 55.0723 28.1784 55.1226 28.1391C55.173 28.0998 55.2333 28.0753 55.2968 28.0685C55.3859 28.053 55.4775 28.0592 55.5638 28.0866C55.65 28.1141 55.7283 28.1619 55.7922 28.226C55.8543 28.2915 55.8982 28.3722 55.9193 28.46C55.9404 28.5478 55.938 28.6396 55.9124 28.7262C55.885 28.8123 55.8336 28.8887 55.7641 28.9465C55.6947 29.0042 55.6101 29.0409 55.5204 29.052C55.5204 29.052 56.1493 28.9606 56.2118 29.4248C56.2743 29.8889 55.8066 30.2027 55.4543 29.9658C55.4543 29.9658 55.2523 29.7614 55.1621 29.7734C55.072 29.7855 54.7533 29.8119 54.7533 29.8119L54.2099 29.8708C54.1078 29.8771 54.0072 29.899 53.9117 29.9358C53.864 29.9547 53.821 29.9841 53.7861 30.0217C53.7511 30.0594 53.725 30.1044 53.7097 30.1534C53.6965 30.2123 53.7097 30.2736 53.6881 30.3325C53.666 30.3926 53.6276 30.4452 53.5773 30.4847C53.527 30.5242 53.4667 30.549 53.4031 30.5562C53.314 30.5714 53.2225 30.565 53.1363 30.5376C53.0501 30.5102 52.9717 30.4626 52.9077 30.3987C52.8459 30.333 52.8023 30.2523 52.7812 30.1645C52.7601 30.0768 52.7623 29.9851 52.7875 29.8985C52.8156 29.8125 52.8675 29.7362 52.937 29.6784C53.0066 29.6205 53.091 29.5835 53.1807 29.5714C53.1807 29.5714 52.5518 29.664 52.4893 29.1987C52.4268 28.7334 52.8933 28.422 53.2456 28.6577C53.2456 28.6577 53.4488 28.8621 53.5378 28.85C53.6267 28.838 53.9478 28.8128 53.9478 28.8128L54.49 28.7538Z" fill="#263238"/>
<path d="M54.3224 28.7032C54.4248 28.6963 54.5257 28.6744 54.6217 28.6382C54.6696 28.6194 54.7126 28.5899 54.7474 28.552C54.7822 28.5141 54.8079 28.4687 54.8225 28.4194C54.837 28.3617 54.8297 28.2992 54.8442 28.2415C54.8676 28.1821 54.9069 28.1304 54.9578 28.092C55.0087 28.0536 55.0693 28.03 55.1327 28.0238C55.2219 28.0083 55.3135 28.0145 55.3997 28.042C55.4859 28.0694 55.5643 28.1172 55.6281 28.1813C55.6903 28.2468 55.7341 28.3275 55.7552 28.4153C55.7763 28.5031 55.7739 28.5949 55.7483 28.6815C55.7202 28.7675 55.6684 28.8438 55.5988 28.9016C55.5293 28.9595 55.4448 28.9965 55.3552 29.0086C55.3552 29.0086 55.9852 28.916 56.0477 29.3813C56.1102 29.8466 55.6425 30.158 55.2902 29.9223C55.2902 29.9223 55.0882 29.7179 54.9981 29.73C54.9079 29.742 54.5881 29.7672 54.5881 29.7672L54.0458 29.8261C53.9434 29.833 53.8425 29.8549 53.7464 29.8911C53.6987 29.9101 53.6559 29.9397 53.6211 29.9776C53.5863 30.0155 53.5605 30.0607 53.5456 30.1099C53.5324 30.1688 53.5456 30.2301 53.524 30.289C53.5016 30.349 53.463 30.4016 53.4125 30.4409C53.3619 30.4801 53.3015 30.5046 53.2378 30.5115C53.1489 30.5269 53.0575 30.5206 52.9715 30.4932C52.8855 30.4658 52.8073 30.418 52.7437 30.354C52.6815 30.2885 52.6377 30.2078 52.6166 30.12C52.5955 30.0322 52.5978 29.9404 52.6234 29.8538C52.6518 29.7681 52.7037 29.692 52.7732 29.6344C52.8427 29.5768 52.9271 29.5399 53.0166 29.528C53.0166 29.528 52.3878 29.6193 52.3253 29.1552C52.2627 28.6911 52.7292 28.3773 53.0815 28.6142C53.0815 28.6142 53.2835 28.8174 53.3737 28.8066C53.4639 28.7957 53.7837 28.7681 53.7837 28.7681L54.3224 28.7032Z" fill="#455A64"/>
</svg>
