<svg width="576" height="512" viewBox="0 0 576 512" fill="none" xmlns="http://www.w3.org/2000/svg">
<path d="M576 128C576 92.7 547.3 64 512 64H205.3C188.3 64 172 70.7 160 82.7L9.4 233.4C3.4 239.4 0 247.5 0 256C0 264.5 3.4 272.6 9.4 278.6L160 429.3C172 441.3 188.3 448 205.3 448H512C547.3 448 576 419.3 576 384V128ZM271 175C280.4 165.6 295.6 165.6 304.9 175L351.9 222L398.9 175C408.3 165.6 423.5 165.6 432.8 175C442.1 184.4 442.2 199.6 432.8 208.9L385.8 255.9L432.8 302.9C442.2 312.3 442.2 327.5 432.8 336.8C423.4 346.1 408.2 346.2 398.9 336.8L351.9 289.8L304.9 336.8C295.5 346.2 280.3 346.2 271 336.8C261.7 327.4 261.6 312.2 271 302.9L318 255.9L271 208.9C261.6 199.5 261.6 184.3 271 175Z" fill="white"/>
</svg>
