<svg width="60" height="45" viewBox="0 0 60 45" fill="none" xmlns="http://www.w3.org/2000/svg">
<path d="M8.608 22.718V29H5.098V16.22H7.834L12.964 22.718V16.22H16.474V29H13.684L8.608 22.718ZM24.4283 29.108C23.4563 29.108 22.5743 28.928 21.7823 28.568C20.9903 28.196 20.3063 27.704 19.7303 27.092C19.1663 26.468 18.7283 25.772 18.4163 25.004C18.1163 24.224 17.9663 23.42 17.9663 22.592C17.9663 21.74 18.1283 20.93 18.4523 20.162C18.7763 19.394 19.2263 18.71 19.8023 18.11C20.3903 17.498 21.0803 17.018 21.8723 16.67C22.6763 16.322 23.5523 16.148 24.5003 16.148C25.4723 16.148 26.3543 16.334 27.1463 16.706C27.9383 17.066 28.6163 17.558 29.1803 18.182C29.7443 18.806 30.1763 19.508 30.4763 20.288C30.7883 21.056 30.9443 21.848 30.9443 22.664C30.9443 23.504 30.7823 24.308 30.4583 25.076C30.1463 25.844 29.6963 26.534 29.1083 27.146C28.5323 27.746 27.8483 28.226 27.0563 28.586C26.2643 28.934 25.3883 29.108 24.4283 29.108ZM21.5303 22.628C21.5303 23.06 21.5903 23.48 21.7103 23.888C21.8303 24.284 22.0103 24.644 22.2503 24.968C22.4903 25.28 22.7903 25.532 23.1503 25.724C23.5223 25.904 23.9603 25.994 24.4643 25.994C24.9683 25.994 25.4063 25.898 25.7783 25.706C26.1503 25.514 26.4503 25.256 26.6783 24.932C26.9183 24.596 27.0923 24.23 27.2003 23.834C27.3203 23.426 27.3803 23.012 27.3803 22.592C27.3803 22.16 27.3203 21.746 27.2003 21.35C27.0803 20.954 26.9003 20.6 26.6603 20.288C26.4203 19.964 26.1143 19.712 25.7423 19.532C25.3703 19.352 24.9383 19.262 24.4463 19.262C23.9423 19.262 23.5043 19.358 23.1323 19.55C22.7723 19.742 22.4723 20 22.2323 20.324C21.9923 20.636 21.8123 20.996 21.6923 21.404C21.5843 21.8 21.5303 22.208 21.5303 22.628ZM35.942 22.718V29H32.432V16.22H35.168L40.298 22.718V16.22H43.808V29H41.018L35.942 22.718ZM55.1103 25.94V29H46.0023V16.22H54.9483V19.28H49.5123V21.08H54.1563V23.924H49.5123V25.94H55.1103Z" fill="black"/>
</svg>
