<svg width="60" height="45" viewBox="0 0 60 45" fill="none" xmlns="http://www.w3.org/2000/svg">
<g clip-path="url(#clip0_94_1185)">
<path d="M59.9652 37.8911C59.9652 37.8911 60.7219 38.1431 55.1954 38.3263C49.669 38.5096 20.5002 38.6013 17.5191 38.3263C14.5151 38.0514 8.66763 38.2118 16.4414 37.5474C24.2151 36.8831 32.1494 36.7685 39.969 36.883C48.316 36.9976 58.9332 37.6162 59.9652 37.8911Z" fill="#1B1C1E"/>
<path d="M12.8405 13.4925C12.8405 13.4925 10.5015 12.7823 8.71286 10.2164C6.44265 6.9404 1.48947 7.92551 0.342897 8.8877C-1.53748 10.4685 4.69986 17.7766 9.6989 20.5257C9.72184 20.5028 12.7259 16.3104 12.8405 13.4925Z" fill="#7DA050"/>
<path d="M4.9065 10.9037C5.24845 10.9037 5.52565 10.6268 5.52565 10.2852C5.52565 9.94356 5.24845 9.66663 4.9065 9.66663C4.56455 9.66663 4.28735 9.94356 4.28735 10.2852C4.28735 10.6268 4.56455 10.9037 4.9065 10.9037Z" fill="#1B1C1E"/>
<path d="M1.49023 12.9196C1.49023 12.9196 4.242 13.3549 7.03963 12.7593" stroke="#1B1C1E" stroke-miterlimit="10"/>
<mask id="mask0_94_1185" style="mask-type:luminance" maskUnits="userSpaceOnUse" x="0" y="7" width="13" height="14">
<path d="M12.8405 13.4925C12.8405 13.4925 10.5015 12.7823 8.71286 10.2164C6.44265 6.9404 1.48947 7.92551 0.342897 8.8877C-1.53748 10.4685 4.69986 17.7766 9.6989 20.5257C9.72184 20.5028 12.7259 16.3104 12.8405 13.4925Z" fill="white"/>
</mask>
<g mask="url(#mask0_94_1185)">
<g opacity="0.78">
<path d="M7.90967 19.5181C7.93277 19.5181 7.93277 19.495 7.95588 19.4719C7.93277 19.4719 7.90967 19.495 7.90967 19.5181Z" fill="#181716"/>
<path d="M6.25934 18.5784L6.21313 18.6246C6.25935 18.6015 6.25934 18.6015 6.25934 18.5784Z" fill="#181716"/>
<path d="M8.23169 19.2198C8.2546 19.2198 8.27751 19.1969 8.30042 19.174L8.23169 19.2198Z" fill="#181716"/>
<path d="M9.58447 20.2736C9.58447 20.2736 9.60671 20.2736 9.60671 20.2958V20.2736H9.58447Z" fill="#181716"/>
<path d="M10.6165 19.8154L10.6394 19.7467C10.6165 19.7696 10.6165 19.7925 10.6165 19.8154Z" fill="#181716"/>
<path d="M9.35522 20.3886C9.37833 20.3886 9.37833 20.3655 9.40144 20.3424C9.37833 20.3655 9.35522 20.3655 9.35522 20.3886Z" fill="#181716"/>
<path d="M5.63977 18.2119C5.61686 18.2119 5.59395 18.2119 5.57104 18.2119C5.61686 18.2577 5.61686 18.2577 5.63977 18.2119Z" fill="#181716"/>
<path d="M9.01088 20.0218C9.05674 19.8385 9.07967 20.0447 9.14847 19.8614C9.1026 19.8843 9.05674 19.9073 9.07967 19.8156C9.14846 19.724 9.14847 19.8614 9.21726 19.724L9.14847 19.7698C9.14847 19.6782 9.24019 19.5865 9.19433 19.5865C9.07967 19.7698 9.07967 19.4491 9.03381 19.472L9.05674 19.4491L9.03381 19.3345C9.03381 19.3345 9.03381 19.3574 9.01088 19.3803C9.03381 19.2658 9.01088 19.1741 8.94208 19.1741C8.87329 19.2658 8.7357 19.1283 8.68984 19.22C8.7357 19.1971 8.7357 19.22 8.75863 19.2429L8.68984 19.3803C8.64397 19.3574 8.7357 19.2658 8.64398 19.3116C8.57518 19.4949 8.71277 19.3345 8.75863 19.3803C8.7357 19.4262 8.68984 19.4491 8.6669 19.4491C8.7357 19.4949 8.78156 19.5865 8.91915 19.4262C8.91915 19.472 8.87329 19.5407 8.85036 19.5636C8.94208 19.472 8.85036 19.6782 8.94208 19.6094C8.85036 19.7698 8.78156 19.6552 8.71277 19.724C8.68984 19.5636 8.55225 19.6552 8.46052 19.6323C8.50639 19.5178 8.62104 19.4262 8.62104 19.3345C8.57518 19.22 8.50638 19.3574 8.43759 19.4262C8.39173 19.3574 8.52932 19.22 8.43759 19.1741L8.52932 19.1054C8.55225 18.8992 8.46052 19.1512 8.43759 19.1054C8.43759 19.1512 8.41466 19.1971 8.46052 19.22C8.43759 19.2887 8.39173 19.2887 8.3688 19.2887C8.32294 19.3574 8.27707 19.4491 8.23121 19.3803C8.32294 19.2887 8.23121 19.2887 8.23121 19.22L8.25414 19.1971C8.20828 19.22 8.16242 19.1742 8.13949 19.1971L8.16241 19.1741C8.11655 19.1971 8.04776 19.3345 8.02483 19.2658C8.04776 19.22 8.16242 19.1054 8.11655 19.1054C8.16242 19.0367 8.20828 19.0596 8.25414 19.1054C8.23121 19.0596 8.25414 18.9221 8.32293 18.9451C8.34587 18.8305 8.25414 18.968 8.25414 18.8992C8.25414 18.9221 8.23121 18.968 8.20828 18.9909C8.27707 18.8534 8.11655 18.9221 8.07069 19.0138L8.16241 18.968C8.11655 19.0825 8.02483 19.1054 8.02483 19.1741C8.07069 18.9909 7.84138 19.1971 7.88724 19.0367L7.86431 19.1283C7.77258 19.0367 7.58913 19.1741 7.47447 19.1741C7.54327 19.1512 7.63499 18.968 7.65792 19.0596C7.5662 18.968 7.70379 18.8763 7.72672 18.7618C7.68086 18.6472 7.61206 18.8992 7.54327 18.9451H7.61206C7.42861 19.1283 7.42861 18.8076 7.26809 18.8763C7.29102 18.8076 7.31396 18.8534 7.33689 18.8534C7.33689 18.716 7.26809 18.8534 7.22223 18.8763C7.17637 18.8305 7.15343 18.7618 7.24516 18.6472C7.1993 18.5785 7.22223 18.7389 7.15343 18.7618V18.716L7.01585 18.8305C6.99291 18.7618 6.96998 18.6701 7.01585 18.5327C6.90119 18.5098 6.83239 18.8076 6.71774 18.8076C6.71774 18.716 6.78653 18.716 6.80946 18.6701L6.74067 18.6472C6.83239 18.5098 6.85532 18.6243 6.94705 18.441C6.78653 18.5785 6.8324 18.441 6.69481 18.5098V18.5327C6.60308 18.6243 6.55722 18.5098 6.48842 18.5098C6.55722 18.441 6.60308 18.464 6.64895 18.464C6.62601 18.3723 6.46549 18.3723 6.3279 18.4869C6.30497 18.441 6.28204 18.3494 6.35084 18.3036C6.25911 18.212 6.19032 18.4869 6.12152 18.3952L6.19032 18.2807C6.19032 18.0516 5.91514 18.3036 5.91514 18.0974L5.82341 18.2349C5.84635 18.1661 5.82342 18.1203 5.84635 18.0516L5.91514 18.0287C5.93807 17.8912 5.80048 18.0974 5.80048 18.0058C5.77755 18.0516 5.75462 18.1661 5.73169 18.212C5.98393 18.2578 6.07566 18.5785 6.35084 18.5556C6.35084 18.5327 6.35083 18.5098 6.37377 18.4869C6.37377 18.5327 6.44256 18.5098 6.3967 18.5785H6.37377C6.44256 18.5785 6.3967 18.7618 6.44256 18.7847C6.51135 18.6931 6.53429 18.8763 6.60308 18.716L6.58015 18.8305C6.62601 18.7847 6.64894 18.6931 6.69481 18.6701C6.71774 18.6931 6.69481 18.7618 6.64895 18.7847C6.7636 18.9221 6.94705 18.9909 7.10757 19.0138L7.03878 19.0596C7.06171 19.1054 7.24516 18.9909 7.10757 19.1741C7.22223 19.1283 7.29102 19.3345 7.38275 19.1283C7.33689 19.3574 7.52034 19.3116 7.63499 19.3116C7.70379 19.1283 7.74965 19.3116 7.81844 19.22C7.77258 19.3574 7.65793 19.3116 7.61206 19.4032C7.81845 19.2429 7.84138 19.7011 8.04776 19.3574C8.04776 19.3803 8.04776 19.3803 8.04776 19.4032C8.07069 19.4032 8.07069 19.4949 8.07069 19.5178C8.11655 19.472 8.07069 19.4032 8.13949 19.4032C8.16242 19.4262 8.11655 19.5178 8.09362 19.5865C8.20828 19.5407 8.34587 19.5636 8.41466 19.4262C8.41466 19.472 8.41466 19.5636 8.3688 19.5865C8.52932 19.5178 8.48345 19.6552 8.62104 19.6323C8.57518 19.6094 8.52932 19.7698 8.50639 19.6782C8.46052 19.9073 8.71277 19.724 8.75863 19.8614L8.85036 19.7469C8.91915 19.7469 8.87329 19.8843 8.80449 19.9073C8.87329 20.0218 8.96501 19.976 9.03381 19.9989C9.03381 20.0218 9.01088 20.0447 9.01088 20.0218L9.12553 20.0676C9.14846 20.0447 9.21726 19.9989 9.24019 19.9073C9.1026 20.0676 9.05674 20.1134 9.01088 20.0218Z" fill="#181716"/>
<path d="M8.39209 19.0137C8.39209 19.0595 8.39209 19.0595 8.39209 19.0824C8.415 19.0595 8.415 19.0366 8.39209 19.0137Z" fill="#181716"/>
<path d="M10.2719 20.1592C10.3407 19.953 10.2031 20.1592 10.1573 20.0905C10.2031 20.0676 10.249 19.953 10.2719 19.8843C10.1114 20.1134 10.2261 19.8156 10.0885 19.8156C10.1114 19.7239 10.1802 19.7468 10.2031 19.6552C10.1114 19.701 10.0197 19.701 9.9509 19.8385C9.85917 19.7927 9.81331 19.7239 9.74452 19.7239C9.83624 19.701 9.81331 19.5865 9.90503 19.4719C9.76745 19.6094 9.53813 19.7468 9.35468 19.9301C9.40054 19.7697 9.40054 19.7468 9.46934 19.6094C9.40054 19.449 9.37761 19.7468 9.28589 19.6552L9.33175 19.701C9.26296 19.7239 9.19416 19.8843 9.1483 19.9759L9.28589 19.9988C9.24003 20.1134 9.17123 20.0676 9.12537 20.0676C9.03364 20.1821 9.1483 20.1821 9.10244 20.2967C9.1483 20.2279 9.19416 20.2738 9.24002 20.2508L9.21709 20.3196C9.26296 20.4112 9.35468 20.2738 9.40054 20.2967C9.40054 20.3196 9.40054 20.3196 9.40054 20.3425C9.44641 20.2738 9.49227 20.205 9.53813 20.205H9.5152C9.60693 20.0905 9.76745 20.0447 9.74452 19.8614L9.85917 19.953C9.79038 20.0905 9.67572 20.3196 9.58399 20.3196L9.56106 20.3883C9.584 20.5028 9.76745 20.3425 9.79038 20.1821C9.99676 19.8385 9.99676 20.2508 10.1573 20.1363C10.1343 20.2508 10.0656 20.2508 9.99676 20.3196C9.97383 20.3196 9.9509 20.3196 9.97383 20.2279C9.83624 20.2279 9.8821 20.5487 9.74452 20.457C9.69865 20.3883 9.8821 20.3196 9.79038 20.2738L9.60693 20.5258C9.67572 20.5487 9.74451 20.5258 9.81331 20.5028C10.1573 20.4341 10.3178 20.6632 10.3178 20.6632C10.7535 20.7778 11.1892 20.8923 11.6249 21.0069C11.7625 21.0069 11.8083 21.0298 11.9459 20.7778C11.9459 20.709 11.8542 20.709 11.9001 20.6174C11.8542 20.709 11.7854 20.7549 11.7166 20.7319C11.7395 20.6174 11.7854 20.709 11.7854 20.6632C11.8083 20.6174 11.8313 20.5716 11.8542 20.5945C11.8313 20.4112 11.6708 20.4112 11.5561 20.5716C11.5332 20.457 11.6478 20.4341 11.7166 20.3654C11.5332 20.205 11.3726 20.1821 11.1433 20.0905C11.0745 20.2738 11.0745 20.205 11.0057 20.3196V20.2508C11.0057 20.2967 10.9369 20.3883 10.9599 20.457C10.8911 20.2738 10.7306 20.6403 10.6159 20.6861L10.6618 20.5945C10.593 20.5945 10.57 20.5716 10.4783 20.6174C10.4325 20.4112 10.593 20.6174 10.6388 20.3883L10.593 20.4112C10.6388 20.3196 10.7306 20.1821 10.7764 20.1363C10.6159 20.2508 10.6388 20.0217 10.4783 20.0905C10.5242 19.9988 10.6618 19.953 10.7076 19.953C10.6618 19.9301 10.57 19.9759 10.593 19.8843L10.5471 20.0217C10.4783 20.0217 10.593 19.9072 10.6159 19.8156C10.4554 19.6781 10.4554 20.1363 10.2719 20.1592Z" fill="#181716"/>
<path d="M8.59814 19.4031C8.62125 19.4262 8.64435 19.4262 8.64435 19.4262C8.64435 19.4262 8.62125 19.4031 8.59814 19.4031Z" fill="#181716"/>
<path d="M9.03369 19.312C9.03369 19.2889 9.0568 19.2889 9.0568 19.2657C9.0568 19.2657 9.03369 19.2889 9.03369 19.312Z" fill="#181716"/>
<path d="M9.14828 19.1509C9.12537 19.2196 9.10246 19.1967 9.05664 19.2654C9.10246 19.2425 9.14828 19.2654 9.14828 19.1509Z" fill="#181716"/>
<path d="M4.30937 16.3331C4.26355 16.356 4.21773 16.356 4.19482 16.3789L4.28646 16.4019L4.30937 16.3331Z" fill="#181716"/>
<path d="M4.30957 16.5396V16.6312L4.46994 16.5167C4.42412 16.4708 4.35539 16.5854 4.30957 16.5396Z" fill="#181716"/>
<path d="M4.37922 16.7455L4.33301 16.7686C4.35611 16.7455 4.35611 16.7455 4.37922 16.7455Z" fill="#181716"/>
<path d="M4.42419 16.677L4.53874 16.5853L4.40129 16.6082V16.6541C4.37838 16.6999 4.37838 16.7228 4.35547 16.7457L4.44711 16.6999C4.44711 16.6999 4.42419 16.6999 4.42419 16.677Z" fill="#181716"/>
<path d="M4.4707 16.7221C4.4707 16.6998 4.49294 16.6998 4.49294 16.6998C4.49294 16.6998 4.49294 16.7221 4.4707 16.7221Z" fill="#181716"/>
<path d="M4.42409 17.0202C4.447 16.9744 4.51573 16.9286 4.56155 16.9057C4.53864 16.8141 4.42409 16.9744 4.40118 16.8828C4.53864 16.8599 4.42409 16.7911 4.46991 16.7224C4.40119 16.837 4.35536 16.9057 4.37827 16.9973L4.447 16.9286C4.49282 16.9515 4.447 16.9744 4.42409 17.0202Z" fill="#181716"/>
<path d="M4.83774 17.0892L4.72319 17.1579C4.7461 17.1121 4.67737 17.0434 4.76901 16.9518C4.72319 16.9518 4.70028 16.9976 4.65446 16.9976C4.67737 16.9288 4.70028 16.883 4.60864 16.9288C4.65446 17.0663 4.60864 17.0663 4.65446 17.1808C4.63155 17.2038 4.63155 17.1808 4.60864 17.1808L4.63155 17.2725C4.76901 17.1579 4.83774 17.2038 4.83774 17.0892Z" fill="#181716"/>
<path d="M4.86003 17.227C4.81422 17.2041 4.69967 17.2728 4.67676 17.3644H4.83712C4.81421 17.3415 4.7684 17.3186 4.86003 17.227Z" fill="#181716"/>
<path d="M4.92889 17.2955C4.90598 17.3642 4.86016 17.5017 4.95179 17.4329C4.90597 17.3871 5.04343 17.2497 4.92889 17.2955Z" fill="#181716"/>
<path d="M5.20464 17.6392L5.15878 17.5018C5.22757 17.3643 5.22757 17.4788 5.29636 17.4559C5.22757 17.3643 5.22757 17.433 5.11291 17.4788C5.08998 17.4559 4.99826 17.5018 4.95239 17.5247C5.15878 17.4788 4.92946 17.8225 5.20464 17.6392Z" fill="#181716"/>
<path d="M5.11296 17.3644L5.06714 17.4102H5.13587L5.11296 17.3644Z" fill="#181716"/>
<path d="M5.31893 17.9367C5.27307 18.1429 5.50239 17.9138 5.50239 18.0283C5.47945 18.0283 5.47945 18.0513 5.45652 18.0513L5.52531 18.0742L5.50239 18.12C5.57118 18.0283 5.63997 18.0054 5.7317 17.9596C5.7317 17.8222 5.61704 18.0742 5.63997 17.9138C5.68583 17.868 5.7317 17.8222 5.77756 17.7763C5.70877 17.7992 5.66291 17.868 5.61704 17.9138C5.57118 17.8909 5.61704 17.8451 5.63997 17.8222C5.57118 17.8451 5.45652 18.0054 5.43359 17.9138C5.45652 17.7992 5.54825 17.7992 5.45652 17.7763C5.38773 17.9596 5.41066 17.7076 5.31893 17.7763C5.296 17.7076 5.31893 17.5931 5.3648 17.5472C5.27307 17.6618 5.15841 17.7305 5.11255 17.7534L5.27307 17.7076L5.20428 17.868C5.27307 17.8451 5.296 17.8909 5.31893 17.9367Z" fill="#181716"/>
<path d="M5.77783 17.7768C5.80094 17.7768 5.80094 17.7768 5.82404 17.7537C5.82404 17.7537 5.80094 17.7768 5.77783 17.7768Z" fill="#181716"/>
<path d="M5.36499 17.5015H5.41081L5.43372 17.4557L5.36499 17.5015Z" fill="#181716"/>
<path d="M5.89163 17.7078C5.89163 17.7078 5.84581 17.7307 5.86872 17.7536L5.93745 17.7078H5.89163Z" fill="#181716"/>
<path d="M5.8923 17.8453L5.86938 17.937L5.93811 17.8912L5.8923 17.8453Z" fill="#181716"/>
<path d="M7.08452 18.6011C7.06161 18.5324 7.01579 18.6241 6.96997 18.7157C7.01579 18.7615 7.01579 18.6241 7.08452 18.6011Z" fill="#181716"/>
<path d="M7.95679 18.8535C7.93388 18.7619 7.84225 18.8535 7.81934 18.8306C7.81934 18.8993 7.88807 18.8993 7.95679 18.8535Z" fill="#181716"/>
<path d="M8.4609 18.67C8.43799 18.693 8.41508 18.7159 8.43799 18.7388L8.30054 18.8991C8.32345 18.9908 8.41508 18.7388 8.4609 18.67Z" fill="#181716"/>
<path d="M8.85047 18.8076L8.75883 18.8534L8.78174 18.8763C8.73592 18.9451 8.71302 18.968 8.64429 19.0367C8.73592 18.9909 8.80465 18.9451 8.85047 18.8076Z" fill="#181716"/>
<path d="M8.59814 19.0368H8.62125C8.62125 18.9906 8.62125 18.9675 8.59814 19.0368Z" fill="#181716"/>
<path d="M8.64518 19.0366C8.64518 19.0135 8.62207 19.0366 8.62207 19.0366C8.62207 19.0366 8.62207 19.0597 8.64518 19.0366Z" fill="#181716"/>
<path d="M8.85059 18.922L8.96513 18.9449L8.94223 18.8991C8.89641 18.9907 8.94222 18.7845 8.85059 18.922Z" fill="#181716"/>
<path d="M9.40109 19.2656L9.35522 19.3801C9.42402 19.4259 9.60747 19.2198 9.56161 19.426C9.56161 19.3343 9.67627 19.3114 9.60747 19.2427C9.53868 19.3343 9.44695 19.3114 9.40109 19.2656Z" fill="#181716"/>
<path d="M9.58467 19.5405C9.56177 19.5634 9.56177 19.6092 9.56177 19.6321C9.58468 19.655 9.6305 19.6092 9.6305 19.5634C9.56177 19.7009 9.6534 19.4489 9.58467 19.5405Z" fill="#181716"/>
<path d="M9.92839 19.6552C9.90548 19.6552 9.88257 19.6552 9.88257 19.701C9.9513 19.724 9.97421 19.5865 10.0429 19.5178C10.02 19.4032 9.90548 19.5636 9.92839 19.6552Z" fill="#181716"/>
<path d="M10.4103 19.8614V19.8385L10.3416 19.976L10.4103 19.8614Z" fill="#181716"/>
<path d="M10.8228 19.9301L10.9144 19.8385H10.8228V19.9301Z" fill="#181716"/>
<path d="M10.8914 19.9758L10.9601 19.9987V19.9529C10.9372 19.9071 10.9143 19.9758 10.8914 19.9758Z" fill="#181716"/>
<path d="M11.098 20.0217V19.9988L11.0293 20.0446L11.098 20.0217Z" fill="#181716"/>
</g>
</g>
<path d="M47.5813 32.0263C47.008 33.1718 47.0539 37.6849 47.0539 37.6849H54.9193L49.347 30.8579C49.347 30.8579 47.9023 31.3848 47.5813 32.0263Z" fill="#7DA050"/>
<mask id="mask1_94_1185" style="mask-type:luminance" maskUnits="userSpaceOnUse" x="47" y="30" width="8" height="8">
<path d="M47.5825 32.0263C47.0092 33.1718 47.0551 37.6849 47.0551 37.6849H54.9205L49.3482 30.8579C49.3482 30.8579 47.9035 31.3848 47.5825 32.0263Z" fill="white"/>
</mask>
<g mask="url(#mask1_94_1185)">
<g opacity="0.78">
<path d="M50.7931 34.8668C50.7701 34.8668 50.7243 34.8897 50.7014 34.8897C50.7014 34.8897 50.7472 34.8897 50.7931 34.8668Z" fill="#181716"/>
<path d="M52.123 36.9058L52.2147 36.837C52.1689 36.8599 52.146 36.8829 52.123 36.9058Z" fill="#181716"/>
<path d="M50.0361 35.119C49.9903 35.119 49.9445 35.119 49.8757 35.1419L50.0361 35.119Z" fill="#181716"/>
<path d="M49.784 35.6001C49.7609 35.6232 49.7609 35.6232 49.7378 35.6463C49.7609 35.6232 49.784 35.6232 49.784 35.6001Z" fill="#181716"/>
<path d="M49.8071 32.8511C49.8302 32.8511 49.8302 32.8511 49.8533 32.828C49.8533 32.8511 49.8302 32.8511 49.8071 32.8511Z" fill="#181716"/>
<path d="M49.5552 32.8282C49.5552 32.8051 49.5552 32.8051 49.5321 32.8051L49.509 32.8282C49.4859 32.8282 49.5321 32.8282 49.5552 32.8282Z" fill="#181716"/>
<path d="M47.6976 32.7365L47.606 32.7823C47.6518 32.7594 47.6747 32.7365 47.6976 32.7365Z" fill="#181716"/>
<path d="M49.9674 32.8051C49.9445 32.8051 49.8986 32.828 49.8757 32.828C49.8986 32.8509 49.9215 32.8509 49.9674 32.8051Z" fill="#181716"/>
<path d="M50.8394 34.8212C50.8163 34.8212 50.8163 34.8443 50.7932 34.8443C50.8163 34.8443 50.8394 34.8443 50.8394 34.8212Z" fill="#181716"/>
<path d="M52.7424 37.5701C52.7653 37.5701 52.7882 37.5931 52.8112 37.5931C52.8112 37.5243 52.7653 37.5243 52.7424 37.5701Z" fill="#181716"/>
<path d="M49.9452 33.5153C49.67 33.7215 49.8764 33.4466 49.6012 33.6299C49.693 33.6299 49.7618 33.6299 49.6242 33.7444C49.4407 33.8131 49.5783 33.6528 49.3261 33.7902H49.4637C49.3719 33.9048 49.1426 33.9735 49.1885 33.9964C49.5554 33.836 49.1656 34.2484 49.2573 34.2713H49.2114L49.1197 34.4546C49.1197 34.4546 49.0968 34.4546 49.0968 34.4775C49.1197 34.4546 49.1426 34.4546 49.1656 34.4317C49.028 34.5691 48.9592 34.7066 49.028 34.7524C49.2343 34.6608 49.2343 34.9357 49.4178 34.8441C49.349 34.8441 49.3261 34.8212 49.349 34.7524L49.5783 34.615C49.6242 34.6837 49.3719 34.7524 49.5554 34.7295C49.8535 34.5004 49.4866 34.6379 49.4866 34.5691C49.5783 34.5462 49.6471 34.5233 49.693 34.5233C49.6471 34.4317 49.693 34.2713 49.349 34.4088C49.3949 34.3401 49.5325 34.2713 49.5783 34.2713C49.349 34.3171 49.7159 34.111 49.5095 34.1568C49.8076 33.9964 49.7388 34.2026 49.9452 34.1339C49.7847 34.363 50.0599 34.3401 50.1745 34.4088C49.9682 34.5462 49.7388 34.615 49.6471 34.7295C49.5783 34.9128 49.8306 34.7524 49.9682 34.7066C49.9452 34.8212 49.6242 34.9586 49.693 35.0732L49.5095 35.0961C49.2573 35.371 49.67 35.0732 49.6471 35.1648C49.7159 35.0961 49.7847 35.0502 49.7388 35.0044C49.8535 34.9128 49.9223 34.9357 49.9452 34.9357V34.9128C50.1057 34.8441 50.2663 34.7295 50.2433 34.8441C50.037 34.9357 50.1516 34.9815 50.0828 35.0502H50.0369C50.1287 35.0502 50.1287 35.119 50.1975 35.1419L50.1516 35.1648C50.2433 35.1419 50.4726 35.0044 50.4497 35.0961C50.358 35.1419 50.0828 35.2564 50.1516 35.2793C50.014 35.371 49.9682 35.3022 49.9682 35.2106C49.9682 35.3022 49.7618 35.4855 49.7159 35.4168C49.5554 35.5543 49.8306 35.4168 49.7847 35.5084C49.8306 35.4626 49.8994 35.4397 49.9452 35.3939C49.7159 35.5543 50.014 35.5313 50.1745 35.4168L50.014 35.4397C50.1975 35.3022 50.358 35.3022 50.4497 35.2106C50.1975 35.4397 50.702 35.2793 50.4956 35.4855L50.6332 35.3481C50.6332 35.5313 51.0459 35.4168 51.2064 35.4855C51.0918 35.5084 50.7708 35.7375 50.8166 35.5772C50.8395 35.7375 50.5414 35.8292 50.4268 35.9895C50.3809 36.1728 50.7478 35.8292 50.8625 35.7833L50.7708 35.7604C51.1835 35.5772 50.8854 36.0583 51.1835 36.0124C51.0918 36.0812 51.1147 36.0354 51.0689 36.0354C50.9313 36.2415 51.1377 36.0583 51.2523 36.0354C51.2752 36.127 51.2523 36.2415 51.0001 36.379C51.0001 36.4935 51.1377 36.2644 51.2294 36.2415L51.1835 36.2874L51.4816 36.1728C51.4587 36.2874 51.3899 36.4477 51.2064 36.631C51.344 36.7226 51.7339 36.2874 51.8944 36.3103C51.8256 36.4477 51.7339 36.4248 51.6421 36.4935L51.7339 36.5623C51.4816 36.7226 51.5275 36.5623 51.2523 36.7914C51.5963 36.631 51.4128 36.8143 51.6651 36.7685L51.688 36.7455C51.9173 36.631 51.8485 36.8372 51.9403 36.8601C51.8027 36.9288 51.7568 36.883 51.6651 36.883C51.6192 37.0205 51.8485 37.0892 52.1237 36.9288C52.1237 36.9975 52.0778 37.1579 51.9403 37.1808C52.009 37.3412 52.3301 36.9288 52.353 37.0892L52.1696 37.2495C52.009 37.5932 52.6053 37.2495 52.4677 37.5703L52.697 37.3641C52.6282 37.4786 52.6282 37.5474 52.5594 37.639L52.4447 37.6619C52.3072 37.8681 52.6741 37.5474 52.5823 37.7306C52.6511 37.6619 52.7429 37.4786 52.8116 37.4099C52.4906 37.3183 52.6053 36.8143 52.1696 36.7685C52.1466 36.7914 52.1237 36.8372 52.0778 36.8601C52.1008 36.7914 52.009 36.7914 52.1466 36.6997H52.1696C52.0549 36.6768 52.3072 36.4019 52.2613 36.3561C52.0778 36.4706 52.2154 36.1728 51.9861 36.4248L52.1237 36.2415C52.009 36.3103 51.8944 36.4248 51.8256 36.4477C51.8027 36.379 51.9173 36.3103 52.009 36.2874C51.9861 36.0354 51.8027 35.875 51.5734 35.7833L51.7339 35.7375C51.7568 35.6459 51.3899 35.7604 51.7568 35.5543C51.5733 35.5772 51.688 35.2564 51.3211 35.5084C51.6192 35.2106 51.3211 35.1877 51.1835 35.119C50.9083 35.3481 51.023 35.0732 50.8625 35.1419C51.0689 34.9586 51.1606 35.0732 51.3211 34.9586C50.8854 35.0961 51.344 34.4317 50.702 34.8211C50.7249 34.7982 50.7478 34.7753 50.7708 34.7524C50.7478 34.7295 50.8395 34.615 50.8395 34.5921C50.7249 34.6608 50.7249 34.7295 50.6332 34.7066C50.6332 34.6379 50.8166 34.5462 50.8625 34.4775C50.679 34.4775 50.5185 34.3859 50.2663 34.5462C50.3121 34.4775 50.4268 34.363 50.4956 34.3401C50.2204 34.3401 50.4497 34.1797 50.2204 34.1339C50.2663 34.1797 50.4956 33.9735 50.4497 34.1339C50.7478 33.836 50.2433 33.9735 50.3351 33.7215L50.0828 33.8131C49.9911 33.7673 50.1975 33.6299 50.3121 33.6299C50.3809 33.4237 50.1975 33.4466 50.1287 33.3549C50.1516 33.332 50.1975 33.3091 50.1975 33.332L50.1287 33.1946C50.0599 33.2175 49.9223 33.2404 49.7847 33.3549C49.8764 33.4237 49.9682 33.4008 49.9452 33.5153Z" fill="#181716"/>
<path d="M49.7381 33.4926L49.7158 33.5148C49.7381 33.4926 49.7381 33.4926 49.7381 33.4926Z" fill="#181716"/>
<path d="M49.6006 35.3022C49.6464 35.2564 49.6693 35.2335 49.6693 35.2106C49.6235 35.2335 49.6006 35.2793 49.6006 35.3022Z" fill="#181716"/>
<path d="M48.5689 32.5073C48.2249 32.7364 48.6836 32.5531 48.6148 32.6677C48.523 32.6447 48.3396 32.7822 48.2479 32.8509C48.7294 32.6447 48.202 32.9884 48.3855 33.0571C48.2479 33.1488 48.1791 33.1029 48.0186 33.1946C48.1791 33.1946 48.2937 33.2633 48.546 33.1258C48.6148 33.2404 48.5918 33.3779 48.6836 33.4237C48.523 33.4008 48.4313 33.5611 48.1791 33.6299C48.5231 33.5382 48.9817 33.5153 49.4174 33.4008C49.1651 33.584 49.1422 33.6069 48.8899 33.7673C48.7982 34.0193 49.1651 33.6528 49.1651 33.836V33.7444C49.2798 33.7444 49.532 33.584 49.7384 33.4924L49.6008 33.3549C49.7843 33.2404 49.8301 33.3549 49.876 33.3549C50.1282 33.2633 49.9907 33.1717 50.1741 33.08C50.0136 33.1488 50.0136 33.0571 49.9448 33.0571L50.0365 32.9884C50.0824 32.8509 49.8301 32.9655 49.7843 32.8968C49.8072 32.8738 49.8301 32.8509 49.8531 32.8509C49.7384 32.8968 49.5779 32.9655 49.5091 32.9426L49.532 32.9655C49.2569 33.0571 49.0275 33.0113 48.8212 33.2862L48.7982 33.08C49.0734 32.9426 49.4862 32.7135 49.5779 32.7822L49.6925 32.7135C49.8072 32.5531 49.3715 32.6448 49.1651 32.828C48.5001 33.1488 48.9817 32.5989 48.6606 32.6447C48.8212 32.5302 48.9358 32.5531 49.0734 32.5073C49.1193 32.5302 49.1422 32.5531 48.9817 32.6447C49.1651 32.7364 49.5091 32.2782 49.555 32.4844C49.5091 32.6218 49.211 32.5531 49.2798 32.6906L49.8072 32.4844C49.7384 32.4157 49.6238 32.3927 49.532 32.3698C49.0046 32.2324 49.1193 31.82 49.1193 31.82C48.7524 31.3618 48.4084 30.8807 48.0644 30.4225C47.9039 30.308 47.9039 30.2393 47.3765 30.4454C47.3077 30.5371 47.3994 30.6058 47.216 30.6745C47.3994 30.5829 47.537 30.6058 47.5599 30.6974C47.3994 30.812 47.4223 30.6745 47.3994 30.7204V30.7433C47.3077 30.7891 47.2389 30.812 47.216 30.7891C47.0096 31.0411 47.1701 31.1785 47.537 31.064C47.3994 31.2473 47.2389 31.1785 47.0784 31.2015C47.1013 31.5451 47.2389 31.7055 47.3765 32.0033C47.6746 31.82 47.5829 31.9116 47.8122 31.82L47.7205 31.9116C47.7663 31.8658 47.9956 31.7742 48.0415 31.6826C47.9039 31.9804 48.5689 31.6138 48.7524 31.6367L48.5918 31.7284C48.6606 31.7971 48.6836 31.82 48.8212 31.8429C48.6148 32.1637 48.7065 31.7513 48.3396 32.0262H48.4313C48.2708 32.0949 47.9956 32.2324 47.858 32.2553C48.202 32.2324 47.881 32.5073 48.1561 32.5302C47.9727 32.6218 47.7434 32.576 47.7205 32.5531C47.7434 32.6218 47.9039 32.6218 47.7663 32.7364L47.9956 32.6218C48.0874 32.6906 47.7892 32.7364 47.6517 32.8509C47.7663 33.0113 48.3167 32.4157 48.5689 32.5073Z" fill="#181716"/>
<path d="M49.762 34.6152C49.762 34.569 49.7389 34.569 49.7158 34.569C49.7158 34.5921 49.7158 34.6152 49.762 34.6152Z" fill="#181716"/>
<path d="M49.0738 34.5005C49.0509 34.5234 49.0051 34.5234 48.9822 34.5463C49.028 34.5463 49.0509 34.5234 49.0738 34.5005Z" fill="#181716"/>
<path d="M48.752 34.6608C48.8436 34.5921 48.8665 34.615 49.004 34.5463C48.9123 34.5692 48.8665 34.5004 48.752 34.6608Z" fill="#181716"/>
<path d="M50.9767 36.5853C50.9309 36.6999 51.0913 36.5624 51.2287 36.4708C51.2058 36.3562 51.0913 36.5853 50.9767 36.5853Z" fill="#181716"/>
<path d="M50.0367 35.7835C49.9679 35.921 50.1741 35.8522 50.197 35.898C50.2658 35.7835 50.1512 35.7606 50.0367 35.7835Z" fill="#181716"/>
<path d="M49.1191 35.7833C49.1879 35.7604 49.2338 35.7604 49.2338 35.7145L49.6007 35.5313C49.6466 35.3938 49.2567 35.6916 49.1191 35.7833Z" fill="#181716"/>
<path d="M48.752 35.3482H48.9354L48.9125 35.3024C49.0501 35.2337 49.1189 35.2107 49.2564 35.1649C49.1418 35.142 48.9813 35.1649 48.752 35.3482Z" fill="#181716"/>
<path d="M49.3481 35.1876C49.3481 35.1876 49.3252 35.1876 49.3023 35.1647C49.2794 35.1876 49.2336 35.2334 49.3481 35.1876Z" fill="#181716"/>
<path d="M49.28 35.1417C49.257 35.1417 49.257 35.1417 49.2341 35.1646C49.257 35.1646 49.28 35.1646 49.3029 35.1875C49.3487 35.1417 49.3487 35.1188 49.28 35.1417Z" fill="#181716"/>
<path d="M48.8664 35.165L48.729 35.0504L48.7061 35.1421C48.9122 35.0275 48.6373 35.3024 48.8664 35.165Z" fill="#181716"/>
<path d="M48.5457 34.34L48.7291 34.2025C48.7062 34.088 48.2246 34.2483 48.4998 33.9963C48.4081 34.1109 48.2246 34.0651 48.2476 34.2025C48.454 34.1338 48.5686 34.2483 48.5457 34.34Z" fill="#181716"/>
<path d="M48.6381 33.836C48.7069 33.8131 48.7298 33.7673 48.7756 33.7215C48.7756 33.6757 48.661 33.6986 48.5923 33.7673C48.8672 33.6069 48.4549 33.9047 48.6381 33.836Z" fill="#181716"/>
<path d="M48.3623 33.4464C48.3852 33.4693 48.4311 33.4922 48.454 33.4235C48.3852 33.3548 48.1788 33.5151 48.0183 33.561C47.9495 33.6984 48.2935 33.561 48.3623 33.4464Z" fill="#181716"/>
<path d="M49.4628 31.9115C49.3025 32.026 49.3483 32.0719 49.417 32.049C49.3712 32.049 49.417 31.9802 49.4628 31.9115Z" fill="#181716"/>
<path d="M48.0188 32.7823L47.9958 32.8281L48.271 32.6907L48.0188 32.7823Z" fill="#181716"/>
<path d="M47.6056 32.4156L47.3994 32.4615L47.4681 32.5302L47.6056 32.4156Z" fill="#181716"/>
<path d="M47.5829 32.301L47.5142 32.2323L47.4683 32.301C47.4454 32.3698 47.56 32.2781 47.5829 32.301Z" fill="#181716"/>
<path d="M47.3996 32.0948C47.4225 32.0948 47.3996 32.1178 47.3767 32.1407H47.5371L47.3996 32.0948Z" fill="#181716"/>
</g>
</g>
<path d="M15.7986 25.5427C15.7986 25.5427 17.4726 34.0192 18.7567 37.6847H24.9482L24.4208 29.529C24.4437 29.529 18.8943 24.7638 15.7986 25.5427Z" fill="#7DA050"/>
<mask id="mask2_94_1185" style="mask-type:luminance" maskUnits="userSpaceOnUse" x="15" y="25" width="10" height="13">
<path d="M15.7976 25.5427C15.7976 25.5427 17.4716 34.0192 18.7558 37.6847H24.9472L24.4198 29.529C24.4427 29.529 18.8933 24.7638 15.7976 25.5427Z" fill="white"/>
</mask>
<g mask="url(#mask2_94_1185)">
<g opacity="0.78">
<path d="M20.1547 28.3835C20.1318 28.4065 20.1088 28.4294 20.0859 28.4523C20.0859 28.4523 20.1088 28.4294 20.1547 28.3835Z" fill="#181716"/>
<path d="M22.1497 29.7812L22.2184 29.6896C22.1497 29.7125 22.1497 29.7354 22.1497 29.7812Z" fill="#181716"/>
<path d="M19.5344 28.9105C19.5115 28.9105 19.4657 28.9334 19.397 29.0022L19.5344 28.9105Z" fill="#181716"/>
<path d="M19.49 29.4603C19.49 29.4832 19.467 29.5061 19.467 29.5291C19.49 29.4832 19.49 29.4603 19.49 29.4603Z" fill="#181716"/>
<path d="M18.48 26.8938C18.5022 26.8938 18.5022 26.8716 18.5022 26.8716L18.48 26.8938Z" fill="#181716"/>
<path d="M18.2285 26.9634C18.2285 26.9403 18.2054 26.9403 18.2054 26.9403L18.1823 26.9634C18.1592 26.9865 18.2054 26.9634 18.2285 26.9634Z" fill="#181716"/>
<path d="M16.462 27.5817L16.3933 27.6733C16.4391 27.6275 16.462 27.6046 16.462 27.5817Z" fill="#181716"/>
<path d="M18.5948 26.8031C18.5719 26.826 18.549 26.8489 18.5032 26.8718C18.549 26.8489 18.5719 26.8489 18.5948 26.8031Z" fill="#181716"/>
<path d="M20.1774 28.3378C20.1543 28.3609 20.1543 28.3609 20.1543 28.384C20.1543 28.3609 20.1774 28.3609 20.1774 28.3378Z" fill="#181716"/>
<path d="M22.9517 30.1476C22.9746 30.1476 22.9975 30.1476 23.0204 30.1476C22.9975 30.0789 22.9746 30.1018 22.9517 30.1476Z" fill="#181716"/>
<path d="M18.8467 27.4673C18.6633 27.7651 18.755 27.4214 18.5715 27.7193C18.6633 27.6734 18.7091 27.6505 18.6174 27.8109C18.4798 27.9484 18.5486 27.7422 18.3652 27.9713L18.4798 27.9254C18.434 28.0629 18.2505 28.2233 18.2964 28.2233C18.5715 27.9254 18.3652 28.4753 18.4569 28.4524L18.411 28.4753L18.3881 28.6815V28.7044C18.411 28.6815 18.411 28.6585 18.434 28.6356C18.3652 28.8189 18.3422 28.9793 18.434 28.9793C18.5945 28.8189 18.7091 29.0709 18.8467 28.9335C18.7779 28.9564 18.755 28.9564 18.755 28.8647L18.9155 28.6356C18.9843 28.6815 18.7779 28.8418 18.9384 28.7502C19.1219 28.4295 18.8467 28.6815 18.8238 28.6356C18.8926 28.5669 18.9614 28.5211 19.0072 28.5211C18.9155 28.4524 18.9155 28.292 18.6403 28.544C18.6633 28.4524 18.755 28.3378 18.8009 28.3149C18.6174 28.4524 18.8696 28.1087 18.7091 28.2233C18.9155 27.9484 18.9384 28.1774 19.1219 28.04C19.0531 28.3149 19.3053 28.1774 19.42 28.2004C19.2824 28.4065 19.099 28.544 19.0531 28.7044C19.0531 28.9106 19.2136 28.6585 19.3512 28.5669C19.3741 28.6815 19.1219 28.9335 19.2365 29.0022L19.076 29.0938C18.9384 29.4375 19.2136 29.0022 19.2136 29.0938C19.2595 29.0022 19.3053 28.9335 19.2365 28.9106C19.3053 28.796 19.3741 28.7731 19.3971 28.7731V28.7502C19.5117 28.6127 19.6264 28.4753 19.6493 28.5898C19.4888 28.7502 19.6264 28.7502 19.5805 28.8418L19.5347 28.8647C19.6264 28.8418 19.6493 28.8876 19.7181 28.8876L19.6952 28.9335C19.7869 28.8876 19.9245 28.6815 19.9474 28.7502C19.8786 28.8418 19.6722 29.048 19.741 29.048C19.6493 29.1855 19.5805 29.1396 19.5576 29.0709C19.5805 29.1626 19.4659 29.3917 19.3971 29.3687C19.3053 29.552 19.5117 29.3458 19.4888 29.4375C19.5117 29.3917 19.5576 29.3229 19.6035 29.2771C19.4659 29.5062 19.7181 29.3687 19.8328 29.2084L19.6952 29.3C19.8098 29.1167 19.9704 29.048 19.9933 28.9106C19.8328 29.2313 20.2455 28.8647 20.1309 29.1396L20.1997 28.9793C20.2685 29.1626 20.5895 28.8876 20.773 28.8876C20.6812 28.9564 20.4748 29.2771 20.4519 29.1167C20.5436 29.2542 20.2914 29.4604 20.2455 29.6437C20.2685 29.8269 20.4748 29.3687 20.5666 29.3L20.4519 29.3229C20.773 29.0022 20.6583 29.552 20.9335 29.4146C20.8876 29.5291 20.8647 29.4604 20.8417 29.4833C20.7959 29.7124 20.9335 29.4833 21.0023 29.4146C21.0481 29.4833 21.0711 29.6207 20.9105 29.8269C20.9564 29.9186 20.9793 29.6666 21.0711 29.6207L21.0481 29.6895L21.2774 29.4604C21.3004 29.5749 21.3004 29.7582 21.2087 29.9873C21.3921 30.0331 21.5526 29.4604 21.7131 29.4375C21.7131 29.5978 21.5985 29.6207 21.5526 29.7124L21.6673 29.7353C21.4838 29.9873 21.4838 29.804 21.3233 30.1248C21.5756 29.8498 21.4838 30.1018 21.6902 29.9415V29.9186C21.8507 29.7353 21.8737 29.9415 21.9654 29.9186C21.8737 30.0331 21.8049 30.0102 21.7131 30.0331C21.7361 30.1706 21.9654 30.1706 22.1718 29.9186C22.1947 29.9873 22.2176 30.1477 22.103 30.2393C22.2176 30.3538 22.3552 29.8498 22.4469 30.0102L22.3323 30.2164C22.3094 30.6058 22.7221 30.056 22.7221 30.3997L22.8597 30.1248C22.8368 30.2393 22.8597 30.3309 22.8368 30.4455L22.7221 30.5142C22.6763 30.7662 22.8826 30.3309 22.8826 30.5142C22.9285 30.4226 22.9514 30.2164 22.9744 30.1248C22.6304 30.1477 22.5387 29.6437 22.1488 29.7811C22.1488 29.8269 22.1259 29.8498 22.103 29.9186C22.103 29.8498 22.0112 29.8727 22.103 29.7353L22.1259 29.7124C22.0342 29.7353 22.1259 29.3917 22.08 29.3687C21.9654 29.5291 21.9654 29.2084 21.8507 29.5291L21.8966 29.3229C21.8278 29.4375 21.759 29.5749 21.6902 29.6207C21.6443 29.5749 21.7131 29.4604 21.8049 29.3917C21.6902 29.1855 21.4609 29.0938 21.2087 29.0709L21.3462 28.9564C21.3462 28.8647 21.0481 29.1167 21.2774 28.7731C21.094 28.8647 21.094 28.5211 20.8647 28.8876C21.0252 28.4982 20.75 28.6127 20.5895 28.5669C20.429 28.8876 20.429 28.5898 20.3143 28.7273C20.4519 28.4753 20.5666 28.544 20.6812 28.3836C20.3143 28.6815 20.4978 27.9025 20.0621 28.4753C20.0621 28.4524 20.085 28.4065 20.1079 28.4065C20.085 28.3836 20.1079 28.2691 20.1079 28.2233C20.0162 28.3149 20.0391 28.4065 19.9704 28.4065C19.9474 28.3607 20.085 28.2004 20.1079 28.1087C19.9245 28.2004 19.764 28.1545 19.5805 28.3836C19.6035 28.292 19.6493 28.1316 19.7181 28.1087C19.4429 28.2004 19.6035 27.9942 19.3741 28.0171C19.42 28.04 19.5805 27.7651 19.5805 27.9254C19.741 27.536 19.3283 27.8338 19.3283 27.5818L19.1448 27.7651C19.0531 27.7651 19.1907 27.536 19.2824 27.4902C19.2595 27.284 19.099 27.3756 19.0072 27.3069C19.0302 27.284 19.0531 27.2382 19.0531 27.2611L18.9384 27.1694C18.8926 27.2153 18.7779 27.284 18.6862 27.4443C18.755 27.3985 18.8238 27.3298 18.8467 27.4673Z" fill="#181716"/>
<path d="M18.6409 27.5129L18.6187 27.5352C18.6409 27.5129 18.6409 27.5129 18.6409 27.5129Z" fill="#181716"/>
<path d="M19.1917 29.2541C19.2146 29.1853 19.2146 29.1624 19.2146 29.1395C19.2146 29.1624 19.1917 29.2083 19.1917 29.2541Z" fill="#181716"/>
<path d="M17.1736 27.055C16.9443 27.3987 17.2882 27.055 17.2882 27.1925C17.1965 27.2154 17.0819 27.3987 17.0131 27.5132C17.38 27.1466 17.036 27.6507 17.2194 27.6507C17.1277 27.7881 17.0589 27.7652 16.9213 27.9256C17.0589 27.8568 17.2194 27.8798 17.4029 27.6507C17.5176 27.7194 17.5405 27.8798 17.6322 27.8798C17.4717 27.9256 17.4488 28.1088 17.2424 28.2692C17.5176 28.063 17.9533 27.8568 18.2972 27.5819C18.1367 27.8568 18.1138 27.8798 17.9303 28.1088C17.9533 28.3838 18.1367 27.9027 18.2055 28.063L18.1826 27.9714C18.2972 27.9256 18.4807 27.6965 18.6183 27.5361L18.4348 27.4674C18.5724 27.2841 18.6412 27.3757 18.6871 27.3528C18.8705 27.1696 18.71 27.1467 18.8476 26.9863C18.7329 27.1237 18.71 27.0321 18.6183 27.055L18.6871 26.9634C18.6871 26.803 18.4807 27.0321 18.4119 26.9863C18.4348 26.9634 18.4348 26.9405 18.4577 26.9176C18.366 27.0092 18.2514 27.1237 18.1826 27.1467H18.2284C18.022 27.3299 17.7698 27.3987 17.6781 27.6965L17.5864 27.5132C17.7927 27.2841 18.0908 26.9176 18.1826 26.9405L18.2743 26.8488C18.3202 26.6656 17.9533 26.9176 17.8386 27.1696C17.3341 27.7194 17.5864 27.0321 17.2882 27.1925C17.4029 27.0321 17.5176 27.0092 17.6093 26.9176C17.6551 26.9176 17.6781 26.9405 17.5864 27.0779C17.7927 27.0779 17.9303 26.5281 18.045 26.7114C18.0679 26.8488 17.7698 26.9176 17.8615 27.0092L18.2743 26.6197C18.1826 26.5739 18.0679 26.6197 17.9762 26.6197C17.4488 26.6885 17.4029 26.2761 17.4029 26.2761C16.8984 25.9783 16.3939 25.6804 15.8894 25.3826C15.706 25.3368 15.6601 25.2681 15.2703 25.6575C15.2244 25.7721 15.362 25.795 15.2015 25.9325C15.3391 25.7721 15.4767 25.7263 15.5225 25.8179C15.4079 25.9783 15.3849 25.8408 15.3849 25.8866V25.9095C15.3161 25.9783 15.2473 26.0241 15.2244 26.0241C15.1327 26.3219 15.3161 26.4135 15.6143 26.1386C15.5684 26.3677 15.3849 26.3448 15.2474 26.4594C15.4079 26.7801 15.5913 26.8717 15.8206 27.0779C16.0499 26.803 15.9812 26.9176 16.1646 26.7572L16.1187 26.8717C16.1417 26.803 16.3251 26.6426 16.3251 26.551C16.3022 26.8717 16.7838 26.299 16.9672 26.2532L16.8525 26.3906C16.9443 26.4135 16.9901 26.4365 17.1048 26.4136C17.036 26.7801 16.9672 26.3677 16.715 26.7572L16.8067 26.7343C16.692 26.8488 16.4627 27.1008 16.3481 27.1696C16.6462 27.0321 16.4627 27.3987 16.7379 27.307C16.6003 27.4674 16.371 27.4903 16.3251 27.4903C16.371 27.5361 16.5315 27.4903 16.4168 27.6277L16.5774 27.4216C16.6691 27.4445 16.4168 27.6048 16.3481 27.7652C16.6232 27.8339 16.9213 27.055 17.1736 27.055Z" fill="#181716"/>
<path d="M19.1 28.5666C19.0771 28.5208 19.0542 28.5208 19.0312 28.5437C19.0312 28.5437 19.0542 28.5666 19.1 28.5666Z" fill="#181716"/>
<path d="M18.4117 28.7045C18.3888 28.7274 18.3659 28.7503 18.343 28.7732C18.3888 28.7503 18.4117 28.7274 18.4117 28.7045Z" fill="#181716"/>
<path d="M18.1824 28.9562C18.2282 28.8416 18.274 28.8645 18.3656 28.75C18.2969 28.8187 18.2282 28.7729 18.1824 28.9562Z" fill="#181716"/>
<path d="M24.8781 31.1785C24.9011 31.2701 24.8552 31.4076 24.8323 31.5221C24.9469 31.6137 24.924 31.2472 25.0157 31.3617C24.9011 31.5679 25.0616 31.5221 25.1533 31.6367C25.0845 31.4076 25.0387 31.2472 24.9469 31.1785V31.3388C24.8781 31.3617 24.9011 31.2472 24.8781 31.1785Z" fill="#181716"/>
<path d="M24.3286 31.5222L24.4432 31.2931C24.4432 31.4076 24.5579 31.4306 24.5349 31.6597C24.5808 31.6367 24.6037 31.5222 24.6496 31.4535C24.6725 31.568 24.6955 31.6826 24.7413 31.4993C24.5579 31.316 24.6267 31.2702 24.4891 31.1786C24.4891 31.1327 24.512 31.1327 24.5349 31.1556C24.512 31.1098 24.4891 31.064 24.4662 31.0182C24.3974 31.3389 24.2598 31.316 24.3286 31.5222Z" fill="#181716"/>
<path d="M24.2135 31.316C24.3052 31.316 24.3739 31.1098 24.3739 30.9495C24.3052 30.9953 24.2365 31.0411 24.1677 31.1098C24.2135 31.1098 24.2823 31.0869 24.2135 31.316Z" fill="#181716"/>
<path d="M24.099 31.2931C24.099 31.1557 24.1219 30.8808 24.0073 31.1098C24.099 31.1098 23.9615 31.4306 24.099 31.2931Z" fill="#181716"/>
<path d="M23.6171 30.9266L23.7088 31.1328C23.64 31.4306 23.6171 31.2015 23.5254 31.3161C23.64 31.4077 23.6171 31.3161 23.7776 31.1557C23.8006 31.1786 23.9152 31.0411 23.984 30.9724C23.7088 31.1557 23.9152 30.4226 23.6171 30.9266Z" fill="#181716"/>
<path d="M23.8237 31.3161L23.8695 31.2015L23.7778 31.2703L23.8237 31.3161Z" fill="#181716"/>
<path d="M23.3877 30.4683C23.4335 30.1018 23.1584 30.6058 23.1125 30.4225C23.1354 30.3996 23.1354 30.3767 23.1813 30.3538H23.0896L23.1125 30.285C23.0208 30.4912 22.9061 30.537 22.8144 30.6745C22.8144 30.9265 22.9749 30.4454 22.9291 30.6974C22.8832 30.789 22.7915 30.9265 22.7456 30.9952C22.8373 30.9036 22.9061 30.789 22.9749 30.6974C23.0437 30.6974 22.9749 30.812 22.952 30.8807C23.0666 30.789 23.1813 30.4912 23.2501 30.5829C23.2501 30.789 23.1125 30.8578 23.2272 30.812C23.296 30.4683 23.3189 30.9036 23.4335 30.7203C23.4794 30.8119 23.4565 31.041 23.4106 31.1556C23.5023 30.9036 23.6399 30.6974 23.7317 30.6516C23.6629 30.7203 23.5941 30.7661 23.5253 30.8349L23.5941 30.5141C23.4794 30.6058 23.4335 30.5599 23.3877 30.4683Z" fill="#181716"/>
<path d="M22.7464 30.9725C22.7233 30.9956 22.7233 30.9956 22.7002 31.0187C22.7002 31.0187 22.7233 31.0187 22.7464 30.9725Z" fill="#181716"/>
<path d="M23.4108 31.2244L23.342 31.2931V31.3847L23.4108 31.2244Z" fill="#181716"/>
<path d="M22.5854 31.1556C22.6083 31.1785 22.6541 31.0869 22.6312 31.064L22.5396 31.1785L22.5854 31.1556Z" fill="#181716"/>
<path d="M22.6083 30.9266L22.6312 30.7433L22.5396 30.8807L22.6083 30.9266Z" fill="#181716"/>
<path d="M20.9573 29.8958C20.9573 30.0332 21.0489 29.827 21.1406 29.6896C21.0947 29.6208 21.0489 29.8728 20.9573 29.8958Z" fill="#181716"/>
<path d="M19.7876 29.5291C19.7647 29.6895 19.948 29.5291 19.9938 29.575C19.9938 29.4375 19.9022 29.4604 19.7876 29.5291Z" fill="#181716"/>
<path d="M18.9626 29.8729C19.0085 29.8271 19.0544 29.8042 19.0314 29.7583L19.3066 29.4605C19.2837 29.3002 19.0314 29.7354 18.9626 29.8729Z" fill="#181716"/>
<path d="M18.4348 29.5979L18.5953 29.5291L18.5495 29.4833C18.6641 29.3688 18.71 29.323 18.8017 29.2313C18.71 29.2771 18.5724 29.3459 18.4348 29.5979Z" fill="#181716"/>
<path d="M18.9171 29.2313C18.894 29.2313 18.894 29.2313 18.8709 29.2313C18.8709 29.2544 18.8478 29.3237 18.9171 29.2313Z" fill="#181716"/>
<path d="M18.8473 29.2083C18.8244 29.2312 18.8244 29.2312 18.8015 29.2312C18.8244 29.2312 18.8473 29.2083 18.8702 29.2083C18.8931 29.1854 18.8932 29.1625 18.8473 29.2083Z" fill="#181716"/>
<path d="M18.4807 29.3918L18.3203 29.3459V29.4376C18.4578 29.2543 18.2974 29.598 18.4807 29.3918Z" fill="#181716"/>
<path d="M17.8619 28.7503L17.9766 28.5441C17.9307 28.4525 17.5179 28.7961 17.6785 28.4296C17.6326 28.567 17.4492 28.5899 17.5179 28.7274C17.7014 28.5899 17.839 28.6587 17.8619 28.7503Z" fill="#181716"/>
<path d="M17.747 28.2462C17.7928 28.2004 17.8157 28.1546 17.8386 28.0859C17.8157 28.0401 17.724 28.1088 17.6782 28.2004C17.8844 27.9484 17.6095 28.3837 17.747 28.2462Z" fill="#181716"/>
<path d="M17.357 27.9942C17.3799 28.0171 17.4258 28.0171 17.4258 27.9484C17.334 27.9025 17.2194 28.1316 17.0818 28.2462C17.0589 28.3836 17.3111 28.1316 17.357 27.9942Z" fill="#181716"/>
<path d="M17.7922 26.1614C17.6777 26.3217 17.7464 26.3447 17.8151 26.2988C17.7693 26.3217 17.7693 26.253 17.7922 26.1614Z" fill="#181716"/>
<path d="M16.7839 27.513V27.5588L16.9901 27.3297L16.7839 27.513Z" fill="#181716"/>
<path d="M16.256 27.3297L16.0728 27.4443L16.1873 27.4901L16.256 27.3297Z" fill="#181716"/>
<path d="M16.1873 27.2153L16.0957 27.1694L16.0728 27.2611C16.0957 27.3298 16.1644 27.2153 16.1873 27.2153Z" fill="#181716"/>
<path d="M15.9575 27.1005C15.9804 27.1005 15.9575 27.1234 15.9575 27.1463L16.095 27.1005H15.9575Z" fill="#181716"/>
</g>
</g>
<path d="M56.8915 29.323C56.8915 29.323 49.1866 34.4089 34.5564 32.874C19.9261 31.362 9.69873 20.48 9.69873 20.48C9.69873 20.48 40.6332 30.583 46.6183 29.7354C52.6034 28.8877 56.8915 29.323 56.8915 29.323Z" fill="#EFEECE"/>
<mask id="mask3_94_1185" style="mask-type:luminance" maskUnits="userSpaceOnUse" x="9" y="20" width="48" height="14">
<path d="M56.8923 29.323C56.8923 29.323 49.1873 34.4089 34.5571 32.874C19.9269 31.362 9.69946 20.48 9.69946 20.48C9.69946 20.48 40.6339 30.583 46.619 29.7354C52.6041 28.8877 56.8923 29.323 56.8923 29.323Z" fill="white"/>
</mask>
<g mask="url(#mask3_94_1185)">
<g opacity="0.78">
<path d="M25.7061 28.5211L25.5916 28.544C25.6374 28.5669 25.6603 28.544 25.7061 28.5211Z" fill="#181716"/>
<path d="M26.8987 30.9951C26.9216 31.018 26.9674 31.018 27.0591 31.0409L26.8987 30.9951Z" fill="#181716"/>
<path d="M26.0505 33.149C26.0734 33.149 26.1193 33.149 26.1651 33.149C26.1193 33.149 26.0964 33.1261 26.0505 33.149Z" fill="#181716"/>
<path d="M26.0278 30.9492C26.0509 30.9492 26.074 30.9492 26.074 30.9492C26.074 30.9261 26.0509 30.9261 26.0278 30.9492Z" fill="#181716"/>
<path d="M25.3849 27.6963C25.362 27.6734 25.3391 27.6505 25.3162 27.6505C25.3162 27.6963 25.3391 27.6963 25.3849 27.6963Z" fill="#181716"/>
<path d="M26.3484 32.5072C26.6924 32.4156 26.3713 32.5988 26.7153 32.5301C26.6236 32.5072 26.5777 32.4843 26.7382 32.4156C26.9446 32.4156 26.7382 32.5072 27.0363 32.4843L26.9217 32.4385C27.0593 32.3697 27.2886 32.3927 27.2656 32.3468C26.8529 32.3697 27.3803 32.1177 27.3115 32.0719L27.3574 32.0948L27.5179 31.9574H27.5408C27.5179 31.9574 27.495 31.9574 27.472 31.9574C27.6555 31.8886 27.7931 31.7741 27.7243 31.7054C27.495 31.7054 27.6096 31.4534 27.4032 31.4534C27.472 31.4763 27.472 31.4992 27.4262 31.5679L27.151 31.6137C27.151 31.545 27.4032 31.5679 27.2198 31.5221C26.8529 31.6137 27.2427 31.6366 27.2198 31.6825C27.1281 31.6825 27.0593 31.6595 27.0134 31.6366C27.0134 31.7512 26.9217 31.8657 27.2886 31.8886C27.2198 31.9345 27.0593 31.9574 27.0134 31.9345C27.2427 31.9803 26.807 32.0261 27.0134 32.0719C26.6694 32.1177 26.807 31.9345 26.6006 31.9116C26.8529 31.7512 26.5777 31.6825 26.5089 31.5908C26.7612 31.545 26.9905 31.5679 27.1281 31.4992C27.2656 31.3617 26.9675 31.4075 26.807 31.3846C26.8758 31.293 27.2198 31.293 27.2198 31.1555L27.4032 31.2014C27.7472 31.0639 27.2427 31.1555 27.3115 31.0868C27.2198 31.1326 27.1281 31.1326 27.151 31.2014C27.0134 31.2243 26.9675 31.2014 26.9446 31.1784V31.2014C26.7612 31.2014 26.5777 31.2472 26.6465 31.1326C26.8529 31.1326 26.7841 31.041 26.8758 30.9952H26.9217C26.83 30.9494 26.8529 30.8806 26.807 30.8577H26.8529C26.7612 30.8348 26.5089 30.8806 26.5318 30.789C26.6465 30.7661 26.9446 30.789 26.8758 30.7203C27.0363 30.6974 27.0593 30.7661 27.0134 30.8348C27.0593 30.7661 27.3115 30.6744 27.3344 30.7432C27.5179 30.6744 27.2427 30.6974 27.3115 30.6286C27.2427 30.6515 27.1739 30.6515 27.1281 30.6744C27.4032 30.6057 27.1281 30.5141 26.9217 30.5599L27.0822 30.6057C26.8758 30.6515 26.7153 30.6057 26.6006 30.6515C26.9217 30.537 26.3943 30.4912 26.6694 30.3995L26.5089 30.4683C26.5777 30.285 26.1649 30.2621 26.0503 30.1246C26.1649 30.1475 26.5318 30.0788 26.4401 30.1933C26.486 30.033 26.807 30.0559 26.9675 29.9872C27.0822 29.8497 26.6006 30.0101 26.486 30.0101L26.5777 30.0788C26.1191 30.0788 26.6006 29.7581 26.3025 29.6664C26.4172 29.6206 26.3713 29.6893 26.4172 29.6893C26.6236 29.5748 26.3484 29.6435 26.2567 29.6206C26.2796 29.529 26.3484 29.4373 26.6236 29.3915C26.6694 29.2999 26.4631 29.4373 26.3713 29.4144L26.4172 29.3915H26.0961C26.1649 29.2999 26.2796 29.1853 26.5318 29.0708C26.4401 28.9333 25.9127 29.1853 25.7751 29.0937C25.8898 28.9791 25.9815 29.0479 26.0961 29.025L26.0503 28.9333C26.3484 28.8875 26.2337 29.0021 26.5777 28.9104C26.2108 28.9104 26.4401 28.8188 26.1879 28.773L26.1649 28.7959C25.9127 28.8188 26.0503 28.6584 25.9815 28.5897C26.142 28.5668 26.1649 28.6355 26.2337 28.6813C26.3255 28.5668 26.1649 28.4064 25.821 28.4522C25.8439 28.4064 25.9586 28.269 26.0961 28.2919C26.0961 28.1315 25.6375 28.3606 25.6834 28.2002L25.9127 28.1315C26.1879 27.8795 25.5229 27.9482 25.7751 27.7191L25.4999 27.8108C25.6146 27.742 25.6375 27.6504 25.7522 27.6046L25.8668 27.6275C26.0732 27.49 25.6146 27.6504 25.7522 27.5129C25.6604 27.5358 25.4999 27.6733 25.4082 27.7191C25.6834 27.9482 25.3623 28.3606 25.7292 28.5439C25.7522 28.521 25.798 28.498 25.8439 28.498C25.7751 28.5439 25.8668 28.5897 25.7292 28.6355H25.7063C25.798 28.6813 25.477 28.8646 25.477 28.9104C25.6834 28.8875 25.4311 29.0937 25.7522 28.9562L25.5687 29.0708C25.7063 29.0479 25.8439 29.0021 25.9356 29.0021C25.9127 29.0708 25.798 29.0937 25.7063 29.0937C25.6375 29.3228 25.7292 29.5519 25.8898 29.7352L25.7292 29.7122C25.6605 29.781 26.0503 29.8268 25.6375 29.8726C25.821 29.9413 25.5917 30.1704 26.0044 30.0788C25.6146 30.2392 25.8898 30.3766 25.9815 30.4912C26.3255 30.3766 26.1191 30.5828 26.2796 30.5828C26.0044 30.6744 25.9586 30.537 25.7751 30.5599C26.2337 30.6057 25.5458 31.041 26.2796 30.9494C26.2567 30.9723 26.2337 30.9723 26.1879 30.9723C26.1879 30.9952 26.0732 31.0639 26.0503 31.1097C26.1879 31.1097 26.2337 31.0181 26.2796 31.0868C26.2567 31.1555 26.0503 31.1555 25.9815 31.2014C26.1649 31.2701 26.2567 31.4305 26.5548 31.3846C26.486 31.4305 26.3255 31.4992 26.2567 31.4763C26.5089 31.5908 26.2567 31.6366 26.4172 31.7741C26.3943 31.7283 26.0961 31.797 26.2108 31.7054C25.821 31.8428 26.3255 31.9345 26.142 32.1177H26.4172C26.486 32.1865 26.2337 32.2323 26.1191 32.2094C25.9815 32.3697 26.1649 32.4156 26.1649 32.5301C26.142 32.553 26.0732 32.553 26.0961 32.5301L26.1191 32.6905C26.1879 32.6905 26.3255 32.7363 26.486 32.6905C26.3484 32.6217 26.2567 32.5988 26.3484 32.5072Z" fill="#181716"/>
<path d="M27.3802 31.0182C27.3115 31.0411 27.2886 31.064 27.2886 31.0869C27.3115 31.0411 27.3573 31.0411 27.3802 31.0182Z" fill="#181716"/>
<path d="M27.1965 33.9735C27.5864 33.9048 27.1278 33.8818 27.2195 33.8131C27.2883 33.8589 27.5176 33.8131 27.6322 33.7902C27.1048 33.7902 27.724 33.6757 27.5864 33.5382C27.7469 33.5153 27.7928 33.584 27.9762 33.5611C27.8386 33.4924 27.7469 33.3778 27.4488 33.4237C27.4259 33.2862 27.5176 33.1717 27.4488 33.1029C27.5864 33.1946 27.7469 33.08 27.9991 33.1029C27.6552 33.0571 27.2195 32.8967 26.7838 32.828C27.1048 32.7593 27.1278 32.7364 27.4259 32.7135C27.6093 32.5073 27.1278 32.7135 27.1965 32.5531L27.1507 32.6447C27.036 32.5989 26.7379 32.6447 26.5315 32.6447L26.6003 32.828C26.3939 32.8738 26.3939 32.7364 26.3252 32.7135C26.05 32.7135 26.1646 32.8509 25.9583 32.8509C26.1417 32.8509 26.0958 32.9197 26.1646 32.9655L26.05 32.9884C25.9353 33.1029 26.2334 33.08 26.2564 33.1717C26.2334 33.1946 26.2105 33.1946 26.1876 33.1946C26.3252 33.1946 26.4857 33.1946 26.5315 33.2404L26.5086 33.2175C26.8067 33.2404 26.9902 33.3778 27.2883 33.2175L27.2195 33.4237C26.9214 33.4466 26.4398 33.4924 26.3939 33.3778H26.2564C26.0958 33.4924 26.5315 33.5611 26.7838 33.4695C27.5405 33.4237 26.8526 33.7444 27.1736 33.836C26.9672 33.8818 26.8755 33.8131 26.7379 33.7902C26.715 33.7444 26.6921 33.7215 26.8755 33.6986C26.7379 33.5382 26.2564 33.836 26.2793 33.6298C26.371 33.5153 26.6233 33.6986 26.6233 33.5611L26.05 33.5382C26.0729 33.6298 26.1876 33.6986 26.2564 33.7444C26.6921 34.088 26.4169 34.4088 26.4169 34.4088C26.5545 34.9815 26.6921 35.5542 26.8296 36.1041C26.9214 36.2873 26.9214 36.3332 27.4717 36.3561C27.5864 36.3103 27.5176 36.1957 27.724 36.2186C27.5176 36.2186 27.4029 36.1728 27.4029 36.0582C27.6093 36.0353 27.5176 36.127 27.5634 36.1041L27.5864 36.0812C27.701 36.0812 27.7698 36.0812 27.7698 36.127C28.0679 35.9895 27.9762 35.7833 27.5864 35.7604C27.7928 35.6459 27.9074 35.7833 28.0679 35.8062C28.1826 35.4855 28.1367 35.2793 28.1138 34.9586C27.7698 35.0044 27.8845 34.9586 27.6322 34.9357L27.7698 34.8899C27.701 34.9128 27.4488 34.8899 27.4029 34.9815C27.6552 34.7753 26.8984 34.844 26.7379 34.7295L26.9214 34.7066C26.8755 34.615 26.8755 34.592 26.7609 34.5004C27.0819 34.2942 26.8296 34.6379 27.2883 34.5233L27.1965 34.4775C27.38 34.4775 27.6781 34.4775 27.8157 34.5004C27.4947 34.3859 27.9074 34.2713 27.6552 34.1339C27.8616 34.1339 28.045 34.2484 28.0679 34.2942C28.0909 34.2255 27.9074 34.1568 28.1138 34.1109L27.8616 34.1339C27.8157 34.0422 28.0909 34.1109 28.2514 34.0651C28.1367 33.836 27.38 34.1568 27.1965 33.9735Z" fill="#181716"/>
<path d="M26.9441 31.5681C26.9212 31.591 26.9441 31.6139 26.967 31.6368C26.9899 31.6139 26.967 31.591 26.9441 31.5681Z" fill="#181716"/>
<path d="M27.5181 31.9575C27.5639 31.9575 27.5868 31.9575 27.6097 31.9575C27.5868 31.9346 27.5639 31.9346 27.5181 31.9575Z" fill="#181716"/>
<path d="M27.885 31.9346C27.7704 31.9575 27.7704 31.9346 27.6099 31.9346C27.7016 31.9575 27.7245 32.0262 27.885 31.9346Z" fill="#181716"/>
<path d="M24.3301 24.4431C24.2843 24.5118 24.1698 24.5577 24.1927 24.6264C24.2385 24.6035 24.3072 24.5806 24.3531 24.5806C24.3531 24.5348 24.3301 24.4889 24.3301 24.4431Z" fill="#181716"/>
<path d="M24.5369 24.7867C24.5598 24.8325 24.5827 24.8783 24.6057 24.9242C24.6745 24.8325 24.7662 24.7409 24.8579 24.6722C24.7203 24.6034 24.6515 24.8554 24.5369 24.7867Z" fill="#181716"/>
<path d="M24.7201 25.1302L24.6514 25.1761C24.6972 25.1761 24.7201 25.1532 24.7201 25.1302Z" fill="#181716"/>
<path d="M24.8119 25.016C24.8807 24.9473 24.9266 24.9015 24.9954 24.8328C24.9036 24.8557 24.8349 24.8786 24.7431 24.9015L24.7661 24.9702C24.7202 25.039 24.7202 25.0848 24.6973 25.1306C24.7431 25.0848 24.789 25.0619 24.8578 25.016C24.8578 25.016 24.8119 25.0389 24.8119 25.016Z" fill="#181716"/>
<path d="M24.9265 25.0847C24.9494 25.0618 24.9494 25.0389 24.9723 25.016C24.9494 25.0389 24.9265 25.0618 24.9265 25.0847Z" fill="#181716"/>
<path d="M24.7888 25.6116C24.8346 25.52 24.9722 25.4742 25.064 25.4054C25.064 25.268 24.7888 25.52 24.8117 25.3825C25.041 25.3367 24.8805 25.2451 24.9264 25.0847C24.8117 25.2909 24.7429 25.4513 24.7429 25.5658L24.8576 25.4513C24.9034 25.4742 24.8117 25.52 24.7888 25.6116Z" fill="#181716"/>
<path d="M25.4084 25.749L25.1791 25.8177C25.2708 25.749 25.202 25.6344 25.3855 25.4969C25.3396 25.474 25.2479 25.5428 25.1791 25.5657C25.2479 25.4511 25.2937 25.3824 25.1561 25.4511C25.1561 25.7031 25.0644 25.7031 25.1103 25.8635C25.0644 25.8864 25.0644 25.8635 25.0644 25.8406C25.0415 25.8864 25.0415 25.9322 25.0186 26.001C25.2249 25.8406 25.3167 25.9322 25.4084 25.749Z" fill="#181716"/>
<path d="M25.3398 25.978C25.2939 25.9093 25.0646 26.0009 24.9729 26.1155C25.0646 26.1155 25.1334 26.1384 25.2251 26.1384C25.2022 26.1155 25.1334 26.0697 25.3398 25.978Z" fill="#181716"/>
<path d="M25.408 26.0699C25.3163 26.1616 25.1101 26.3449 25.3392 26.2761C25.2705 26.2074 25.6141 26.0699 25.408 26.0699Z" fill="#181716"/>
<path d="M25.4766 26.6882L25.5454 26.482C25.8205 26.3216 25.66 26.5049 25.8205 26.482C25.8205 26.3216 25.7517 26.4133 25.5224 26.4133C25.5224 26.3675 25.3619 26.3904 25.2473 26.3904C25.5912 26.4591 24.9033 26.8027 25.4766 26.6882Z" fill="#181716"/>
<path d="M25.6143 26.2533L25.4998 26.2991L25.6143 26.322V26.2533Z" fill="#181716"/>
<path d="M25.3166 27.1463C25.0185 27.3754 25.5688 27.215 25.4771 27.3754C25.4542 27.3754 25.4312 27.3983 25.3854 27.3983L25.4542 27.467L25.3854 27.5128C25.5918 27.4212 25.7064 27.467 25.8899 27.4441C26.0733 27.2838 25.6147 27.4899 25.8211 27.3296C25.9128 27.3067 26.0733 27.2608 26.1421 27.2608C26.0275 27.2379 25.8899 27.2838 25.7752 27.3067C25.7293 27.2608 25.844 27.2379 25.9357 27.1921C25.7981 27.1692 25.4771 27.3067 25.523 27.1921C25.6835 27.0547 25.8211 27.1005 25.7064 27.0318C25.4083 27.215 25.7064 26.9172 25.5 26.963C25.523 26.8714 25.7064 26.711 25.8211 26.6881C25.5688 26.8027 25.3395 26.8485 25.2249 26.8256C25.3166 26.8256 25.4083 26.8485 25.5 26.8485L25.2249 27.0318C25.3854 27.0318 25.3854 27.1005 25.3854 27.1692L25.3166 27.1463Z" fill="#181716"/>
<path d="M25.8435 26.6195H25.9351L26.0039 26.5508L25.8435 26.6195Z" fill="#181716"/>
<path d="M26.3712 27.2381C26.3712 27.2152 26.2795 27.2381 26.2795 27.261L26.4399 27.2381H26.3712Z" fill="#181716"/>
<path d="M26.2109 27.3983L26.0505 27.5129L26.188 27.49L26.2109 27.3983Z" fill="#181716"/>
<path d="M26.6007 29.277C26.6924 29.1854 26.486 29.2541 26.3255 29.277C26.3026 29.3916 26.5089 29.2541 26.6007 29.277Z" fill="#181716"/>
<path d="M27.1512 30.3997C27.2658 30.3081 27.0596 30.2852 27.0367 30.2164C26.945 30.3081 27.0367 30.3539 27.1512 30.3997Z" fill="#181716"/>
<path d="M27.9994 30.7433C27.9306 30.7433 27.8848 30.7204 27.8619 30.7662L27.472 30.7891C27.3574 30.9036 27.816 30.7891 27.9994 30.7433Z" fill="#181716"/>
<path d="M28.16 31.316L27.9995 31.2473V31.2931C27.8389 31.2931 27.7702 31.2931 27.6326 31.2931C27.7243 31.339 27.8848 31.3848 28.16 31.316Z" fill="#181716"/>
<path d="M27.5413 31.2244L27.5642 31.2473C27.61 31.2244 27.6787 31.2244 27.5413 31.2244Z" fill="#181716"/>
<path d="M27.5871 31.2931C27.61 31.2931 27.61 31.2931 27.6329 31.2931C27.61 31.2702 27.5871 31.2702 27.5642 31.2473C27.5413 31.2702 27.5183 31.2702 27.5871 31.2931Z" fill="#181716"/>
<path d="M27.9763 31.4075L28.045 31.5679L28.1138 31.4991C27.8847 31.522 28.2512 31.3846 27.9763 31.4075Z" fill="#181716"/>
<path d="M27.931 32.3009L27.7017 32.3467C27.6788 32.4613 28.1833 32.5071 27.8393 32.6216C27.9769 32.5529 28.1145 32.6675 28.1603 32.53C27.9539 32.53 27.8851 32.3925 27.931 32.3009Z" fill="#181716"/>
<path d="M27.655 32.7365C27.5863 32.7365 27.5404 32.7594 27.4717 32.7823C27.4488 32.8281 27.5634 32.851 27.655 32.8052C27.3572 32.851 27.8612 32.7594 27.655 32.7365Z" fill="#181716"/>
<path d="M27.7477 33.2174C27.7477 33.1945 27.7019 33.1487 27.656 33.1945C27.6789 33.2861 27.9541 33.2174 28.1146 33.2403C28.2522 33.1487 27.8624 33.1258 27.7477 33.2174Z" fill="#181716"/>
</g>
</g>
<path d="M26.6914 37.6849C26.6914 37.6849 20.1559 37.6849 19.6056 37.6849C19.2845 37.6849 18.5278 32.9884 17.9545 29.0938C17.5418 26.3447 17.2437 24.0079 17.2437 24.0079C17.2437 24.0079 19.3533 24.6952 21.3254 25.6345C22.9536 26.4134 25.8888 28.1087 25.8888 28.1087L26.6914 37.6849Z" fill="#7DA050"/>
<path d="M19.6056 37.6849C19.2845 37.6849 18.5278 32.9884 17.9545 29.0938C17.5418 26.3447 17.2437 24.0079 17.2437 24.0079" stroke="#1B1C1E" stroke-miterlimit="10"/>
<path d="M19.0088 35.9435C19.0088 35.9435 20.2012 34.1337 21.4166 37.6617C21.4166 37.6617 20.6598 35.5082 22.1963 35.4853C23.297 35.4624 24.0766 37.6846 24.0766 37.6846" stroke="#1B1C1E" stroke-miterlimit="10"/>
<path d="M56.8915 29.3229C56.8915 29.3229 58.5196 36.4248 58.4508 37.6619H51.8924C51.8924 37.6619 51.2503 36.0583 50.2643 34.2713C49.5993 33.0571 48.7737 31.7513 47.9023 30.7891C47.9253 30.7891 53.6352 29.3 56.8915 29.3229Z" fill="#7DA050"/>
<path d="M51.9158 37.662C51.9158 37.662 51.2738 36.0584 50.2877 34.2714C49.6227 33.0572 48.7972 31.7514 47.9258 30.7892" stroke="#1B1C1E" stroke-miterlimit="10"/>
<path d="M54.2092 29.9642C54.2092 29.9642 56.0437 32.3926 58.0617 34.8439" stroke="#1B1C1E" stroke-miterlimit="10"/>
<path d="M51.4567 36.6308C51.4567 36.6308 51.2962 35.4624 52.2364 35.6686C53.0848 35.8519 53.681 37.6847 53.681 37.6847C53.681 37.6847 52.6491 35.325 54.2314 35.4854C55.1945 35.5999 55.7449 37.6847 55.7449 37.6847" stroke="#1B1C1E" stroke-miterlimit="10"/>
<path d="M56.8915 29.3229C56.8915 29.3229 32.2403 36.7227 9.72168 20.5028C9.72168 20.5028 9.81341 19.953 10.0886 19.0824C10.295 19.2199 22.9072 27.5589 36.8724 28.9335C50.6313 30.2851 56.3183 27.8567 56.4558 27.8109C56.6164 28.3149 56.7769 28.8189 56.8915 29.3229Z" fill="#93543B"/>
<path d="M56.4561 27.7879C56.3185 27.8566 50.6316 30.2621 36.8727 28.9105C22.9075 27.5359 10.2952 19.1969 10.0889 19.0594C11.2584 15.3023 15.6383 5.45122 29.6723 6.02396C44.5547 6.66542 53.4063 18.1201 56.4561 27.7879Z" fill="#A1683D"/>
<path d="M26.6904 6.09277C26.6904 6.09277 27.8141 9.71247 28.2268 10.2394C28.4332 10.4914 34.3495 14.6151 34.3495 14.6151C34.3495 14.6151 42.3296 15.2565 42.6277 15.3253C43.201 15.4627 47.0764 13.1489 47.0764 13.1489" stroke="#1B1C1E" stroke-miterlimit="10"/>
<path d="M28.2272 10.2164C28.2272 10.2164 24.7646 11.6597 21.4395 15.3023L15.4086 14.0194L14.2849 11.7285" stroke="#1B1C1E" stroke-miterlimit="10"/>
<path d="M34.3501 14.5919C34.3501 14.5919 32.9284 18.3032 32.1716 21.0524" stroke="#1B1C1E" stroke-miterlimit="10"/>
<path d="M21.4399 15.3022L25.3153 20.5027L32.1718 21.0525L38.9137 24.9929L45.0363 22.3354C44.5548 19.3343 42.6056 15.3022 42.6056 15.3022" stroke="#1B1C1E" stroke-miterlimit="10"/>
<path d="M45.0356 22.3354L52.5342 23.2747L53.6578 21.3961" stroke="#1B1C1E" stroke-miterlimit="10"/>
<path d="M25.2923 20.5026C25.2923 20.5026 23.4119 23.5953 22.8845 25.4739" stroke="#1B1C1E" stroke-miterlimit="10"/>
<path d="M38.9133 24.9701C38.9133 24.9701 38.9133 27.3069 38.9133 29.0938" stroke="#1B1C1E" stroke-miterlimit="10"/>
<path d="M52.5347 23.2748C52.5347 23.2748 54.0711 26.9632 54.4838 28.3836" stroke="#1B1C1E" stroke-miterlimit="10"/>
<path d="M15.3864 14.0194C15.3864 14.0194 13.4143 16.8831 12.1531 20.3195" stroke="#1B1C1E" stroke-miterlimit="10"/>
<path d="M10.0889 19.0594C10.2952 19.1969 22.9075 27.5359 36.8727 28.9105C50.6316 30.2622 56.3185 27.8338 56.4561 27.7879" stroke="#1B1C1E" stroke-miterlimit="10"/>
<path d="M6.69458 12.0261C6.69458 12.0261 6.69458 12.9654 7.63476 13.08" stroke="#1B1C1E" stroke-miterlimit="10"/>
</g>
<defs>
<clipPath id="clip0_94_1185">
<rect width="60" height="45" fill="white"/>
</clipPath>
</defs>
</svg>
