<svg width="337" height="182" viewBox="0 0 337 182" fill="none" xmlns="http://www.w3.org/2000/svg">
<path d="M335.805 178.591C335.805 178.591 340.043 180.002 309.095 181.028C278.146 182.055 114.8 182.568 98.1062 181.028C81.2836 179.489 48.5373 180.387 92.0706 176.666C135.604 172.946 180.036 172.304 223.826 172.946C270.57 173.587 330.027 177.051 335.805 178.591Z" fill="#1B1C1E"/>
<path d="M71.9073 41.9578C71.9073 41.9578 58.8088 37.9807 48.7923 23.6118C36.0791 5.26579 8.34107 10.7824 1.92024 16.1708C-8.60993 25.023 26.3194 65.9487 54.3142 81.344C54.4427 81.2157 71.2653 57.7379 71.9073 41.9578Z" fill="#7DA050"/>
<path d="M27.4751 27.4606C29.39 27.4606 30.9423 25.9097 30.9423 23.9966C30.9423 22.0836 29.39 20.5327 27.4751 20.5327C25.5601 20.5327 24.0078 22.0836 24.0078 23.9966C24.0078 25.9097 25.5601 27.4606 27.4751 27.4606Z" fill="#1B1C1E"/>
<path d="M8.34229 38.7507C8.34229 38.7507 23.7523 41.1883 39.4191 37.8527" stroke="#1B1C1E" stroke-miterlimit="10"/>
<mask id="mask0_119_846" style="mask-type:luminance" maskUnits="userSpaceOnUse" x="0" y="10" width="72" height="72">
<path d="M71.9073 41.9578C71.9073 41.9578 58.8088 37.9807 48.7923 23.6118C36.0791 5.26579 8.34107 10.7824 1.92024 16.1708C-8.60993 25.023 26.3194 65.9487 54.3142 81.344C54.4427 81.2157 71.2653 57.7379 71.9073 41.9578Z" fill="white"/>
</mask>
<g mask="url(#mask0_119_846)">
<g opacity="0.78">
<path d="M44.2944 75.6993C44.4227 75.6993 44.4227 75.571 44.551 75.4427C44.4227 75.4427 44.2944 75.571 44.2944 75.6993Z" fill="#181716"/>
<path d="M35.0517 70.4392L34.7952 70.6958C35.0518 70.5675 35.0517 70.5675 35.0517 70.4392Z" fill="#181716"/>
<path d="M46.0962 74.0316C46.2245 74.0316 46.3528 73.9033 46.4811 73.775L46.0962 74.0316Z" fill="#181716"/>
<path d="M53.6733 79.9331C53.6733 79.9331 53.8016 79.9331 53.8016 80.0614V79.9331H53.6733Z" fill="#181716"/>
<path d="M59.4512 77.3673L59.5795 76.9824C59.4512 77.1107 59.4512 77.239 59.4512 77.3673Z" fill="#181716"/>
<path d="M52.3887 80.5746C52.517 80.5746 52.517 80.4463 52.6453 80.318C52.517 80.4463 52.3887 80.4463 52.3887 80.5746Z" fill="#181716"/>
<path d="M31.5843 68.3867C31.4561 68.3867 31.3278 68.3867 31.1995 68.3867C31.4561 68.6433 31.4561 68.6433 31.5843 68.3867Z" fill="#181716"/>
<path d="M50.46 78.5219C50.7168 77.4955 50.8453 78.6502 51.2305 77.6238C50.9737 77.7521 50.7168 77.8804 50.8453 77.3672C51.2305 76.854 51.2305 77.6238 51.6158 76.854L51.2305 77.1106C51.2305 76.5975 51.7442 76.0843 51.4873 76.0843C50.8453 77.1106 50.8453 75.3145 50.5884 75.4428L50.7169 75.3145L50.5884 74.673C50.5884 74.673 50.5884 74.8013 50.46 74.9296C50.5884 74.2882 50.46 73.775 50.0748 73.775C49.6895 74.2882 48.919 73.5184 48.6622 74.0316C48.919 73.9033 48.919 74.0316 49.0474 74.1599L48.6622 74.9296C48.4053 74.8013 48.919 74.2882 48.4054 74.5448C48.0201 75.5711 48.7906 74.673 49.0474 74.9296C48.919 75.1862 48.6622 75.3145 48.5338 75.3145C48.919 75.5711 49.1758 76.0843 49.9464 75.1862C49.9464 75.4428 49.6895 75.8277 49.5611 75.956C50.0748 75.4428 49.5611 76.5974 50.0748 76.2126C49.5611 77.1106 49.1759 76.4692 48.7906 76.854C48.6622 75.956 47.8917 76.4692 47.378 76.3409C47.6348 75.6994 48.2769 75.1862 48.2769 74.673C48.0201 74.0316 47.6348 74.8014 47.2496 75.1862C46.9928 74.8014 47.7633 74.0316 47.2496 73.775L47.7633 73.3901C47.8917 72.2355 47.378 73.6467 47.2496 73.3901C47.2496 73.6467 47.1212 73.9033 47.378 74.0316C47.2496 74.4165 46.9928 74.4165 46.8644 74.4165C46.6075 74.8013 46.3507 75.3145 46.0938 74.9296C46.6075 74.4165 46.0938 74.4165 46.0938 74.0316L46.2223 73.9033C45.9654 74.0316 45.7086 73.775 45.5802 73.9033L45.7086 73.775C45.4518 73.9033 45.0665 74.673 44.9381 74.2882C45.0665 74.0316 45.7086 73.3901 45.4518 73.3901C45.7086 73.0052 45.9654 73.1335 46.2223 73.3901C46.0939 73.1335 46.2223 72.3638 46.6075 72.4921C46.7359 71.8506 46.2223 72.6204 46.2223 72.2355C46.2223 72.3638 46.0938 72.6203 45.9654 72.7486C46.3507 71.9789 45.4518 72.3638 45.1949 72.8769L45.7086 72.6204C45.4518 73.2618 44.9381 73.3901 44.9381 73.775C45.1949 72.7486 43.9108 73.9033 44.1676 73.0052L44.0392 73.5184C43.5255 73.0052 42.4982 73.775 41.8561 73.775C42.2413 73.6467 42.755 72.6204 42.8834 73.1335C42.3698 72.6204 43.1403 72.1072 43.2687 71.4657C43.0119 70.8242 42.6266 72.2355 42.2413 72.4921H42.6266C41.5993 73.5184 41.5993 71.7223 40.7004 72.1072C40.8288 71.7223 40.9572 71.9789 41.0856 71.9789C41.0856 71.2091 40.7004 71.9789 40.4435 72.1072C40.1867 71.8506 40.0583 71.4657 40.5719 70.8242C40.3151 70.4394 40.4435 71.3374 40.0583 71.4657V71.2091L39.2878 71.8506C39.1593 71.4657 39.0309 70.9525 39.2878 70.1828C38.6457 70.0545 38.2604 71.7223 37.6183 71.7223C37.6183 71.2091 38.0036 71.2091 38.132 70.9525L37.7468 70.8242C38.2604 70.0545 38.3888 70.6959 38.9025 69.6696C38.0036 70.4394 38.2604 69.6696 37.4899 70.0545V70.1828C36.9763 70.6959 36.7194 70.0545 36.3342 70.0545C36.7194 69.6696 36.9763 69.7979 37.2331 69.7979C37.1047 69.2847 36.2058 69.2847 35.4353 69.9262C35.3068 69.6696 35.1784 69.1564 35.5637 68.8998C35.05 68.3867 34.6648 69.9262 34.2795 69.413L34.6648 68.7715C34.6648 67.4886 33.1238 68.8998 33.1238 67.7452L32.6101 68.5149C32.7385 68.1301 32.6101 67.8735 32.7385 67.4886L33.1238 67.3603C33.2522 66.5905 32.4817 67.7452 32.4817 67.232C32.3533 67.4886 32.2249 68.1301 32.0964 68.3867C33.509 68.6432 34.0227 70.4394 35.5637 70.3111C35.5637 70.1828 35.5637 70.0545 35.6921 69.9262C35.6921 70.1828 36.0773 70.0545 35.8205 70.4393H35.6921C36.0773 70.4393 35.8205 71.4657 36.0773 71.594C36.4626 71.0808 36.591 72.1072 36.9763 71.2091L36.8478 71.8506C37.1047 71.594 37.2331 71.0808 37.4899 70.9525C37.6184 71.0808 37.4899 71.4657 37.2331 71.594C37.8752 72.3638 38.9025 72.7486 39.8014 72.8769L39.4162 73.1335C39.5446 73.3901 40.5719 72.7486 39.8014 73.775C40.4435 73.5184 40.8288 74.6731 41.3424 73.5184C41.0856 74.8013 42.1129 74.5448 42.755 74.5448C43.1403 73.5184 43.3971 74.5448 43.7823 74.0316C43.5255 74.8013 42.8834 74.5448 42.6266 75.0579C43.7824 74.1599 43.9108 76.7258 45.0665 74.8013C45.0665 74.9296 45.0665 74.9296 45.0665 75.0579C45.1949 75.0579 45.1949 75.5711 45.1949 75.6994C45.4518 75.4428 45.1949 75.0579 45.5802 75.0579C45.7086 75.1862 45.4518 75.6994 45.3233 76.0843C45.9654 75.8277 46.7359 75.956 47.1212 75.1862C47.1212 75.4428 47.1212 75.956 46.8644 76.0843C47.7633 75.6994 47.5064 76.4692 48.2769 76.3409C48.0201 76.2126 47.7633 77.1106 47.6348 76.5975C47.378 77.8804 48.7906 76.854 49.0474 77.6238L49.5611 76.9823C49.9463 76.9823 49.6895 77.7521 49.3043 77.8804C49.6895 78.5219 50.2032 78.2653 50.5884 78.3936C50.5884 78.5219 50.46 78.6502 50.46 78.5219L51.1021 78.7784C51.2305 78.6502 51.6158 78.3936 51.7442 77.8804C50.9737 78.7784 50.7168 79.035 50.46 78.5219Z" fill="#181716"/>
<path d="M46.9961 72.877C46.9961 73.1335 46.9961 73.1335 46.9961 73.2618C47.1244 73.1335 47.1244 73.0052 46.9961 72.877Z" fill="#181716"/>
<path d="M57.5245 79.2916C57.9098 78.1369 57.1393 79.2916 56.8825 78.9067C57.1393 78.7784 57.3961 78.1369 57.5245 77.752C56.6256 79.035 57.2677 77.3672 56.4972 77.3672C56.6256 76.854 57.0109 76.9823 57.1393 76.4691C56.6256 76.7257 56.112 76.7257 55.7267 77.4954C55.213 77.2388 54.9562 76.854 54.571 76.854C55.0846 76.7257 54.9562 76.0842 55.4699 75.4427C54.6994 76.2125 53.4152 76.9823 52.3879 78.0086C52.6447 77.1106 52.6447 76.9823 53.03 76.2125C52.6447 75.3144 52.5163 76.9823 52.0026 76.4691L52.2595 76.7257C51.8742 76.854 51.489 77.752 51.2321 78.2652L52.0026 78.3935C51.7458 79.035 51.3605 78.7784 51.1037 78.7784C50.59 79.4198 51.2321 79.4198 50.9753 80.0613C51.2321 79.6764 51.489 79.933 51.7458 79.8047L51.6174 80.1896C51.8742 80.7028 52.3879 79.933 52.6447 80.0613C52.6447 80.1896 52.6447 80.1896 52.6447 80.3179C52.9016 79.933 53.1584 79.5481 53.4152 79.5481H53.2868C53.8005 78.9067 54.6994 78.6501 54.571 77.6237L55.2131 78.1369C54.8278 78.9067 54.1857 80.1896 53.672 80.1896L53.5436 80.5745C53.6721 81.216 54.6994 80.3179 54.8278 79.4198C55.9836 77.4954 55.9835 79.8047 56.8825 79.1633C56.754 79.8047 56.3688 79.8047 55.9835 80.1896C55.8551 80.1896 55.7267 80.1896 55.8551 79.6764C55.0846 79.6764 55.3415 81.4726 54.571 80.9594C54.3141 80.5745 55.3415 80.1896 54.8278 79.933L53.8005 81.3443C54.1857 81.4725 54.571 81.3443 54.9562 81.216C56.8825 80.8311 57.7814 82.114 57.7814 82.114C60.2213 82.7555 62.6612 83.397 65.1011 84.0384C65.8716 84.0384 66.1285 84.1667 66.899 82.7555C66.899 82.3706 66.3853 82.3706 66.6421 81.8574C66.3853 82.3706 66 82.6272 65.6148 82.4989C65.7432 81.8574 66.0001 82.3706 66.0001 82.114C66.1285 81.8574 66.2569 81.6008 66.3853 81.7291C66.2569 80.7028 65.358 80.7028 64.7159 81.6009C64.5875 80.9594 65.2295 80.8311 65.6148 80.4462C64.5875 79.5481 63.6885 79.4199 62.4044 78.9067C62.0191 79.933 62.0191 79.5481 61.6339 80.1896V79.8047C61.6339 80.0613 61.2486 80.5745 61.377 80.9594C60.9918 79.933 60.0929 81.9857 59.4508 82.2423L59.7076 81.7291C59.3224 81.7291 59.194 81.6008 58.6803 81.8574C58.4235 80.7028 59.3224 81.8574 59.5792 80.5745L59.3224 80.7028C59.5792 80.1896 60.0929 79.4198 60.3497 79.1633C59.4508 79.8047 59.5792 78.5218 58.6803 78.9067C58.9371 78.3935 59.7076 78.1369 59.9645 78.1369C59.7076 78.0086 59.194 78.2652 59.3224 77.752L59.0656 78.5218C58.6803 78.5218 59.3224 77.8803 59.4508 77.3672C58.5519 76.5974 58.5519 79.1633 57.5245 79.2916Z" fill="#181716"/>
<path d="M48.1499 75.0579C48.2782 75.1862 48.4065 75.1862 48.4065 75.1862C48.4065 75.1862 48.2782 75.0579 48.1499 75.0579Z" fill="#181716"/>
<path d="M50.5891 74.5448C50.5891 74.4165 50.7174 74.4165 50.7174 74.2882C50.7174 74.2882 50.5891 74.4165 50.5891 74.5448Z" fill="#181716"/>
<path d="M51.2307 73.6466C51.1024 74.0315 50.9741 73.9032 50.7175 74.2881C50.9741 74.1598 51.2307 74.2881 51.2307 73.6466Z" fill="#181716"/>
<path d="M24.1356 57.8666C23.879 57.9949 23.6224 57.9949 23.4941 58.1232L24.0073 58.2514L24.1356 57.8666Z" fill="#181716"/>
<path d="M24.1367 59.0212V59.5344L25.0348 58.8929C24.7782 58.6363 24.3933 59.2778 24.1367 59.0212Z" fill="#181716"/>
<path d="M24.519 60.1758L24.2625 60.3041C24.3907 60.1758 24.3907 60.1758 24.519 60.1758Z" fill="#181716"/>
<path d="M24.7757 59.791L25.4172 59.2778L24.6475 59.4061V59.6627C24.5192 59.9193 24.5192 60.0476 24.3909 60.1759L24.904 59.9193C24.904 59.9193 24.7757 59.9193 24.7757 59.791Z" fill="#181716"/>
<path d="M25.0364 60.0475C25.0364 59.9192 25.1647 59.9192 25.1647 59.9192C25.1647 59.9192 25.1647 60.0475 25.0364 60.0475Z" fill="#181716"/>
<path d="M24.7765 61.7154C24.9048 61.4588 25.2897 61.2023 25.5463 61.074C25.418 60.5608 24.7765 61.4588 24.6482 60.9457C25.418 60.8174 24.7765 60.4325 25.0331 60.0476C24.6482 60.6891 24.3917 61.074 24.5199 61.5871L24.9048 61.2022C25.1614 61.3305 24.9048 61.4588 24.7765 61.7154Z" fill="#181716"/>
<path d="M27.0903 62.1002L26.4488 62.4851C26.5771 62.2285 26.1923 61.8436 26.7054 61.3305C26.4488 61.3305 26.3205 61.587 26.064 61.587C26.1923 61.2022 26.3205 60.9456 25.8074 61.2022C26.064 61.9719 25.8074 61.9719 26.064 62.6134C25.9357 62.7417 25.9357 62.6134 25.8074 62.6134L25.9357 63.1266C26.7054 62.4851 27.0903 62.7417 27.0903 62.1002Z" fill="#181716"/>
<path d="M27.2165 62.8701C26.96 62.7418 26.3185 63.1267 26.1902 63.6399H27.0882C26.9599 63.5116 26.7034 63.3833 27.2165 62.8701Z" fill="#181716"/>
<path d="M27.6021 63.2549C27.4738 63.6398 27.2172 64.4095 27.7303 64.0246C27.4737 63.7681 28.2435 62.9983 27.6021 63.2549Z" fill="#181716"/>
<path d="M29.145 65.1792L28.8882 64.4094C29.2734 63.6397 29.2734 64.2811 29.6587 64.1529C29.2734 63.6397 29.2734 64.0246 28.6313 64.2812C28.5029 64.1529 27.9893 64.4094 27.7324 64.5377C28.8882 64.2811 27.604 66.2056 29.145 65.1792Z" fill="#181716"/>
<path d="M28.6316 63.6399L28.375 63.8965H28.7599L28.6316 63.6399Z" fill="#181716"/>
<path d="M29.7878 66.8471C29.531 68.0018 30.8152 66.7188 30.8152 67.3603C30.6868 67.3603 30.6867 67.4886 30.5583 67.4886L30.9436 67.6169L30.8152 67.8735C31.2004 67.3603 31.5857 67.232 32.0993 66.9754C32.0993 66.2057 31.4573 67.6169 31.5857 66.7188C31.8425 66.4623 32.0993 66.2057 32.3562 65.9491C31.9709 66.0774 31.7141 66.4623 31.4573 66.7188C31.2004 66.5906 31.4573 66.334 31.5857 66.2057C31.2004 66.334 30.5583 67.232 30.4299 66.7188C30.5583 66.0774 31.072 66.0774 30.5583 65.9491C30.1731 66.9754 30.3015 65.5642 29.7878 65.9491C29.6594 65.5642 29.7878 64.9227 30.0447 64.6661C29.531 65.3076 28.8889 65.6925 28.6321 65.8208L29.531 65.5642L29.1458 66.4623C29.531 66.334 29.6594 66.5906 29.7878 66.8471Z" fill="#181716"/>
<path d="M32.3564 65.9491C32.4847 65.9491 32.4847 65.9491 32.613 65.8208C32.613 65.8208 32.4847 65.9491 32.3564 65.9491Z" fill="#181716"/>
<path d="M30.043 64.4094H30.2996L30.4279 64.1528L30.043 64.4094Z" fill="#181716"/>
<path d="M32.9963 65.5642C32.9963 65.5642 32.7397 65.6925 32.868 65.8208L33.2528 65.5642H32.9963Z" fill="#181716"/>
<path d="M32.9957 66.3339L32.8674 66.847L33.2523 66.5904L32.9957 66.3339Z" fill="#181716"/>
<path d="M39.6722 70.5677C39.5439 70.1828 39.2873 70.696 39.0308 71.2092C39.2873 71.4658 39.2873 70.696 39.6722 70.5677Z" fill="#181716"/>
<path d="M44.5559 71.9788C44.4276 71.4656 43.9144 71.9788 43.7861 71.8505C43.7861 72.2353 44.171 72.2354 44.5559 71.9788Z" fill="#181716"/>
<path d="M47.38 70.9526C47.2517 71.0809 47.1234 71.2092 47.2517 71.3375L46.4819 72.2356C46.6102 72.7487 47.1234 71.3375 47.38 70.9526Z" fill="#181716"/>
<path d="M49.5616 71.7223L49.0485 71.9789L49.1767 72.1072C48.9201 72.4921 48.7919 72.6203 48.407 73.0052C48.9202 72.7486 49.305 72.4921 49.5616 71.7223Z" fill="#181716"/>
<path d="M48.1499 73.0054H48.2782C48.2782 72.7488 48.2782 72.6205 48.1499 73.0054Z" fill="#181716"/>
<path d="M48.4096 73.0051C48.4096 72.8768 48.2813 73.0051 48.2813 73.0051C48.2812 73.0051 48.2813 73.1334 48.4096 73.0051Z" fill="#181716"/>
<path d="M49.5637 72.3638L50.2052 72.4921L50.0769 72.2356C49.8203 72.7487 50.0769 71.5941 49.5637 72.3638Z" fill="#181716"/>
<path d="M52.6455 74.2881L52.3887 74.9295C52.7739 75.1861 53.8013 74.0315 53.5444 75.1861C53.5444 74.673 54.1865 74.5447 53.8013 74.1598C53.416 74.673 52.9024 74.5447 52.6455 74.2881Z" fill="#181716"/>
<path d="M53.6732 75.8278C53.5449 75.956 53.5449 76.2126 53.5449 76.3409C53.6732 76.4692 53.9298 76.2126 53.9298 75.956C53.5449 76.7258 54.0581 75.3146 53.6732 75.8278Z" fill="#181716"/>
<path d="M55.5979 76.4691C55.4696 76.4691 55.3413 76.4691 55.3413 76.7257C55.7262 76.854 55.8545 76.0842 56.2394 75.6994C56.1111 75.0579 55.4696 75.956 55.5979 76.4691Z" fill="#181716"/>
<path d="M58.2965 77.6239V77.4956L57.9116 78.2654L58.2965 77.6239Z" fill="#181716"/>
<path d="M60.6077 78.0088L61.1208 77.4956H60.6077V78.0088Z" fill="#181716"/>
<path d="M60.9905 78.2651L61.3753 78.3934V78.1368C61.2471 77.8802 61.1188 78.2651 60.9905 78.2651Z" fill="#181716"/>
<path d="M62.1466 78.5218V78.3936L61.7617 78.6501L62.1466 78.5218Z" fill="#181716"/>
</g>
</g>
<path d="M266.457 145.748C263.246 152.162 263.503 177.436 263.503 177.436H307.55L276.345 139.205C276.345 139.205 268.254 142.155 266.457 145.748Z" fill="#7DA050"/>
<mask id="mask1_119_846" style="mask-type:luminance" maskUnits="userSpaceOnUse" x="263" y="139" width="45" height="39">
<path d="M266.465 145.748C263.254 152.162 263.511 177.436 263.511 177.436H307.558L276.353 139.205C276.353 139.205 268.263 142.155 266.465 145.748Z" fill="white"/>
</mask>
<g mask="url(#mask1_119_846)">
<g opacity="0.78">
<path d="M284.446 161.656C284.317 161.656 284.061 161.784 283.932 161.784C283.932 161.784 284.189 161.784 284.446 161.656Z" fill="#181716"/>
<path d="M291.891 173.074L292.405 172.689C292.148 172.818 292.02 172.946 291.891 173.074Z" fill="#181716"/>
<path d="M280.203 163.067C279.947 163.067 279.69 163.067 279.305 163.195L280.203 163.067Z" fill="#181716"/>
<path d="M278.791 165.761C278.663 165.89 278.663 165.89 278.534 166.018C278.663 165.89 278.791 165.89 278.791 165.761Z" fill="#181716"/>
<path d="M278.923 150.366C279.051 150.366 279.051 150.366 279.179 150.238C279.179 150.366 279.051 150.366 278.923 150.366Z" fill="#181716"/>
<path d="M277.508 150.238C277.508 150.11 277.508 150.11 277.38 150.11L277.251 150.238C277.123 150.238 277.38 150.238 277.508 150.238Z" fill="#181716"/>
<path d="M267.109 149.725L266.596 149.981C266.853 149.853 266.981 149.725 267.109 149.725Z" fill="#181716"/>
<path d="M279.819 150.11C279.69 150.11 279.434 150.238 279.305 150.238C279.434 150.366 279.562 150.366 279.819 150.11Z" fill="#181716"/>
<path d="M284.7 161.399C284.572 161.399 284.572 161.527 284.443 161.527C284.572 161.527 284.7 161.527 284.7 161.399Z" fill="#181716"/>
<path d="M295.359 176.795C295.488 176.795 295.616 176.923 295.744 176.923C295.744 176.538 295.488 176.538 295.359 176.795Z" fill="#181716"/>
<path d="M279.693 154.087C278.152 155.241 279.308 153.702 277.767 154.728C278.281 154.728 278.666 154.728 277.895 155.37C276.868 155.754 277.639 154.856 276.226 155.626H276.997C276.483 156.268 275.199 156.653 275.456 156.781C277.51 155.883 275.327 158.192 275.841 158.32H275.584L275.07 159.347C275.07 159.347 274.942 159.347 274.942 159.475C275.07 159.347 275.199 159.347 275.327 159.218C274.557 159.988 274.171 160.758 274.557 161.015C275.712 160.501 275.712 162.041 276.74 161.528C276.355 161.528 276.226 161.399 276.354 161.015L277.639 160.245C277.895 160.63 276.483 161.014 277.51 160.886C279.18 159.603 277.125 160.373 277.125 159.988C277.639 159.86 278.024 159.732 278.281 159.732C278.024 159.218 278.281 158.32 276.354 159.09C276.611 158.705 277.382 158.32 277.639 158.32C276.354 158.577 278.409 157.422 277.253 157.679C278.923 156.781 278.538 157.935 279.693 157.551C278.794 158.834 280.335 158.705 280.977 159.09C279.822 159.86 278.538 160.245 278.024 160.886C277.639 161.913 279.051 161.015 279.822 160.758C279.693 161.399 277.895 162.169 278.281 162.811L277.253 162.939C275.841 164.478 278.152 162.811 278.024 163.324C278.409 162.939 278.794 162.682 278.538 162.426C279.18 161.913 279.565 162.041 279.693 162.041V161.913C280.592 161.528 281.491 160.886 281.363 161.528C280.207 162.041 280.849 162.297 280.464 162.682H280.207C280.721 162.682 280.721 163.067 281.106 163.196L280.849 163.324C281.363 163.195 282.647 162.426 282.519 162.939C282.005 163.196 280.464 163.837 280.849 163.965C280.079 164.478 279.822 164.094 279.822 163.58C279.822 164.094 278.666 165.12 278.409 164.735C277.51 165.505 279.051 164.735 278.794 165.248C279.051 164.992 279.436 164.863 279.693 164.607C278.409 165.505 280.079 165.376 280.977 164.735L280.079 164.863C281.106 164.094 282.005 164.094 282.519 163.58C281.106 164.863 283.931 163.965 282.775 165.12L283.546 164.35C283.546 165.377 285.857 164.735 286.756 165.12C286.114 165.248 284.316 166.531 284.573 165.633C284.702 166.531 283.032 167.044 282.39 167.942C282.133 168.969 284.188 167.044 284.83 166.788L284.316 166.659C286.628 165.633 284.958 168.327 286.628 168.071C286.114 168.456 286.243 168.199 285.986 168.199C285.215 169.354 286.371 168.327 287.013 168.199C287.142 168.712 287.013 169.354 285.6 170.123C285.6 170.765 286.371 169.482 286.885 169.354L286.628 169.61L288.297 168.969C288.169 169.61 287.784 170.508 286.756 171.535C287.527 172.048 289.71 169.61 290.609 169.738C290.223 170.508 289.71 170.38 289.196 170.765L289.71 171.15C288.297 172.048 288.554 171.15 287.013 172.433C288.939 171.535 287.912 172.561 289.325 172.304L289.453 172.176C290.737 171.535 290.352 172.689 290.866 172.818C290.095 173.202 289.838 172.946 289.325 172.946C289.068 173.716 290.352 174.1 291.893 173.202C291.893 173.587 291.636 174.485 290.866 174.614C291.251 175.512 293.049 173.202 293.177 174.1L292.15 174.999C291.251 176.923 294.59 174.999 293.819 176.795L295.103 175.64C294.718 176.281 294.718 176.666 294.333 177.18L293.691 177.308C292.92 178.462 294.975 176.666 294.461 177.693C294.846 177.308 295.36 176.281 295.745 175.897C293.948 175.383 294.59 172.561 292.15 172.304C292.021 172.433 291.893 172.689 291.636 172.818C291.765 172.433 291.251 172.433 292.021 171.919H292.15C291.508 171.791 292.92 170.252 292.663 169.995C291.636 170.637 292.407 168.969 291.122 170.38L291.893 169.354C291.251 169.738 290.609 170.38 290.224 170.508C290.095 170.123 290.737 169.738 291.251 169.61C291.122 168.199 290.095 167.301 288.811 166.788L289.71 166.531C289.838 166.018 287.784 166.659 289.838 165.505C288.811 165.633 289.453 163.837 287.398 165.248C289.068 163.58 287.398 163.452 286.628 163.067C285.087 164.35 285.729 162.811 284.83 163.196C285.986 162.169 286.499 162.811 287.398 162.169C284.958 162.939 287.527 159.218 283.931 161.399C284.06 161.271 284.188 161.143 284.316 161.015C284.188 160.886 284.702 160.245 284.702 160.116C284.059 160.501 284.059 160.886 283.546 160.758C283.546 160.373 284.573 159.86 284.83 159.475C283.803 159.475 282.904 158.962 281.491 159.86C281.748 159.475 282.39 158.834 282.775 158.705C281.234 158.705 282.519 157.807 281.234 157.551C281.491 157.807 282.775 156.653 282.519 157.551C284.188 155.883 281.363 156.653 281.876 155.241L280.464 155.754C279.95 155.498 281.106 154.728 281.748 154.728C282.133 153.573 281.106 153.702 280.721 153.189C280.849 153.06 281.106 152.932 281.106 153.06L280.721 152.291C280.335 152.419 279.565 152.547 278.794 153.189C279.308 153.573 279.822 153.445 279.693 154.087Z" fill="#181716"/>
<path d="M278.537 153.958L278.409 154.087C278.537 153.958 278.537 153.958 278.537 153.958Z" fill="#181716"/>
<path d="M277.766 164.094C278.023 163.837 278.151 163.709 278.151 163.58C277.894 163.709 277.766 163.965 277.766 164.094Z" fill="#181716"/>
<path d="M271.987 148.442C270.061 149.724 272.629 148.698 272.244 149.34C271.73 149.211 270.703 149.981 270.189 150.366C272.886 149.211 269.933 151.136 270.96 151.521C270.189 152.034 269.804 151.777 268.905 152.29C269.804 152.29 270.446 152.675 271.859 151.905C272.244 152.547 272.116 153.317 272.629 153.573C271.73 153.445 271.217 154.343 269.804 154.728C271.73 154.215 274.299 154.086 276.739 153.445C275.326 154.471 275.198 154.6 273.785 155.498C273.271 156.909 275.326 154.856 275.326 155.883V155.369C275.968 155.369 277.381 154.471 278.536 153.958L277.766 153.188C278.793 152.547 279.05 153.188 279.307 153.188C280.72 152.675 279.949 152.162 280.976 151.649C280.077 152.034 280.077 151.521 279.692 151.521L280.206 151.136C280.463 150.366 279.05 151.007 278.793 150.623C278.922 150.494 279.05 150.366 279.179 150.366C278.536 150.623 277.638 151.007 277.252 150.879L277.381 151.007C275.84 151.521 274.556 151.264 273.4 152.804L273.271 151.649C274.812 150.879 277.124 149.596 277.638 149.981L278.28 149.596C278.922 148.698 276.482 149.211 275.326 150.238C271.602 152.034 274.299 148.955 272.501 149.211C273.4 148.57 274.042 148.698 274.812 148.442C275.069 148.57 275.198 148.698 274.299 149.211C275.326 149.725 277.252 147.159 277.509 148.313C277.252 149.083 275.583 148.698 275.968 149.468L278.922 148.313C278.536 147.928 277.894 147.8 277.381 147.672C274.427 146.902 275.069 144.593 275.069 144.593C273.015 142.027 271.088 139.333 269.162 136.767C268.263 136.125 268.263 135.74 265.31 136.895C264.924 137.408 265.438 137.793 264.411 138.178C265.438 137.665 266.208 137.793 266.337 138.306C265.438 138.948 265.566 138.178 265.438 138.435V138.563C264.924 138.82 264.539 138.948 264.411 138.82C263.255 140.231 264.154 141.001 266.208 140.359C265.438 141.385 264.539 141.001 263.64 141.129C263.769 143.053 264.539 143.951 265.31 145.619C266.979 144.593 266.465 145.106 267.749 144.593L267.236 145.106C267.493 144.849 268.777 144.336 269.034 143.823C268.263 145.491 271.987 143.438 273.015 143.566L272.116 144.08C272.501 144.464 272.629 144.593 273.4 144.721C272.244 146.517 272.758 144.208 270.703 145.747H271.217C270.318 146.132 268.777 146.902 268.006 147.03C269.933 146.902 268.135 148.442 269.676 148.57C268.648 149.083 267.364 148.826 267.236 148.698C267.364 149.083 268.263 149.083 267.493 149.724L268.777 149.083C269.29 149.468 267.621 149.724 266.851 150.366C267.493 151.264 270.575 147.928 271.987 148.442Z" fill="#181716"/>
<path d="M278.665 160.245C278.665 159.988 278.537 159.988 278.409 159.988C278.409 160.116 278.409 160.245 278.665 160.245Z" fill="#181716"/>
<path d="M274.815 159.603C274.686 159.732 274.43 159.732 274.302 159.86C274.558 159.86 274.686 159.732 274.815 159.603Z" fill="#181716"/>
<path d="M273.014 160.501C273.527 160.116 273.655 160.245 274.425 159.86C273.912 159.988 273.655 159.603 273.014 160.501Z" fill="#181716"/>
<path d="M285.472 171.278C285.216 171.919 286.114 171.15 286.884 170.636C286.755 169.995 286.114 171.278 285.472 171.278Z" fill="#181716"/>
<path d="M280.207 166.788C279.822 167.557 280.976 167.173 281.105 167.429C281.49 166.788 280.848 166.659 280.207 166.788Z" fill="#181716"/>
<path d="M275.07 166.788C275.455 166.659 275.712 166.659 275.712 166.403L277.767 165.376C278.023 164.607 275.84 166.275 275.07 166.788Z" fill="#181716"/>
<path d="M273.014 164.35H274.041L273.913 164.094C274.683 163.709 275.068 163.58 275.839 163.324C275.197 163.195 274.298 163.324 273.014 164.35Z" fill="#181716"/>
<path d="M276.351 163.452C276.351 163.452 276.223 163.452 276.094 163.324C275.966 163.452 275.71 163.709 276.351 163.452Z" fill="#181716"/>
<path d="M275.969 163.195C275.841 163.195 275.841 163.195 275.712 163.324C275.841 163.324 275.969 163.324 276.097 163.452C276.354 163.195 276.354 163.067 275.969 163.195Z" fill="#181716"/>
<path d="M273.655 163.324L272.885 162.682L272.757 163.196C273.911 162.554 272.372 164.094 273.655 163.324Z" fill="#181716"/>
<path d="M271.859 158.705L272.886 157.936C272.758 157.294 270.061 158.192 271.602 156.781C271.088 157.422 270.061 157.166 270.189 157.936C271.345 157.551 271.987 158.192 271.859 158.705Z" fill="#181716"/>
<path d="M272.374 155.883C272.758 155.754 272.887 155.498 273.143 155.241C273.143 154.985 272.502 155.113 272.117 155.498C273.656 154.6 271.347 156.268 272.374 155.883Z" fill="#181716"/>
<path d="M270.832 153.702C270.96 153.83 271.217 153.958 271.345 153.573C270.96 153.189 269.804 154.087 268.905 154.343C268.52 155.113 270.446 154.343 270.832 153.702Z" fill="#181716"/>
<path d="M276.995 145.106C276.097 145.748 276.353 146.004 276.738 145.876C276.481 145.876 276.738 145.491 276.995 145.106Z" fill="#181716"/>
<path d="M268.907 149.981L268.778 150.238L270.319 149.468L268.907 149.981Z" fill="#181716"/>
<path d="M266.594 147.929L265.439 148.185L265.824 148.57L266.594 147.929Z" fill="#181716"/>
<path d="M266.467 147.287L266.082 146.902L265.825 147.287C265.697 147.672 266.339 147.159 266.467 147.287Z" fill="#181716"/>
<path d="M265.439 146.133C265.568 146.133 265.439 146.261 265.311 146.389H266.209L265.439 146.133Z" fill="#181716"/>
</g>
</g>
<path d="M88.4734 109.44C88.4734 109.44 97.8478 156.909 105.039 177.436H139.712L136.758 131.764C136.886 131.764 105.81 105.078 88.4734 109.44Z" fill="#7DA050"/>
<mask id="mask2_119_846" style="mask-type:luminance" maskUnits="userSpaceOnUse" x="88" y="108" width="52" height="70">
<path d="M88.468 109.441C88.468 109.441 97.8424 156.909 105.034 177.436H139.706L136.753 131.764C136.881 131.764 105.804 105.079 88.468 109.441Z" fill="white"/>
</mask>
<g mask="url(#mask2_119_846)">
<g opacity="0.78">
<path d="M112.866 125.349C112.738 125.477 112.609 125.605 112.481 125.734C112.481 125.734 112.609 125.605 112.866 125.349Z" fill="#181716"/>
<path d="M124.04 133.175L124.424 132.662C124.04 132.79 124.04 132.918 124.04 133.175Z" fill="#181716"/>
<path d="M109.396 128.3C109.267 128.3 109.011 128.428 108.626 128.813L109.396 128.3Z" fill="#181716"/>
<path d="M109.142 131.379C109.142 131.507 109.014 131.635 109.014 131.764C109.142 131.507 109.142 131.379 109.142 131.379Z" fill="#181716"/>
<path d="M103.491 117.01C103.619 117.01 103.619 116.882 103.619 116.882L103.491 117.01Z" fill="#181716"/>
<path d="M102.079 117.395C102.079 117.266 101.95 117.266 101.95 117.266L101.822 117.395C101.694 117.523 101.95 117.395 102.079 117.395Z" fill="#181716"/>
<path d="M92.1888 120.859L91.804 121.372C92.0605 121.115 92.1888 120.987 92.1888 120.859Z" fill="#181716"/>
<path d="M104.132 116.497C104.004 116.625 103.876 116.753 103.619 116.882C103.876 116.753 104.004 116.753 104.132 116.497Z" fill="#181716"/>
<path d="M112.995 125.093C112.867 125.221 112.867 125.221 112.867 125.349C112.867 125.221 112.995 125.221 112.995 125.093Z" fill="#181716"/>
<path d="M128.532 135.228C128.66 135.228 128.789 135.228 128.917 135.228C128.789 134.843 128.66 134.971 128.532 135.228Z" fill="#181716"/>
<path d="M105.544 120.217C104.517 121.885 105.031 119.961 104.003 121.629C104.517 121.372 104.774 121.244 104.26 122.142C103.49 122.912 103.875 121.757 102.848 123.04L103.49 122.783C103.233 123.553 102.205 124.451 102.462 124.451C104.003 122.783 102.848 125.862 103.361 125.734L103.104 125.862L102.976 127.017V127.145C103.104 127.017 103.104 126.889 103.233 126.76C102.848 127.787 102.719 128.685 103.233 128.685C104.132 127.787 104.774 129.198 105.544 128.428C105.159 128.556 105.031 128.556 105.031 128.043L105.93 126.76C106.315 127.017 105.159 127.915 106.058 127.402C107.085 125.606 105.544 127.017 105.416 126.76C105.801 126.375 106.186 126.119 106.443 126.119C105.93 125.734 105.93 124.836 104.389 126.247C104.517 125.734 105.031 125.093 105.287 124.964C104.26 125.734 105.673 123.81 104.774 124.451C105.93 122.912 106.058 124.194 107.085 123.425C106.7 124.964 108.113 124.194 108.755 124.323C107.984 125.477 106.957 126.247 106.7 127.145C106.7 128.3 107.599 126.889 108.369 126.375C108.498 127.017 107.085 128.428 107.727 128.813L106.828 129.326C106.058 131.251 107.599 128.813 107.599 129.326C107.856 128.813 108.113 128.428 107.727 128.3C108.113 127.658 108.498 127.53 108.626 127.53V127.402C109.268 126.632 109.91 125.862 110.039 126.504C109.14 127.402 109.91 127.402 109.654 127.915L109.397 128.043C109.91 127.915 110.039 128.172 110.424 128.172L110.296 128.428C110.809 128.172 111.58 127.017 111.708 127.402C111.323 127.915 110.167 129.07 110.553 129.07C110.039 129.839 109.654 129.583 109.525 129.198C109.654 129.711 109.012 130.994 108.626 130.866C108.113 131.892 109.268 130.737 109.14 131.251C109.268 130.994 109.525 130.609 109.782 130.353C109.012 131.636 110.424 130.866 111.066 129.968L110.296 130.481C110.938 129.455 111.837 129.07 111.965 128.3C111.066 130.096 113.378 128.043 112.736 129.583L113.121 128.685C113.506 129.711 115.304 128.172 116.331 128.172C115.818 128.556 114.662 130.353 114.533 129.455C115.047 130.224 113.635 131.379 113.378 132.405C113.506 133.432 114.662 130.866 115.176 130.481L114.533 130.609C116.331 128.813 115.689 131.892 117.23 131.122C116.973 131.764 116.845 131.379 116.717 131.507C116.46 132.79 117.23 131.507 117.615 131.122C117.872 131.507 118.001 132.277 117.102 133.432C117.359 133.945 117.487 132.534 118.001 132.277L117.872 132.662L119.156 131.379C119.285 132.02 119.285 133.047 118.771 134.33C119.799 134.586 120.697 131.379 121.596 131.251C121.596 132.149 120.954 132.277 120.697 132.79L121.34 132.918C120.312 134.33 120.312 133.303 119.413 135.099C120.826 133.56 120.312 134.971 121.468 134.073V133.945C122.367 132.918 122.495 134.073 123.009 133.945C122.495 134.586 122.11 134.458 121.596 134.586C121.725 135.356 123.009 135.356 124.165 133.945C124.293 134.33 124.422 135.228 123.779 135.741C124.422 136.382 125.192 133.56 125.706 134.458L125.064 135.613C124.935 137.794 127.247 134.715 127.247 136.639L128.017 135.099C127.889 135.741 128.017 136.254 127.889 136.896L127.247 137.28C126.99 138.692 128.146 136.254 128.146 137.28C128.402 136.767 128.531 135.613 128.659 135.099C126.733 135.228 126.219 132.405 124.036 133.175C124.036 133.432 123.908 133.56 123.779 133.945C123.779 133.56 123.266 133.688 123.779 132.918L123.908 132.79C123.394 132.918 123.908 130.994 123.651 130.866C123.009 131.764 123.009 129.968 122.367 131.764L122.624 130.609C122.238 131.251 121.853 132.02 121.468 132.277C121.211 132.02 121.596 131.379 122.11 130.994C121.468 129.839 120.184 129.326 118.771 129.198L119.542 128.556C119.542 128.043 117.872 129.455 119.156 127.53C118.129 128.043 118.129 126.119 116.845 128.172C117.744 125.991 116.203 126.632 115.304 126.375C114.405 128.172 114.405 126.504 113.763 127.274C114.533 125.862 115.176 126.247 115.818 125.349C113.763 127.017 114.79 122.655 112.35 125.862C112.35 125.734 112.479 125.477 112.607 125.477C112.479 125.349 112.607 124.708 112.607 124.451C112.094 124.964 112.222 125.477 111.837 125.477C111.708 125.221 112.479 124.323 112.607 123.81C111.58 124.323 110.681 124.066 109.654 125.349C109.782 124.836 110.039 123.938 110.424 123.81C108.883 124.323 109.782 123.168 108.498 123.296C108.755 123.425 109.654 121.885 109.654 122.783C110.553 120.602 108.241 122.27 108.241 120.859L107.214 121.885C106.7 121.885 107.471 120.602 107.984 120.346C107.856 119.191 106.957 119.704 106.443 119.319C106.572 119.191 106.7 118.934 106.7 119.063L106.058 118.55C105.801 118.806 105.159 119.191 104.645 120.089C105.031 119.833 105.416 119.448 105.544 120.217Z" fill="#181716"/>
<path d="M104.393 120.474L104.264 120.602C104.393 120.474 104.393 120.474 104.393 120.474Z" fill="#181716"/>
<path d="M107.475 130.224C107.603 129.839 107.603 129.711 107.603 129.583C107.603 129.711 107.475 129.968 107.475 130.224Z" fill="#181716"/>
<path d="M96.1721 117.908C94.8879 119.833 96.8142 117.908 96.8142 118.678C96.3005 118.806 95.6585 119.833 95.2732 120.474C97.3279 118.421 95.4016 121.244 96.4289 121.244C95.9153 122.014 95.53 121.885 94.7595 122.783C95.53 122.398 96.4289 122.527 97.4563 121.244C98.0984 121.629 98.2268 122.527 98.7404 122.527C97.8415 122.783 97.7131 123.81 96.5574 124.708C98.0984 123.553 100.538 122.398 102.465 120.859C101.566 122.398 101.437 122.527 100.41 123.81C100.538 125.349 101.566 122.655 101.951 123.553L101.822 123.04C102.465 122.783 103.492 121.5 104.262 120.602L103.235 120.217C104.006 119.191 104.391 119.704 104.648 119.576C105.675 118.55 104.776 118.421 105.547 117.523C104.904 118.293 104.776 117.78 104.262 117.908L104.648 117.395C104.648 116.497 103.492 117.78 103.107 117.523C103.235 117.395 103.235 117.267 103.363 117.138C102.85 117.652 102.208 118.293 101.822 118.421H102.079C100.924 119.448 99.5109 119.833 98.9973 121.5L98.4836 120.474C99.6394 119.191 101.309 117.138 101.822 117.267L102.336 116.754C102.593 115.727 100.538 117.138 99.8962 118.55C97.071 121.629 98.4836 117.78 96.8142 118.678C97.4563 117.78 98.0984 117.652 98.612 117.138C98.8689 117.138 98.9973 117.267 98.4836 118.036C99.6394 118.036 100.41 114.957 101.052 115.984C101.18 116.754 99.5109 117.138 100.025 117.652L102.336 115.471C101.822 115.214 101.18 115.471 100.667 115.471C97.7131 115.855 97.4563 113.546 97.4563 113.546C94.6311 111.878 91.8059 110.211 88.9808 108.543C87.9534 108.286 87.6966 107.901 85.5135 110.082C85.2567 110.724 86.0272 110.852 85.1283 111.622C85.8988 110.724 86.6693 110.467 86.9261 110.98C86.284 111.878 86.1556 111.109 86.1556 111.365V111.493C85.7704 111.878 85.3851 112.135 85.2567 112.135C84.743 113.803 85.7704 114.316 87.4398 112.776C87.1829 114.059 86.1556 113.931 85.3851 114.573C86.284 116.369 87.3114 116.882 88.5955 118.036C89.8797 116.497 89.4945 117.138 90.5218 116.24L90.2649 116.882C90.3934 116.497 91.4207 115.599 91.4207 115.086C91.2923 116.882 93.989 113.674 95.0164 113.418L94.3743 114.188C94.888 114.316 95.1448 114.444 95.7869 114.316C95.4016 116.369 95.0164 114.059 93.6038 116.24L94.1174 116.112C93.4754 116.754 92.1912 118.165 91.5491 118.55C93.2185 117.78 92.1912 119.833 93.7322 119.319C92.9617 120.217 91.6775 120.346 91.4207 120.346C91.6775 120.602 92.5764 120.346 91.9344 121.116L92.8333 119.961C93.3469 120.089 91.9344 120.987 91.5491 121.885C93.0901 122.27 94.7595 117.908 96.1721 117.908Z" fill="#181716"/>
<path d="M106.96 126.375C106.832 126.119 106.703 126.119 106.575 126.247C106.575 126.247 106.703 126.375 106.96 126.375Z" fill="#181716"/>
<path d="M103.104 127.145C102.976 127.273 102.848 127.402 102.719 127.53C102.976 127.402 103.104 127.273 103.104 127.145Z" fill="#181716"/>
<path d="M101.823 128.556C102.079 127.915 102.336 128.043 102.849 127.402C102.464 127.787 102.079 127.53 101.823 128.556Z" fill="#181716"/>
<path d="M139.321 141.001C139.45 141.514 139.193 142.284 139.064 142.925C139.707 143.438 139.578 141.386 140.092 142.027C139.45 143.182 140.349 142.925 140.862 143.567C140.477 142.284 140.22 141.386 139.707 141.001V141.899C139.321 142.027 139.45 141.386 139.321 141.001Z" fill="#181716"/>
<path d="M136.239 142.925L136.881 141.642C136.881 142.284 137.523 142.412 137.394 143.695C137.651 143.567 137.78 142.925 138.036 142.54C138.165 143.182 138.293 143.823 138.55 142.797C137.523 141.771 137.908 141.514 137.137 141.001C137.137 140.744 137.266 140.744 137.394 140.873C137.266 140.616 137.137 140.359 137.009 140.103C136.624 141.899 135.853 141.771 136.239 142.925Z" fill="#181716"/>
<path d="M135.597 141.771C136.11 141.771 136.495 140.616 136.495 139.718C136.11 139.975 135.725 140.231 135.341 140.616C135.597 140.616 135.982 140.488 135.597 141.771Z" fill="#181716"/>
<path d="M134.954 141.642C134.954 140.873 135.082 139.333 134.441 140.616C134.954 140.616 134.184 142.412 134.954 141.642Z" fill="#181716"/>
<path d="M132.256 139.59L132.77 140.744C132.384 142.412 132.256 141.129 131.742 141.771C132.384 142.284 132.256 141.771 133.155 140.873C133.283 141.001 133.925 140.231 134.311 139.846C132.77 140.873 133.925 136.767 132.256 139.59Z" fill="#181716"/>
<path d="M133.415 141.771L133.672 141.129L133.159 141.514L133.415 141.771Z" fill="#181716"/>
<path d="M130.974 137.024C131.231 134.971 129.69 137.794 129.433 136.767C129.561 136.639 129.561 136.511 129.818 136.382H129.304L129.433 135.998C128.919 137.152 128.277 137.409 127.763 138.179C127.763 139.59 128.662 136.896 128.406 138.307C128.149 138.82 127.635 139.59 127.378 139.975C127.892 139.461 128.277 138.82 128.662 138.307C129.048 138.307 128.662 138.948 128.534 139.333C129.176 138.82 129.818 137.152 130.203 137.665C130.203 138.82 129.433 139.205 130.075 138.948C130.46 137.024 130.589 139.461 131.231 138.435C131.488 138.948 131.359 140.231 131.102 140.873C131.616 139.461 132.386 138.307 132.9 138.05C132.515 138.435 132.13 138.692 131.744 139.077L132.13 137.28C131.488 137.794 131.231 137.537 130.974 137.024Z" fill="#181716"/>
<path d="M127.378 139.846C127.249 139.974 127.249 139.974 127.121 140.103C127.121 140.103 127.249 140.103 127.378 139.846Z" fill="#181716"/>
<path d="M131.102 141.257L130.717 141.642V142.155L131.102 141.257Z" fill="#181716"/>
<path d="M126.478 140.873C126.606 141.001 126.863 140.488 126.735 140.359L126.221 141.001L126.478 140.873Z" fill="#181716"/>
<path d="M126.606 139.59L126.735 138.563L126.221 139.333L126.606 139.59Z" fill="#181716"/>
<path d="M117.359 133.816C117.359 134.586 117.873 133.432 118.386 132.662C118.129 132.277 117.873 133.688 117.359 133.816Z" fill="#181716"/>
<path d="M110.811 131.764C110.682 132.662 111.709 131.764 111.965 132.02C111.965 131.251 111.452 131.379 110.811 131.764Z" fill="#181716"/>
<path d="M106.189 133.688C106.446 133.432 106.703 133.303 106.575 133.047L108.116 131.379C107.987 130.481 106.575 132.918 106.189 133.688Z" fill="#181716"/>
<path d="M103.234 132.148L104.133 131.764L103.876 131.507C104.518 130.865 104.775 130.609 105.288 130.096C104.775 130.352 104.004 130.737 103.234 132.148Z" fill="#181716"/>
<path d="M105.933 130.096C105.805 130.096 105.805 130.096 105.677 130.096C105.677 130.224 105.548 130.609 105.933 130.096Z" fill="#181716"/>
<path d="M105.546 129.968C105.418 130.096 105.418 130.096 105.29 130.096C105.418 130.096 105.546 129.968 105.675 129.968C105.803 129.839 105.803 129.711 105.546 129.968Z" fill="#181716"/>
<path d="M103.492 130.994L102.594 130.737V131.25C103.364 130.224 102.466 132.149 103.492 130.994Z" fill="#181716"/>
<path d="M100.025 127.402L100.667 126.247C100.411 125.734 98.0991 127.658 98.998 125.606C98.7412 126.375 97.7139 126.504 98.0991 127.273C99.1265 126.504 99.897 126.889 100.025 127.402Z" fill="#181716"/>
<path d="M99.3829 124.579C99.6395 124.323 99.7678 124.066 99.8961 123.681C99.7678 123.425 99.2546 123.81 98.998 124.323C100.153 122.912 98.6132 125.349 99.3829 124.579Z" fill="#181716"/>
<path d="M97.2004 123.168C97.3288 123.296 97.5856 123.296 97.5856 122.912C97.0719 122.655 96.4299 123.938 95.6594 124.579C95.5309 125.349 96.9435 123.938 97.2004 123.168Z" fill="#181716"/>
<path d="M99.6392 112.905C98.9978 113.803 99.3826 113.931 99.7675 113.674C99.5109 113.803 99.5109 113.418 99.6392 112.905Z" fill="#181716"/>
<path d="M93.989 120.474V120.73L95.1436 119.447L93.989 120.474Z" fill="#181716"/>
<path d="M91.0337 119.447L90.0073 120.089L90.6488 120.345L91.0337 119.447Z" fill="#181716"/>
<path d="M90.6488 118.806L90.1356 118.55L90.0073 119.063C90.1356 119.448 90.5205 118.806 90.6488 118.806Z" fill="#181716"/>
<path d="M89.3647 118.165C89.493 118.165 89.3647 118.293 89.3647 118.421L90.1345 118.165H89.3647Z" fill="#181716"/>
</g>
</g>
<path d="M318.595 130.609C318.595 130.609 275.447 159.09 193.517 150.494C111.587 142.027 54.313 81.0875 54.313 81.0875C54.313 81.0875 227.547 137.665 261.064 132.918C294.581 128.171 318.595 130.609 318.595 130.609Z" fill="#EFEECE"/>
<mask id="mask3_119_846" style="mask-type:luminance" maskUnits="userSpaceOnUse" x="54" y="81" width="265" height="72">
<path d="M318.597 130.609C318.597 130.609 275.449 159.09 193.519 150.494C111.59 142.027 54.3157 81.0875 54.3157 81.0875C54.3157 81.0875 227.55 137.665 261.067 132.918C294.583 128.171 318.597 130.609 318.597 130.609Z" fill="white"/>
</mask>
<g mask="url(#mask3_119_846)">
<g opacity="0.78">
<path d="M143.955 126.118L143.314 126.247C143.571 126.375 143.699 126.247 143.955 126.118Z" fill="#181716"/>
<path d="M150.631 139.974C150.76 140.103 151.016 140.103 151.529 140.231L150.631 139.974Z" fill="#181716"/>
<path d="M145.884 152.034C146.013 152.034 146.269 152.034 146.526 152.034C146.269 152.034 146.141 151.905 145.884 152.034Z" fill="#181716"/>
<path d="M145.756 139.718C145.884 139.718 146.012 139.718 146.012 139.718C146.012 139.589 145.884 139.589 145.756 139.718Z" fill="#181716"/>
<path d="M142.157 121.5C142.029 121.371 141.9 121.243 141.772 121.243C141.772 121.5 141.9 121.5 142.157 121.5Z" fill="#181716"/>
<path d="M147.551 148.442C149.477 147.928 147.679 148.955 149.606 148.57C149.092 148.442 148.835 148.313 149.734 147.928C150.89 147.928 149.734 148.442 151.403 148.313L150.761 148.057C151.532 147.672 152.816 147.8 152.688 147.544C150.376 147.672 153.33 146.261 152.944 146.004L153.201 146.132L154.1 145.363H154.229C154.1 145.363 153.972 145.363 153.843 145.363C154.871 144.978 155.641 144.336 155.256 143.951C153.972 143.951 154.614 142.54 153.458 142.54C153.843 142.668 153.843 142.797 153.587 143.182L152.046 143.438C152.046 143.053 153.458 143.182 152.431 142.925C150.376 143.438 152.559 143.566 152.431 143.823C151.917 143.823 151.532 143.695 151.275 143.566C151.275 144.208 150.761 144.849 152.816 144.978C152.431 145.234 151.532 145.363 151.275 145.234C152.559 145.491 150.119 145.747 151.275 146.004C149.349 146.261 150.119 145.234 148.964 145.106C150.376 144.208 148.835 143.823 148.45 143.31C149.862 143.053 151.147 143.182 151.917 142.797C152.688 142.027 151.018 142.283 150.119 142.155C150.505 141.642 152.431 141.642 152.431 140.872L153.458 141.129C155.384 140.359 152.559 140.872 152.944 140.487C152.431 140.744 151.917 140.744 152.046 141.129C151.275 141.257 151.018 141.129 150.89 141.001V141.129C149.862 141.129 148.835 141.385 149.22 140.744C150.376 140.744 149.991 140.231 150.505 139.974H150.761C150.248 139.718 150.376 139.333 150.119 139.204H150.376C149.862 139.076 148.45 139.333 148.578 138.82C149.22 138.691 150.89 138.82 150.505 138.435C151.403 138.306 151.532 138.691 151.275 139.076C151.532 138.691 152.944 138.178 153.073 138.563C154.1 138.178 152.559 138.306 152.944 137.921C152.559 138.05 152.174 138.05 151.917 138.178C153.458 137.793 151.917 137.28 150.761 137.537L151.66 137.793C150.505 138.05 149.606 137.793 148.964 138.05C150.761 137.408 147.808 137.152 149.349 136.639L148.45 137.023C148.835 135.997 146.524 135.869 145.882 135.099C146.524 135.227 148.578 134.842 148.065 135.484C148.321 134.586 150.119 134.714 151.018 134.329C151.66 133.559 148.964 134.458 148.321 134.458L148.835 134.842C146.267 134.842 148.964 133.046 147.294 132.533C147.936 132.277 147.679 132.661 147.936 132.661C149.092 132.02 147.551 132.405 147.037 132.277C147.166 131.763 147.551 131.25 149.092 130.994C149.349 130.48 148.193 131.25 147.679 131.122L147.936 130.994H146.138C146.524 130.48 147.166 129.839 148.578 129.197C148.065 128.428 145.111 129.839 144.341 129.326C144.983 128.684 145.496 129.069 146.138 128.941L145.882 128.428C147.551 128.171 146.909 128.813 148.835 128.299C146.78 128.299 148.065 127.786 146.652 127.53L146.524 127.658C145.111 127.786 145.882 126.888 145.496 126.503C146.395 126.375 146.524 126.76 146.909 127.017C147.423 126.375 146.524 125.477 144.597 125.734C144.726 125.477 145.368 124.707 146.138 124.836C146.138 123.937 143.57 125.22 143.827 124.322L145.111 123.937C146.652 122.526 142.928 122.911 144.341 121.628L142.8 122.141C143.442 121.756 143.57 121.243 144.212 120.987L144.854 121.115C146.01 120.345 143.442 121.243 144.212 120.474C143.698 120.602 142.8 121.372 142.286 121.628C143.827 122.911 142.029 125.22 144.084 126.247C144.212 126.118 144.469 125.99 144.726 125.99C144.341 126.247 144.854 126.503 144.084 126.76H143.955C144.469 127.017 142.671 128.043 142.671 128.299C143.827 128.171 142.414 129.326 144.212 128.556L143.185 129.197C143.955 129.069 144.726 128.813 145.239 128.813C145.111 129.197 144.469 129.326 143.955 129.326C143.57 130.609 144.084 131.892 144.983 132.918L144.084 132.79C143.698 133.175 145.882 133.431 143.57 133.688C144.597 134.073 143.313 135.356 145.625 134.842C143.442 135.74 144.983 136.51 145.496 137.152C147.423 136.51 146.267 137.665 147.166 137.665C145.625 138.178 145.368 137.408 144.341 137.537C146.909 137.793 143.056 140.231 147.166 139.718C147.037 139.846 146.909 139.846 146.652 139.846C146.652 139.974 146.01 140.359 145.882 140.616C146.652 140.616 146.909 140.102 147.166 140.487C147.037 140.872 145.882 140.872 145.496 141.129C146.524 141.514 147.037 142.412 148.707 142.155C148.321 142.412 147.423 142.797 147.037 142.668C148.45 143.31 147.037 143.566 147.936 144.336C147.808 144.08 146.138 144.464 146.78 143.951C144.597 144.721 147.423 145.234 146.395 146.261H147.936C148.321 146.645 146.909 146.902 146.267 146.774C145.496 147.672 146.524 147.928 146.524 148.57C146.395 148.698 146.01 148.698 146.138 148.57L146.267 149.468C146.652 149.468 147.423 149.724 148.321 149.468C147.551 149.083 147.037 148.955 147.551 148.442Z" fill="#181716"/>
<path d="M153.33 140.103C152.945 140.231 152.816 140.359 152.816 140.487C152.945 140.231 153.201 140.231 153.33 140.103Z" fill="#181716"/>
<path d="M152.302 156.652C154.485 156.267 151.917 156.139 152.431 155.754C152.816 156.011 154.1 155.754 154.742 155.626C151.789 155.626 155.256 154.984 154.485 154.215C155.384 154.086 155.641 154.471 156.668 154.343C155.898 153.958 155.384 153.317 153.715 153.573C153.586 152.803 154.1 152.162 153.715 151.777C154.485 152.29 155.384 151.649 156.797 151.777C154.871 151.52 152.431 150.622 149.991 150.238C151.788 149.853 151.917 149.724 153.586 149.596C154.614 148.441 151.917 149.596 152.302 148.698L152.045 149.211C151.403 148.955 149.734 149.211 148.578 149.211L148.963 150.238C147.808 150.494 147.808 149.724 147.422 149.596C145.881 149.596 146.523 150.366 145.368 150.366C146.395 150.366 146.138 150.751 146.523 151.007L145.881 151.136C145.239 151.777 146.909 151.649 147.037 152.162C146.909 152.29 146.78 152.29 146.652 152.29C147.422 152.29 148.321 152.29 148.578 152.547L148.45 152.419C150.119 152.547 151.146 153.317 152.816 152.419L152.431 153.573C150.761 153.701 148.064 153.958 147.808 153.317H147.037C146.138 153.958 148.578 154.343 149.991 153.83C154.228 153.573 150.376 155.369 152.174 155.882C151.018 156.139 150.504 155.754 149.734 155.626C149.605 155.369 149.477 155.241 150.504 155.113C149.734 154.215 147.037 155.882 147.166 154.728C147.679 154.086 149.092 155.113 149.092 154.343L145.881 154.215C146.01 154.728 146.652 155.113 147.037 155.369C149.477 157.294 147.936 159.09 147.936 159.09C148.707 162.297 149.477 165.504 150.248 168.584C150.761 169.61 150.761 169.866 153.843 169.995C154.485 169.738 154.1 169.097 155.256 169.225C154.1 169.225 153.458 168.968 153.458 168.327C154.614 168.199 154.1 168.712 154.357 168.584L154.485 168.455C155.127 168.455 155.513 168.455 155.513 168.712C157.182 167.942 156.668 166.787 154.485 166.659C155.641 166.018 156.283 166.787 157.182 166.916C157.824 165.12 157.567 163.965 157.439 162.169C155.513 162.425 156.155 162.169 154.742 162.041L155.513 161.784C155.127 161.912 153.715 161.784 153.458 162.297C154.871 161.143 150.633 161.527 149.734 160.886L150.761 160.758C150.504 160.244 150.504 160.116 149.862 159.603C151.66 158.448 150.248 160.373 152.816 159.731L152.302 159.475C153.33 159.475 154.999 159.475 155.769 159.603C153.972 158.962 156.283 158.32 154.871 157.55C156.026 157.55 157.054 158.192 157.182 158.448C157.31 158.063 156.283 157.679 157.439 157.422L156.026 157.55C155.769 157.037 157.31 157.422 158.209 157.165C157.567 155.882 153.33 157.679 152.302 156.652Z" fill="#181716"/>
<path d="M150.89 143.181C150.761 143.31 150.89 143.438 151.018 143.566C151.146 143.438 151.018 143.31 150.89 143.181Z" fill="#181716"/>
<path d="M154.104 145.363C154.361 145.363 154.489 145.363 154.617 145.363C154.489 145.234 154.361 145.234 154.104 145.363Z" fill="#181716"/>
<path d="M156.156 145.234C155.514 145.363 155.514 145.234 154.615 145.234C155.129 145.363 155.257 145.747 156.156 145.234Z" fill="#181716"/>
<path d="M136.25 103.282C135.994 103.667 135.352 103.924 135.48 104.308C135.737 104.18 136.122 104.052 136.378 104.052C136.378 103.795 136.25 103.539 136.25 103.282Z" fill="#181716"/>
<path d="M137.408 105.207C137.536 105.463 137.665 105.72 137.793 105.976C138.178 105.463 138.692 104.95 139.206 104.565C138.435 104.18 138.05 105.591 137.408 105.207Z" fill="#181716"/>
<path d="M138.435 107.131L138.05 107.388C138.307 107.388 138.435 107.259 138.435 107.131Z" fill="#181716"/>
<path d="M138.947 106.489C139.332 106.105 139.589 105.848 139.974 105.463C139.46 105.591 139.075 105.72 138.562 105.848L138.69 106.233C138.433 106.618 138.433 106.874 138.305 107.131C138.562 106.874 138.818 106.746 139.204 106.489C139.204 106.489 138.947 106.618 138.947 106.489Z" fill="#181716"/>
<path d="M139.587 106.874C139.715 106.746 139.715 106.618 139.844 106.49C139.715 106.618 139.587 106.746 139.587 106.874Z" fill="#181716"/>
<path d="M138.819 109.825C139.076 109.312 139.846 109.055 140.36 108.67C140.36 107.901 138.819 109.312 138.947 108.542C140.231 108.286 139.333 107.772 139.589 106.874C138.947 108.029 138.562 108.927 138.562 109.569L139.204 108.927C139.461 109.055 138.947 109.312 138.819 109.825Z" fill="#181716"/>
<path d="M142.287 110.595L141.003 110.98C141.517 110.595 141.131 109.953 142.159 109.184C141.902 109.055 141.388 109.44 141.003 109.568C141.388 108.927 141.645 108.542 140.875 108.927C140.875 110.338 140.361 110.338 140.618 111.236C140.361 111.365 140.361 111.236 140.361 111.108C140.232 111.365 140.232 111.621 140.104 112.006C141.26 111.108 141.773 111.621 142.287 110.595Z" fill="#181716"/>
<path d="M141.902 111.878C141.645 111.493 140.361 112.006 139.847 112.648C140.361 112.648 140.746 112.776 141.26 112.776C141.131 112.648 140.746 112.391 141.902 111.878Z" fill="#181716"/>
<path d="M142.285 112.391C141.771 112.904 140.617 113.931 141.9 113.546C141.515 113.161 143.439 112.391 142.285 112.391Z" fill="#181716"/>
<path d="M142.67 115.855L143.055 114.7C144.596 113.802 143.698 114.829 144.596 114.7C144.596 113.802 144.211 114.315 142.927 114.315C142.927 114.059 142.028 114.187 141.386 114.187C143.312 114.572 139.46 116.496 142.67 115.855Z" fill="#181716"/>
<path d="M143.442 113.417L142.8 113.674L143.442 113.802V113.417Z" fill="#181716"/>
<path d="M141.774 118.421C140.105 119.704 143.187 118.805 142.673 119.704C142.545 119.704 142.416 119.832 142.159 119.832L142.545 120.217L142.159 120.473C143.315 119.96 143.957 120.217 144.985 120.088C146.012 119.19 143.444 120.345 144.599 119.447C145.113 119.319 146.012 119.062 146.397 119.062C145.755 118.934 144.985 119.19 144.342 119.319C144.086 119.062 144.728 118.934 145.241 118.677C144.471 118.549 142.673 119.319 142.93 118.677C143.829 117.907 144.599 118.164 143.957 117.779C142.288 118.805 143.957 117.138 142.801 117.394C142.93 116.881 143.957 115.983 144.599 115.855C143.187 116.496 141.903 116.753 141.26 116.624C141.774 116.624 142.288 116.753 142.801 116.753L141.26 117.779C142.159 117.779 142.159 118.164 142.159 118.549L141.774 118.421Z" fill="#181716"/>
<path d="M144.725 115.47H145.238L145.623 115.085L144.725 115.47Z" fill="#181716"/>
<path d="M147.68 118.934C147.68 118.806 147.167 118.934 147.167 119.062L148.065 118.934H147.68Z" fill="#181716"/>
<path d="M146.782 119.832L145.884 120.473L146.654 120.345L146.782 119.832Z" fill="#181716"/>
<path d="M148.964 130.352C149.477 129.839 148.322 130.224 147.423 130.352C147.294 130.994 148.45 130.224 148.964 130.352Z" fill="#181716"/>
<path d="M152.048 136.639C152.69 136.125 151.535 135.997 151.407 135.612C150.894 136.125 151.407 136.382 152.048 136.639Z" fill="#181716"/>
<path d="M156.798 138.563C156.413 138.563 156.156 138.435 156.028 138.691L153.845 138.82C153.203 139.461 155.771 138.82 156.798 138.563Z" fill="#181716"/>
<path d="M157.697 141.77L156.798 141.385V141.642C155.899 141.642 155.514 141.642 154.744 141.642C155.257 141.898 156.156 142.155 157.697 141.77Z" fill="#181716"/>
<path d="M154.23 141.257L154.358 141.385C154.615 141.257 154.999 141.257 154.23 141.257Z" fill="#181716"/>
<path d="M154.486 141.642C154.615 141.642 154.615 141.642 154.743 141.642C154.615 141.514 154.486 141.514 154.358 141.385C154.23 141.514 154.101 141.514 154.486 141.642Z" fill="#181716"/>
<path d="M156.669 142.284L157.054 143.182L157.438 142.797C156.156 142.925 158.208 142.155 156.669 142.284Z" fill="#181716"/>
<path d="M156.415 147.287L155.13 147.543C155.002 148.185 157.827 148.441 155.901 149.083C156.671 148.698 157.442 149.339 157.699 148.57C156.543 148.57 156.158 147.8 156.415 147.287Z" fill="#181716"/>
<path d="M154.871 149.724C154.486 149.724 154.229 149.853 153.844 149.981C153.716 150.238 154.357 150.366 154.871 150.109C153.203 150.366 156.025 149.853 154.871 149.724Z" fill="#181716"/>
<path d="M155.386 152.419C155.386 152.29 155.129 152.034 154.872 152.29C155.001 152.803 156.542 152.419 157.441 152.547C158.211 152.034 156.028 151.905 155.386 152.419Z" fill="#181716"/>
</g>
</g>
<path d="M149.472 177.436C149.472 177.436 112.873 177.436 109.791 177.436C107.994 177.436 103.756 151.136 100.545 129.326C98.2339 113.931 96.5645 100.845 96.5645 100.845C96.5645 100.845 108.379 104.694 119.423 109.954C128.54 114.316 144.978 123.809 144.978 123.809L149.472 177.436Z" fill="#7DA050"/>
<path d="M109.791 177.436C107.994 177.436 103.756 151.136 100.545 129.326C98.2339 113.931 96.5645 100.845 96.5645 100.845" stroke="#1B1C1E" stroke-miterlimit="10"/>
<path d="M106.449 167.686C106.449 167.686 113.127 157.551 119.933 177.308C119.933 177.308 115.695 165.248 124.299 165.12C130.463 164.992 134.829 177.436 134.829 177.436" stroke="#1B1C1E" stroke-miterlimit="10"/>
<path d="M318.595 130.609C318.595 130.609 327.713 170.38 327.327 177.308H290.6C290.6 177.308 287.004 168.327 281.483 158.32C277.758 151.521 273.135 144.208 268.256 138.82C268.384 138.82 300.36 130.481 318.595 130.609Z" fill="#7DA050"/>
<path d="M290.732 177.308C290.732 177.308 287.136 168.327 281.614 158.32C277.89 151.521 273.267 144.208 268.387 138.82" stroke="#1B1C1E" stroke-miterlimit="10"/>
<path d="M303.57 134.201C303.57 134.201 313.844 147.8 325.144 161.528" stroke="#1B1C1E" stroke-miterlimit="10"/>
<path d="M288.16 171.535C288.16 171.535 287.261 164.992 292.526 166.146C297.278 167.173 300.617 177.436 300.617 177.436C300.617 177.436 294.838 164.222 303.699 165.12C309.092 165.762 312.174 177.436 312.174 177.436" stroke="#1B1C1E" stroke-miterlimit="10"/>
<path d="M318.595 130.609C318.595 130.609 180.547 172.048 54.4414 81.2158C54.4414 81.2158 54.9551 78.1368 56.4961 73.2616C57.6518 74.0314 128.281 120.73 206.487 128.428C283.537 135.997 315.384 122.398 316.155 122.142C317.054 124.964 317.953 127.786 318.595 130.609Z" fill="#93543B"/>
<path d="M316.156 122.013C315.386 122.398 283.538 135.869 206.488 128.3C128.282 120.602 57.6533 73.9031 56.4976 73.1333C63.0468 52.0931 87.5744 -3.07319 166.165 0.134154C249.508 3.72638 299.077 67.8733 316.156 122.013Z" fill="#A1683D"/>
<path d="M149.469 0.519043C149.469 0.519043 155.762 20.7895 158.073 23.7402C159.229 25.1515 192.36 48.2443 192.36 48.2443C192.36 48.2443 237.049 51.8366 238.719 52.2214C241.929 52.9912 263.632 40.0335 263.632 40.0335" stroke="#1B1C1E" stroke-miterlimit="10"/>
<path d="M158.074 23.6118C158.074 23.6118 138.683 31.6943 120.063 52.093L86.2893 44.9086L79.9968 32.0792" stroke="#1B1C1E" stroke-miterlimit="10"/>
<path d="M192.362 48.1161C192.362 48.1161 184.401 68.8997 180.163 84.2949" stroke="#1B1C1E" stroke-miterlimit="10"/>
<path d="M120.064 52.0931L141.766 81.2158L180.163 84.2949L217.917 106.361L252.205 91.4793C249.508 74.6728 238.592 52.0931 238.592 52.0931" stroke="#1B1C1E" stroke-miterlimit="10"/>
<path d="M252.202 91.4793L294.195 96.7393L300.487 86.2192" stroke="#1B1C1E" stroke-miterlimit="10"/>
<path d="M141.639 81.2157C141.639 81.2157 131.108 98.5354 128.155 109.055" stroke="#1B1C1E" stroke-miterlimit="10"/>
<path d="M217.916 106.233C217.916 106.233 217.916 119.319 217.916 129.326" stroke="#1B1C1E" stroke-miterlimit="10"/>
<path d="M294.197 96.7395C294.197 96.7395 302.801 117.395 305.112 125.349" stroke="#1B1C1E" stroke-miterlimit="10"/>
<path d="M86.1627 44.9087C86.1627 44.9087 75.1188 60.9454 68.0559 80.1895" stroke="#1B1C1E" stroke-miterlimit="10"/>
<path d="M56.4976 73.1333C57.6533 73.9031 128.282 120.602 206.488 128.3C283.538 135.869 315.386 122.27 316.156 122.013" stroke="#1B1C1E" stroke-miterlimit="10"/>
<path d="M37.491 33.7472C37.491 33.7472 37.491 39.0072 42.756 39.6487" stroke="#1B1C1E" stroke-miterlimit="10"/>
</svg>
